SplineFontDB: 3.0
FontName: DragonLeeShadow
FullName: Dragon Lee Shadow
FamilyName: DragonLee
Weight: Black
Copyright: Copyright (c) 2023, Alberto de la Cruz
UComments: "2017-11-29: Created with FontForge (http://fontforge.org)"
Version: 001.000
DefaultBaseFilename: dragon-lee-shadow
ItalicAngle: 0
UnderlinePosition: -101.9
UnderlineWidth: 50.9502
Ascent: 799
Descent: 225
InvalidEm: 0
LayerCount: 2
Layer: 0 0 "Back" 1
Layer: 1 0 "Fore" 0
XUID: [1021 97 -1070742597 4711661]
FSType: 0
OS2Version: 0
OS2_WeightWidthSlopeOnly: 0
OS2_UseTypoMetrics: 1
CreationTime: 1511978515
ModificationTime: 1698719926
PfmFamily: 17
TTFWeight: 900
TTFWidth: 5
LineGap: 92
VLineGap: 0
OS2TypoAscent: 0
OS2TypoAOffset: 1
OS2TypoDescent: 0
OS2TypoDOffset: 1
OS2TypoLinegap: 92
OS2WinAscent: 0
OS2WinAOffset: 1
OS2WinDescent: 0
OS2WinDOffset: 1
HheadAscent: 0
HheadAOffset: 1
HheadDescent: 0
HheadDOffset: 1
OS2Vendor: 'PfEd'
Lookup: 258 0 0 "'kern' Horizontal Kerning in Latin lookup 0" { "'kern' Horizontal Kerning in Latin lookup 0-1" [153,15,0] } ['    ' ('DFLT' <'dflt' > 'latn' <'dflt' > ) 'kern' ('DFLT' <'dflt' > 'latn' <'dflt' > ) ]
MarkAttachClasses: 1
DEI: 91125
KernClass2: 1 1 "'kern' Horizontal Kerning in Latin lookup 0-1"
 0 {}
LangName: 1033
Encoding: win
UnicodeInterp: none
NameList: AGL For New Fonts
DisplaySize: -48
AntiAlias: 1
FitToEm: 0
WinInfo: 46 23 11
BeginPrivate: 0
EndPrivate
Grid
-1024 177.826171875 m 0
 2048 177.826171875 l 1024
EndSplineSet
TeXData: 1 0 0 346030 173015 115343 0 1048576 115343 783286 444596 497025 792723 393216 433062 380633 303038 157286 324010 404750 52429 2506097 1059062 262144
BeginChars: 280 224

StartChar: A
Encoding: 65 65 0
Width: 636
VWidth: 0
Flags: HW
HStem: 0 46<45 259 343 570> 219 47<305 319> 393 22<305 319> 761 22<121 570>
VStem: 21 22<46 672> 259 46<46 219 415 598> 319 22<46 219 415 598> 570 46<46 759>
LayerCount: 2
Fore
SplineSet
341 645 m 5
 341 645 l 5
 341 393 l 5
 259 393 l 5
 259 509 l 6
 259 592 263 612 265 620 c 4
 268 629 276 644 300 645 c 6
 300 645 l 5
 341 645 l 5
305 415 m 5
 319 415 l 5
 319 598 l 6
 313 596 311 593 310 590 c 4
 308 583 305 559 305 485 c 6
 305 415 l 5
616 759 m 5
 616 0 l 5
 343 0 l 5
 319 24 l 5
 319 219 l 5
 305 219 l 5
 305 0 l 5
 45 0 l 5
 21 24 l 5
 21 35 l 6
 21 59 22 617 25 640 c 4
 28 664 34 686 45 708 c 4
 56 731 74 749 97 763 c 4
 120 776 149 783 183 783 c 6
 592 783 l 5
 616 759 l 5
47 637 m 4
 45 619 43 215 43 46 c 5
 259 46 l 5
 259 266 l 5
 341 266 l 5
 341 46 l 5
 570 46 l 5
 570 761 l 5
 183 761 l 6
 153 761 128 755 108 744 c 4
 89 733 74 717 65 698 c 4
 55 679 49 658 47 637 c 4
EndSplineSet
EndChar

StartChar: B
Encoding: 66 66 1
Width: 637
VWidth: 0
Flags: HW
HStem: 0 46<51 504> 165 22<323 333> 333 46<323 345> 500 22<323 343> 622 46<323 346> 760 22<48 483>
VStem: 26 22<46 760> 276 88<275 376 583 665> 276 47<187 333 523 622> 347 22<190 332 525 621> 565 47<105 390 469 685>
LayerCount: 2
Fore
SplineSet
364 642 m 4xfe20
 366 636 368 624 369 581 c 4
 369 573 366 533 364 526 c 4
 361 514 351 500 322 500 c 6
 276 500 l 5
 276 668 l 5
 322 668 l 6
 351 668 361 654 364 642 c 4xfe20
343 532 m 4
 344 537 347 574 347 580 c 4
 347 600 346 613 345 622 c 6
 323 622 l 5
 323 523 l 6
 340 523 342 529 343 532 c 4
322 379 m 6
 351 379 361 365 364 353 c 4xff20
 366 346 368 331 369 272 c 4
 368 213 366 197 364 190 c 4
 362 182 356 175 349 171 c 6
 348 171 l 6
 344 169 340 167 336 166 c 4
 335 166 334 165 333 165 c 6
 333 165 l 5
 322 165 l 5
 276 165 l 5
 276 379 l 5xfee0
 322 379 l 6
342 196 m 4
 343 201 346 217 347 272 c 4
 347 303 345 322 344 333 c 6
 323 333 l 5
 323 187 l 6xfee0
 326 187 329 188 331 188 c 4
 333 189 336 189 338 190 c 4
 340 191 341 193 342 196 c 4
589 390 m 4
 601 368 608 345 611 321 c 4
 614 298 612 183 612 178 c 4
 612 160 612 150 611 144 c 4
 608 120 601 97 589 75 c 4
 577 52 558 34 533 21 c 4
 508 8 476 1 439 1 c 6
 51 0 l 5
 26 24 l 5
 26 783 l 5
 414 783 l 6
 451 783 483 775 508 762 c 4
 520 756 531 749 540 740 c 6
 540 740 l 5
 541 739 l 6
 542 738 l 6
 564 717 l 5
 564 717 l 6
 574 707 583 696 589 684 c 4
 601 662 608 640 611 616 c 4
 613 603 613 584 613 571 c 4
 613 550 613 522 611 508 c 4
 608 484 601 461 589 439 c 4
 584 430 579 422 572 414 c 4
 579 406 584 399 589 390 c 4
48 760 m 5
 48 760 l 5
 48 46 l 5
 414 46 l 6
 448 46 475 52 497 64 c 4
 518 75 534 90 544 109 c 4
 554 128 561 149 564 170 c 4
 564 173 565 181 565 202 c 4
 566 235 567 324 565 342 c 4
 562 363 555 384 545 403 c 4
 540 413 533 422 524 430 c 6
 515 438 l 5
 524 446 l 6
 533 454 540 463 545 473 c 4
 555 492 562 513 565 534 c 4
 566 544 566 566 566 595 c 4
 566 608 566 625 565 637 c 4
 562 658 555 679 545 698 c 4
 535 717 519 732 498 743 c 4
 476 755 448 760 414 760 c 6
 48 760 l 5
EndSplineSet
EndChar

StartChar: C
Encoding: 67 67 2
Width: 488
VWidth: 0
Flags: HW
HStem: 0 47<125 427> 167 22<312 427> 598 46<315 427> 765 22<129 427>
VStem: 17 22<144 668> 263 47<193 588> 427 47<47 165 644 763>
LayerCount: 2
Fore
SplineSet
315 588 m 4
 313 582 310 560 310 480 c 6
 310 283 l 6
 310 231 312 204 313 189 c 4
 330 189 434 189 438 189 c 6
 449 190 l 5
 474 165 l 5
 475 154 l 5
 475 0 l 5
 225 0 l 6
 187 0 154 7 128 21 c 4
 117 27 107 34 98 42 c 6
 98 42 l 5
 96 43 l 6
 95 44 93 46 92 47 c 6
 69 69 l 6
 68 70 l 6
 68 70 l 5
 68 70 l 6
 58 79 50 90 44 101 c 4
 32 124 25 148 22 172 c 4
 20 192 17 230 17 284 c 5
 17 284 l 5
 17 295 l 5
 17 527 l 6
 17 581 20 619 22 639 c 4
 25 663 32 687 44 710 c 4
 57 733 77 752 103 766 c 4
 129 780 162 787 200 787 c 6
 449 787 l 5
 475 763 l 5
 475 598 l 5
 475 598 377 598 347 598 c 6
 336 598 l 6
 319 598 316 591 315 588 c 4
427 47 m 5
 427 167 l 6
 395 167 312 167 311 167 c 4
 283 167 273 180 269 192 c 4
 266 200 263 221 263 307 c 6
 263 504 l 6
 263 590 266 611 269 619 c 4
 272 629 280 641 300 644 c 6
 300 644 395 644 427 644 c 6
 427 765 l 5
 200 765 l 6
 165 765 136 759 113 747 c 4
 91 735 74 719 64 700 c 4
 53 680 47 659 44 637 c 4
 41 616 40 575 40 516 c 6
 40 506 l 5
 40 300 l 5
 40 295 l 6
 40 236 41 196 44 175 c 4
 47 153 53 132 64 112 c 4
 74 93 91 77 113 65 c 4
 136 53 165 47 200 47 c 6
 427 47 l 5
EndSplineSet
EndChar

StartChar: D
Encoding: 68 68 3
Width: 654
VWidth: 0
Flags: HW
HStem: 0 47<40 523> 168 22<315 339> 598 47<315 343> 766 22<39 500>
VStem: 17 22<47 766> 270 91<509 642> 270 45<190 598> 344 22<193 597> 590 45<117 676>
LayerCount: 2
Fore
SplineSet
318 645 m 6xfa80
 346 645 356 632 360 620 c 4xfc80
 363 612 367 591 367 505 c 6
 367 308 l 6xf980
 367 222 363 201 360 193 c 4xfc80
 356 181 346 168 318 168 c 6
 318 168 l 5
 318 168 l 5
 317 168 l 5
 270 168 l 5
 270 645 l 5
 318 645 l 6xfa80
344 308 m 5xfb80
 344 505 l 6
 344 556 343 583 342 598 c 4
 341 598 l 6
 315 598 l 5
 315 190 l 5
 318 190 l 5
 318 190 l 5
 319 190 l 6
 336 190 338 197 339 200 c 4
 341 206 344 228 344 308 c 5xfb80
635 503 m 5
 635 475 l 5
 635 260 l 6
 635 206 633 168 631 148 c 4
 628 124 620 100 608 77 c 4
 595 54 575 34 549 20 c 4
 523 6 492 0 453 -0 c 6
 40 0 l 5
 17 25 l 5
 17 788 l 5
 429 788 l 6
 467 788 500 781 526 767 c 4
 544 758 558 746 570 732 c 6
 570 732 l 5
 587 714 l 5
 587 714 l 6
 595 705 602 696 608 686 c 4
 620 663 628 639 631 615 c 4
 633 595 635 557 635 503 c 5
 635 503 l 5
39 766 m 5
 39 47 l 5
 429 47 l 6
 464 47 493 53 516 65 c 4
 538 77 555 93 565 112 c 4
 576 132 582 154 585 176 c 4
 588 197 590 237 590 296 c 6
 590 313 l 5
 590 517 l 6
 590 576 588 616 585 637 c 4
 582 659 576 680 565 700 c 4
 555 719 538 735 516 747 c 4
 493 759 464 766 429 766 c 6
 39 766 l 5
EndSplineSet
EndChar

StartChar: E
Encoding: 69 69 4
Width: 538
VWidth: 0
Flags: HW
HStem: 0 47<43 478> 174 22<316 478> 364 47<316 478> 538 22<316 478> 588 47<316 478> 761 22<41 478>
VStem: 19 22<47 761> 269 47<196 364 560 588> 478 47<47 171 411 535 634 759>
LayerCount: 2
Fore
SplineSet
525 588 m 5
 316 588 l 5
 316 560 l 5
 501 560 l 5
 525 535 l 5
 525 364 l 5
 316 364 l 5
 316 196 l 5
 501 196 l 5
 525 171 l 5
 525 0 l 5
 43 0 l 5
 18 25 l 5
 18 783 l 5
 501 783 l 5
 525 759 l 5
 525 588 l 5
478 411 m 5
 478 538 l 5
 269 538 l 5
 269 634 l 5
 478 634 l 5
 478 761 l 5
 41 761 l 5
 41 47 l 5
 478 47 l 5
 478 174 l 5
 269 174 l 5
 269 411 l 5
 478 411 l 5
EndSplineSet
EndChar

StartChar: F
Encoding: 70 70 5
Width: 532
VWidth: 0
Flags: HW
HStem: 0 47<39 265> 364 47<312 475> 538 22<312 475> 588 47<312 475> 761 22<37 475>
VStem: 15 22<47 761> 265 46<47 364 560 588> 475 46<411 535 634 759>
LayerCount: 2
Fore
SplineSet
521 588 m 5
 312 588 l 5
 312 560 l 5
 497 560 l 5
 521 535 l 5
 521 364 l 5
 312 364 l 5
 312 0 l 5
 39 0 l 5
 15 25 l 5
 15 783 l 5
 497 783 l 5
 521 759 l 5
 521 588 l 5
475 411 m 5
 475 538 l 5
 265 538 l 5
 265 634 l 5
 475 634 l 5
 475 761 l 5
 37 761 l 5
 37 47 l 5
 265 47 l 5
 265 411 l 5
 475 411 l 5
EndSplineSet
EndChar

StartChar: G
Encoding: 71 71 6
Width: 647
VWidth: 0
Flags: HW
HStem: 0 46<124 516> 167 22<311 355> 296 46<333 356> 469 22<332 582> 519 46<370 582> 598 47<314 344> 765 22<129 493>
VStem: 18 22<144 668> 263 46<193 319 491 588> 345 22<565 598> 355 23<192 296> 582 46<115 467 565 677>
LayerCount: 2
Fore
SplineSet
310 491 m 5xffd0
 310 491 l 5
 605 491 l 5
 629 467 l 5
 628 456 l 6
 628 445 628 417 628 383 c 4
 627 266 626 160 625 148 c 4
 622 124 614 100 602 77 c 4
 589 54 569 35 543 21 c 4
 517 7 486 0 447 0 c 6
 224 0 l 6
 185 0 153 7 127 21 c 4
 107 32 91 45 79 61 c 4
 65 72 53 85 45 101 c 4
 33 124 25 148 22 172 c 4
 20 192 18 230 18 284 c 5
 18 284 l 5
 18 312 l 5
 18 527 l 6
 18 581 20 619 22 639 c 4
 25 663 33 687 45 710 c 4
 58 733 77 752 103 766 c 4
 129 780 162 787 200 787 c 6
 423 787 l 6
 461 787 494 780 520 766 c 4
 540 755 555 742 567 726 c 4
 581 715 594 701 602 686 c 4
 614 663 622 639 625 615 c 4
 627 598 627 570 628 530 c 6
 629 519 l 5
 370 519 l 5
 346 543 l 5
 345 554 l 6
 345 575 344 589 343 598 c 6
 335 598 l 6
 318 598 315 591 314 588 c 4
 312 582 309 562 309 491 c 5
 310 491 l 5xffd0
312 189 m 6
 312 189 334 189 336 189 c 4
 351 189 354 195 355 198 c 4xffb0
 356 206 356 257 356 296 c 5
 333 296 l 5
 309 319 l 5
 309 319 l 5
 309 319 l 5
 309 283 l 6
 309 231 311 204 312 189 c 6
 312 189 l 6
44 175 m 4
 47 153 53 132 64 112 c 4
 74 93 91 77 113 65 c 4
 136 53 165 46 200 46 c 6
 423 46 l 6
 458 46 486 53 509 65 c 4
 531 77 548 93 558 112 c 4
 569 132 576 153 579 175 c 4
 580 186 581 325 582 408 c 4
 582 434 582 455 582 469 c 6
 332 469 l 5
 332 342 l 5
 379 342 l 5
 379 331 l 6xffb0
 379 198 377 195 376 192 c 4
 372 181 363 167 336 167 c 4
 336 167 l 6
 336 167 l 6
 333 167 329 167 324 167 c 6
 312 167 l 6
 284 167 273 180 269 192 c 4
 266 200 263 221 263 307 c 6
 263 504 l 6
 263 590 266 611 269 619 c 4
 272 629 280 641 300 644 c 6
 322 644 l 6
 348 644 358 631 362 620 c 4
 364 615 366 603 367 565 c 5xffd0
 582 565 l 6
 581 598 581 622 579 636 c 4
 576 658 569 680 558 700 c 4
 548 719 531 735 509 747 c 4
 486 759 458 765 423 765 c 6
 200 765 l 6
 165 765 136 759 113 747 c 4
 91 735 74 719 64 700 c 4
 53 680 47 658 44 636 c 4
 41 615 40 575 40 516 c 6
 40 506 l 5
 40 300 l 5
 40 295 l 6
 40 236 41 196 44 175 c 4
EndSplineSet
EndChar

StartChar: H
Encoding: 72 72 7
Width: 674
VWidth: 0
Flags: HW
HStem: 0 47<45 272 378 603> 371 47<319 354> 547 22<319 354> 761 22<43 272 376 603>
VStem: 21 22<47 761> 272 46<47 371 570 759> 354 22<47 371 570 761> 603 46<47 759>
LayerCount: 2
Fore
SplineSet
625 783 m 5
 649 759 l 5
 649 0 l 5
 378 0 l 5
 354 25 l 5
 354 371 l 5
 319 371 l 5
 319 0 l 5
 45 0 l 5
 21 25 l 5
 21 783 l 5
 295 783 l 5
 319 759 l 5
 319 570 l 5
 354 570 l 5
 354 783 l 5
 625 783 l 5
43 761 m 5
 43 47 l 5
 272 47 l 5
 272 417 l 5
 376 417 l 5
 376 47 l 5
 603 47 l 5
 603 761 l 5
 376 761 l 5
 376 547 l 5
 272 547 l 5
 272 761 l 5
 43 761 l 5
EndSplineSet
EndChar

StartChar: I
Encoding: 73 73 8
Width: 448
VWidth: 0
Flags: HW
HStem: 0 46<35 390> 172 22<33 84 367 390> 589 46<35 84 367 390> 761 22<33 390>
VStem: 11 22<46 172 635 761> 84 22<194 589> 321 47<194 589> 390 47<46 170 635 759>
LayerCount: 2
Fore
SplineSet
437 589 m 1
 367 589 l 1
 367 194 l 1
 412 194 l 1
 437 170 l 1
 437 0 l 1
 35 0 l 1
 11 24 l 1
 11 194 l 1
 84 194 l 1
 84 589 l 1
 35 589 l 1
 11 613 l 1
 11 783 l 1
 412 783 l 1
 437 759 l 1
 437 589 l 1
390 46 m 1
 390 46 l 1
 390 172 l 1
 321 172 l 1
 321 635 l 1
 390 635 l 1
 390 761 l 1
 33 761 l 1
 33 635 l 1
 106 635 l 1
 106 172 l 1
 33 172 l 1
 33 46 l 1
 390 46 l 1
EndSplineSet
EndChar

StartChar: J
Encoding: 74 74 9
Width: 650
VWidth: 0
Flags: HW
HStem: 0 47<129 521> 167 22<310 337> 398 22<45 260> 765 22<364 587>
VStem: 23 22<141 398> 260 47<192 396> 342 22<199 765> 587 47<116 763>
LayerCount: 2
Fore
SplineSet
610 787 m 5
 634 763 l 5
 634 271 l 6
 634 267 633 170 630 148 c 4
 627 124 619 100 607 77 c 4
 594 54 574 35 548 21 c 4
 522 7 491 0 452 0 c 6
 229 0 l 6
 190 0 158 7 132 21 c 4
 118 28 106 37 96 47 c 6
 96 47 l 5
 76 67 l 5
 76 67 l 6
 65 77 56 88 49 101 c 4
 37 124 29 147 26 172 c 4
 25 184 24 268 23 360 c 4
 23 382 23 400 23 409 c 6
 22 420 l 5
 281 420 l 5
 306 396 l 5
 306 385 l 6
 306 377 307 361 307 340 c 4
 308 296 309 222 310 189 c 6
 316 189 l 6
 334 189 336 196 337 199 c 4
 339 205 342 227 342 307 c 6
 342 787 l 5
 610 787 l 5
49 175 m 4
 52 153 58 132 69 112 c 4
 79 93 96 77 118 65 c 4
 141 53 169 47 204 47 c 6
 427 47 l 6
 462 47 491 53 514 65 c 4
 536 77 553 93 563 112 c 4
 574 132 580 153 583 175 c 4
 585 195 587 294 587 295 c 6
 587 765 l 5
 364 765 l 5
 364 307 l 6
 364 221 361 200 358 192 c 4
 354 180 344 167 316 167 c 6
 314 167 l 5
 305 167 l 5
 305 167 l 5
 304 167 l 5
 304 167 l 6
 278 167 269 181 265 192 c 4
 263 197 262 223 260 364 c 4
 260 378 260 389 260 398 c 6
 45 398 l 6
 45 388 45 375 45 360 c 4
 46 299 48 187 49 175 c 4
EndSplineSet
EndChar

StartChar: K
Encoding: 75 75 10
Width: 639
VWidth: 0
Flags: HW
HStem: 0 47<51 274 370 564> 333 47<323 340> 761 22<47 274 420 557>
VStem: 25 22<47 761> 274 49<47 333 601 759> 343 22<47 305> 564 48<47 376>
LayerCount: 2
Fore
SplineSet
613 84 m 4
 613 50 613 21 613 11 c 6
 613 0 l 5
 370 0 l 5
 344 25 l 5
 343 36 l 6
 343 45 343 75 343 113 c 4
 342 179 341 291 340 333 c 4
 335 333 328 333 323 333 c 6
 323 0 l 5
 51 0 l 5
 25 25 l 5
 25 784 l 5
 297 784 l 5
 323 759 l 5
 323 601 l 5
 406 784 l 5
 592 784 l 5
 618 759 l 5
 485 462 l 6
 509 454 527 443 540 431 c 6
 540 431 l 5
 543 428 l 6
 544 428 l 6
 568 405 l 5
 568 405 l 6
 578 396 584 387 588 380 c 4
 599 360 607 338 610 314 c 4
 611 303 612 199 613 84 c 4
47 761 m 5
 47 47 l 5
 274 47 l 5
 274 381 l 5
 286 380 l 5
 286 380 320 380 322 380 c 4
 341 380 355 371 360 355 c 4
 362 350 363 324 365 113 c 4
 365 85 365 61 365 47 c 6
 564 47 l 6
 564 61 564 82 564 108 c 4
 563 189 562 326 561 336 c 4
 558 357 552 376 542 394 c 4
 532 412 496 447 433 449 c 6
 417 450 l 5
 557 761 l 5
 420 761 l 5
 275 439 l 5
 274 761 l 5
 47 761 l 5
EndSplineSet
EndChar

StartChar: L
Encoding: 76 76 11
Width: 522
VWidth: 0
Flags: HW
HStem: 0 46<43 461> 172 22<318 461> 761 22<41 272>
VStem: 19 22<46 761> 272 46<194 759> 461 46<46 170>
LayerCount: 2
Fore
SplineSet
483 194 m 5
 508 170 l 5
 508 0 l 5
 43 0 l 5
 19 24 l 5
 19 783 l 5
 294 783 l 5
 318 759 l 5
 318 194 l 5
 483 194 l 5
41 761 m 5
 41 46 l 5
 461 46 l 5
 461 172 l 5
 272 172 l 5
 272 761 l 5
 41 761 l 5
EndSplineSet
EndChar

StartChar: M
Encoding: 77 77 12
Width: 809
VWidth: 0
Flags: HW
HStem: 0 46<39 268 513 742> 772 22<37 272 508 742>
VStem: 15 22<46 772> 268 46<46 292> 490 22<46 269> 742 46<46 771>
LayerCount: 2
Fore
SplineSet
764 794 m 1
 788 771 l 1
 788 0 l 1
 513 0 l 1
 490 24 l 1
 490 269 l 1
 414 89 l 1
 390 113 l 1
 314 292 l 1
 314 0 l 1
 39 0 l 1
 15 24 l 1
 15 794 l 1
 286 794 l 1
 310 771 l 1
 396 569 l 1
 493 794 l 1
 764 794 l 1
268 459 m 1
 390 170 l 1
 512 460 l 1
 512 46 l 1
 742 46 l 1
 742 772 l 1
 508 772 l 1
 390 496 l 1
 272 772 l 1
 37 772 l 1
 37 46 l 1
 268 46 l 1
 268 459 l 1
EndSplineSet
EndChar

StartChar: N
Encoding: 78 78 13
Width: 746
VWidth: 0
Flags: HW
HStem: 0 47<47 275 449 680> 773 22<45 279 450 680>
VStem: 22 22<47 773> 275 46<47 288> 427 22<508 773> 680 46<47 771>
LayerCount: 2
Fore
SplineSet
702 795 m 5
 726 771 l 5
 726 0 l 5
 449 0 l 5
 321 288 l 5
 321 0 l 5
 47 0 l 5
 22 25 l 5
 22 795 l 5
 293 795 l 5
 318 771 l 5
 427 508 l 5
 427 795 l 5
 702 795 l 5
275 457 m 5
 446 47 l 5
 680 47 l 5
 680 773 l 5
 450 773 l 5
 450 364 l 5
 279 773 l 5
 45 773 l 5
 45 47 l 5
 275 47 l 5
 275 457 l 5
EndSplineSet
EndChar

StartChar: O
Encoding: 79 79 14
Width: 653
VWidth: 0
Flags: HW
HStem: 0 45<139 522> 166 23<313 337> 770 23<132 500>
VStem: 19 23<142 673> 267 44<192 602> 342 23<192 603> 590 44<116 668>
LayerCount: 2
Fore
SplineSet
316 166 m 6
 288 166 277 180 273 192 c 4
 270 200 267 221 267 308 c 6
 267 507 l 6
 267 594 270 615 273 623 c 4
 277 635 288 649 316 649 c 6
 316 649 l 6
 344 649 355 635 359 623 c 4
 362 615 365 594 365 507 c 6
 365 308 l 6
 365 221 362 200 359 192 c 4
 355 180 344 166 316 166 c 6
 316 166 l 6
340 597 m 4
 339 598 l 4
 339 600 339 601 339 603 c 5
 327 601 320 595 317 586 c 4
 313 574 311 536 311 473 c 6
 311 275 l 6
 311 237 312 208 313 189 c 4
 314 189 315 189 316 189 c 6
 316 189 l 5
 317 189 l 6
 334 189 336 196 337 199 c 4
 339 205 342 227 342 308 c 6
 342 507 l 6
 342 534 342 560 340 587 c 4
 340 589 340 591 340 593 c 4
 340 594 l 4
 340 595 340 596 340 597 c 4
634 486 m 6
 634 486 l 5
 634 486 l 5
 634 468 l 5
 634 280 l 5
 634 262 l 5
 634 262 l 5
 634 202 633 162 630 140 c 4
 627 116 620 94 608 72 c 4
 596 50 579 33 554 20 c 4
 529 7 498 0 461 0 c 6
 349 0 l 5
 236 0 l 6
 199 0 168 7 143 20 c 4
 140 22 137 23 134 25 c 6
 134 25 l 5
 99 46 l 5
 100 46 l 6
 100 46 l 6
 97 48 94 49 91 51 c 4
 91 51 l 4
 88 53 85 55 83 57 c 4
 83 57 l 4
 81 59 78 61 76 63 c 4
 75 64 l 4
 73 66 71 67 69 69 c 4
 68 70 68 70 67 71 c 4
 65 73 64 74 62 76 c 4
 61 77 61 78 60 79 c 4
 59 81 57 82 56 84 c 4
 55 85 55 86 54 87 c 4
 53 88 52 90 51 91 c 4
 49 94 48 97 46 100 c 4
 34 123 26 146 23 171 c 4
 21 191 19 230 19 284 c 5
 19 284 l 5
 19 313 l 5
 19 531 l 6
 19 585 21 622 23 643 c 4
 26 668 34 692 46 715 c 4
 59 739 79 758 105 772 c 4
 131 786 164 793 203 793 c 6
 428 793 l 6
 467 793 501 786 527 772 c 4
 554 758 573 739 586 715 c 6
 604 683 l 5
 604 683 l 6
 605 681 607 678 608 676 c 4
 620 654 627 633 630 609 c 4
 633 587 634 546 634 486 c 6
42 502 m 5
 42 301 l 5
 42 296 l 6
 42 236 43 195 46 174 c 4
 49 152 56 131 67 111 c 4
 77 92 94 75 116 63 c 4
 139 51 168 45 203 45 c 6
 428 45 l 6
 463 45 493 51 516 63 c 4
 538 75 555 92 565 111 c 4
 576 131 583 152 586 174 c 4
 589 195 590 236 590 296 c 6
 590 313 l 5
 590 519 l 6
 590 579 589 620 586 641 c 4
 583 663 576 684 565 704 c 4
 555 723 538 740 516 752 c 4
 493 764 463 770 428 770 c 6
 203 770 l 6
 168 770 139 764 116 752 c 4
 94 740 77 723 67 704 c 4
 56 684 49 663 46 641 c 4
 43 620 42 579 42 519 c 6
 42 502 l 5
EndSplineSet
EndChar

StartChar: P
Encoding: 80 80 15
Width: 632
VWidth: 0
Flags: HW
HStem: -0 46<48 273> 315 46<320 503> 454 22<320 331> 622 46<320 343> 760 22<46 480>
VStem: 24 22<46 760> 273 46<46 315 476 622> 274 88<583 665> 344 22<478 548 548 621> 564 46<422 681>
LayerCount: 2
Fore
SplineSet
331 454 m 5xfcc0
 320 454 l 5
 274 454 l 5
 274 668 l 5
 320 668 l 6
 349 668 359 654 362 642 c 4xfd40
 364 636 366 624 367 581 c 4
 367 575 367 548 367 548 c 6
 367 545 366 543 366 540 c 4
 365 497 364 485 362 479 c 4
 359 469 351 457 331 454 c 6
 331 454 l 5xfcc0
344 541 m 4xfcc0
 344 547 344 575 344 580 c 4
 344 600 343 613 342 622 c 6
 320 622 l 5
 320 476 l 5
 321 476 l 6
 338 476 339 483 340 485 c 4
 341 489 343 502 344 541 c 4xfcc0
610 534 m 4
 610 523 610 512 610 503 c 4
 610 490 610 471 608 458 c 4
 605 434 598 411 586 389 c 4
 574 366 555 348 530 335 c 4
 505 322 473 315 436 315 c 6
 320 315 l 5
 320 0 l 5xfe40
 48 -0 l 5
 24 24 l 5
 24 782 l 5
 412 782 l 6
 449 782 481 775 506 762 c 4
 518 755 529 748 538 739 c 6
 538 739 l 5
 539 739 l 6
 540 738 l 6
 566 712 l 5
 566 712 l 6
 574 704 581 694 586 684 c 4
 598 662 605 639 608 615 c 4
 610 602 610 584 610 571 c 4
 610 562 610 547 610 534 c 4
46 760 m 5
 46 46 l 5
 273 46 l 5
 273 361 l 5
 412 361 l 6
 446 361 473 367 495 379 c 4
 516 390 533 405 543 424 c 4
 553 443 559 464 562 485 c 4
 563 497 564 515 564 527 c 4
 564 536 564 547 564 558 c 4
 564 571 564 586 564 595 c 4
 564 608 563 625 562 637 c 4
 559 658 553 679 543 698 c 4
 533 717 516 732 495 743 c 4
 473 755 446 760 412 760 c 6
 46 760 l 5
EndSplineSet
EndChar

StartChar: Q
Encoding: 81 81 16
Width: 651
VWidth: 0
Flags: HW
HStem: -214 47<275 494> -51 22<457 494> -6 47<457 517> 162 22<312 333> 592 47<316 337> 760 22<130 494>
VStem: 18 22<138 662> 173 21<-74 2> 263 47<187 592> 338 22<187 591> 409 48<-26 -6> 494 47<-167 -54> 583 47<111 670>
LayerCount: 2
Fore
SplineSet
312 639 m 2
 340 639 350 626 354 614 c 0
 357 606 360 585 360 499 c 2
 360 302 l 2
 360 216 357 195 354 187 c 0
 350 175 340 162 312 162 c 2
 312 162 l 2
 284 162 274 176 270 187 c 0
 267 195 263 216 263 302 c 2
 263 499 l 2
 263 585 267 606 270 614 c 0
 274 626 284 639 312 639 c 2
 312 639 l 2
338 302 m 1
 338 499 l 2
 338 550 336 577 335 592 c 0
 319 592 317 585 316 582 c 0
 314 576 311 554 311 474 c 2
 311 277 l 2
 311 226 312 199 313 184 c 0
 329 184 332 191 333 194 c 0
 335 201 338 226 338 302 c 1
631 497 m 1
 631 469 l 1
 631 254 l 2
 631 199 628 163 626 142 c 0
 623 118 616 94 604 71 c 0
 591 48 571 29 545 15 c 0
 521 2 492 -5 457 -6 c 1
 457 -16 457 -23 458 -29 c 2
 516 -29 l 1
 541 -54 l 1
 541 -214 l 1
 373 -214 l 2
 336 -214 304 -207 279 -194 c 0
 260 -184 245 -171 233 -155 c 0
 218 -144 206 -130 198 -114 c 0
 186 -92 179 -70 176 -46 c 0
 175 -35 174 -20 173 0 c 0
 158 3 140 9 128 15 c 0
 114 23 102 31 92 41 c 2
 92 41 l 1
 71 62 l 2
 68 65 65 69 62 72 c 2
 62 72 l 1
 62 72 l 2
 56 79 50 87 45 96 c 0
 33 119 25 142 22 167 c 0
 20 187 18 225 18 279 c 1
 18 279 l 1
 18 307 l 1
 18 522 l 2
 18 576 20 614 22 634 c 0
 25 658 33 682 45 705 c 0
 58 728 77 747 103 761 c 0
 129 775 161 782 200 782 c 2
 423 782 l 2
 462 782 494 775 520 761 c 0
 535 753 547 744 558 733 c 2
 558 733 l 1
 580 711 l 1
 580 711 l 2
 589 702 598 691 604 680 c 0
 616 657 623 633 626 609 c 0
 628 588 631 552 631 497 c 1
 631 497 l 1
494 -167 m 1
 494 -51 l 1
 455 -51 l 2
 428 -51 418 -38 414 -27 c 0
 412 -22 410 -9 409 30 c 2
 409 41 l 1
 423 41 l 2
 458 41 487 47 510 59 c 0
 532 71 549 87 559 106 c 0
 570 126 576 148 579 170 c 0
 582 191 583 231 583 290 c 2
 583 307 l 1
 583 511 l 2
 583 570 582 610 579 631 c 0
 576 653 570 675 559 695 c 0
 549 714 532 730 510 742 c 0
 487 754 458 760 423 760 c 2
 200 760 l 2
 165 760 137 754 114 742 c 0
 92 730 75 714 65 695 c 0
 54 675 47 653 44 631 c 0
 41 610 40 570 40 511 c 2
 40 494 l 1
 40 296 l 1
 40 290 l 2
 40 231 41 191 44 170 c 0
 47 148 54 126 65 106 c 0
 75 87 92 71 114 59 c 0
 132 49 172 43 185 41 c 2
 194 40 l 1
 194 30 l 2
 195 -4 196 -29 198 -43 c 0
 201 -64 207 -85 217 -104 c 0
 227 -123 244 -138 265 -149 c 0
 287 -161 314 -167 348 -167 c 2
 494 -167 l 1
EndSplineSet
EndChar

StartChar: R
Encoding: 82 82 17
Width: 627
VWidth: 0
Flags: HW
HStem: 0 46<48 273 368 563> 333 46<320 342> 454 22<320 331> 622 46<320 343> 760 22<46 480>
VStem: 23 22<46 760> 273 88<276 376 583 665> 273 47<46 333 476 622> 344 22<46 333 478 621> 563 47<46 387 471 681>
LayerCount: 2
Fore
SplineSet
331 454 m 5xfc40
 319 454 l 5
 274 454 l 5
 274 668 l 5
 319 668 l 6
 348 668 358 654 361 642 c 4
 363 636 365 624 366 581 c 4
 366 574 366 526 365 516 c 4
 364 491 362 483 361 479 c 4
 358 469 351 457 331 454 c 6
 331 454 l 5xfc40
343 518 m 4
 344 528 344 573 344 580 c 4
 344 600 343 613 342 622 c 6
 320 622 l 5
 320 476 l 6
 337 476 339 482 340 485 c 4
 341 488 342 496 343 518 c 4
608 321 m 4
 609 313 610 294 610 262 c 6
 610 251 l 5
 610 0 l 5
 368 0 l 5
 344 24 l 5
 344 273 l 6
 344 304 343 322 342 333 c 6
 320 333 l 5
 320 0 l 5xfdc0
 48 0 l 5
 23 24 l 5
 23 782 l 5
 412 782 l 6
 449 782 480 775 505 762 c 4
 517 755 529 748 538 739 c 6
 538 739 l 5
 538 739 l 6
 539 738 l 6
 562 716 l 5
 562 716 l 6
 572 707 580 696 586 684 c 4
 598 662 605 640 608 616 c 4
 610 603 610 584 610 571 c 4
 610 550 610 522 608 508 c 4
 605 484 598 461 586 439 c 4
 581 430 576 422 569 414 c 4
 576 406 581 399 586 390 c 4
 598 368 605 345 608 321 c 4
46 760 m 5
 46 46 l 5
 273 46 l 5
 273 379 l 5xfdc0
 319 379 l 6
 348 379 358 365 361 353 c 4xfe40
 363 346 365 331 366 273 c 6
 366 46 l 5
 563 46 l 5
 563 274 l 6
 563 320 563 336 562 342 c 4
 559 363 552 384 542 403 c 4
 537 413 530 422 521 430 c 6
 512 438 l 5
 521 446 l 6
 530 454 537 463 542 473 c 4
 552 492 559 513 562 534 c 4
 563 544 563 566 563 595 c 4
 563 608 563 625 562 637 c 4
 559 658 552 679 542 698 c 4
 532 717 516 732 495 743 c 4
 473 755 446 760 412 760 c 6
 46 760 l 5
EndSplineSet
EndChar

StartChar: S
Encoding: 83 83 18
Width: 656
VWidth: 0
Flags: HW
HStem: 0 46<60 514> 181 22<58 326> 286 46<132 343> 495 22<316 478> 599 46<322 526> 779 22<140 526>
VStem: 35 22<46 181> 263 47<522 587> 349 22<225 280> 526 47<645 777>
LayerCount: 2
Fore
SplineSet
644 286 m 0
 650 220 640 151 616 98 c 0
 602 68 581 44 552 26 c 0
 524 8 489 0 447 -0 c 2
 445 -0 l 1
 60 0 l 1
 35 24 l 1
 36 204 l 1
 47 204 l 2
 48 204 152 203 228 203 c 0
 283 203 301 204 305 204 c 0
 306 204 307 204 308 205 c 2
 310 205 l 2
 333 211 349 232 349 256 c 0
 349 265 347 273 343 280 c 0
 336 283 329 285 321 285 c 2
 211 286 l 2
 176 289 148 298 124 313 c 0
 114 319 105 327 97 335 c 2
 97 335 l 1
 70 360 l 1
 70 360 l 2
 56 374 44 391 36 410 c 0
 12 464 3 532 10 598 c 0
 12 612 14 624 17 637 c 0
 22 661 30 684 38 702 c 0
 52 732 73 756 102 774 c 0
 130 792 165 801 207 801 c 2
 209 801 l 1
 548 801 l 1
 573 777 l 1
 573 599 l 1
 415 599 l 2
 386 599 364 599 364 599 c 0
 335 599 310 575 310 546 c 0
 310 537 312 529 316 522 c 0
 323 519 330 517 338 517 c 0
 338 517 345 517 355 517 c 0
 403 517 490 513 530 487 c 0
 540 480 550 473 558 465 c 2
 558 465 l 1
 581 443 l 1
 580 443 l 2
 596 428 609 410 618 390 c 0
 626 371 633 349 638 325 c 0
 641 312 643 299 644 286 c 0
58 181 m 2
 57 46 l 1
 422 46 l 2
 459 46 491 54 516 69 c 0
 541 85 559 106 571 132 c 0
 594 181 603 247 597 308 c 0
 596 321 595 333 592 345 c 0
 587 367 581 388 573 405 c 0
 561 431 543 453 518 469 c 0
 480 493 384 495 355 495 c 0
 345 495 338 495 338 495 c 0
 296 495 263 528 263 570 c 0
 263 611 297 645 338 645 c 0
 339 645 361 645 390 645 c 2
 526 645 l 1
 526 779 l 1
 207 779 l 2
 170 779 139 770 114 755 c 0
 89 739 70 719 58 693 c 0
 50 676 43 655 38 633 c 0
 35 621 33 609 32 596 c 0
 25 535 34 468 56 419 c 0
 68 393 86 372 111 356 c 0
 132 343 157 334 187 332 c 2
 296 332 l 2
 338 332 371 298 371 256 c 0
 371 223 348 193 316 184 c 0
 313 183 309 181 306 181 c 0
 299 180 273 181 228 181 c 0
 166 181 87 181 58 181 c 2
EndSplineSet
EndChar

StartChar: T
Encoding: 84 84 19
Width: 642
VWidth: 0
Flags: HW
HStem: 0 47<194 423> 601 47<36 170 470 581> 773 22<34 581>
VStem: 12 22<647 773> 170 22<47 601> 423 46<47 601> 581 46<647 771>
LayerCount: 2
Fore
SplineSet
603 795 m 1
 627 771 l 1
 627 601 l 1
 470 601 l 1
 470 0 l 1
 194 0 l 1
 170 25 l 1
 170 601 l 1
 36 601 l 1
 12 625 l 1
 12 795 l 1
 603 795 l 1
34 773 m 1
 34 647 l 1
 192 647 l 1
 192 47 l 1
 423 47 l 1
 423 647 l 1
 581 647 l 1
 581 773 l 1
 34 773 l 1
EndSplineSet
EndChar

StartChar: U
Encoding: 85 85 20
Width: 655
VWidth: 0
Flags: HW
HStem: 0 46<127 523> 168 22<315 337> 772 22<42 267 365 589>
VStem: 20 22<145 772> 267 46<194 771> 343 22<201 772> 589 46<114 771>
LayerCount: 2
Fore
SplineSet
635 771 m 1
 637 274 l 2
 637 270 635 171 632 149 c 0
 629 124 621 101 609 78 c 0
 596 54 576 35 550 21 c 0
 524 7 492 0 453 0 c 2
 227 0 l 2
 188 0 156 7 130 21 c 0
 114 29 100 40 89 52 c 2
 89 51 l 1
 71 70 l 1
 71 70 l 2
 61 79 53 90 47 102 c 0
 35 125 27 148 24 173 c 0
 21 195 20 238 20 298 c 2
 20 795 l 1
 290 795 l 1
 313 771 l 1
 313 286 l 2
 313 233 314 205 316 190 c 2
 317 190 l 2
 334 190 337 197 338 200 c 0
 340 206 343 229 343 310 c 2
 343 795 l 1
 611 795 l 1
 635 771 l 1
46 176 m 0
 49 154 55 132 66 112 c 0
 77 92 94 76 116 64 c 0
 139 52 169 46 204 46 c 2
 429 46 l 2
 464 46 493 52 516 64 c 0
 539 76 555 92 566 112 c 0
 577 132 583 154 586 176 c 0
 589 197 591 297 591 298 c 2
 589 772 l 1
 365 772 l 1
 365 310 l 2
 365 223 362 202 359 194 c 0
 355 182 345 168 317 168 c 2
 316 168 l 2
 288 168 278 182 274 194 c 0
 271 202 267 223 267 310 c 2
 267 772 l 1
 42 772 l 1
 42 298 l 2
 42 238 43 197 46 176 c 0
EndSplineSet
EndChar

StartChar: V
Encoding: 86 86 21
Width: 654
VWidth: 0
Flags: HW
HStem: 0 46<217 415> 774 22<42 240 386 584>
LayerCount: 2
Fore
SplineSet
612 796 m 1
 636 772 l 1
 457 0 l 1
 217 0 l 1
 193 24 l 1
 14 796 l 1
 257 796 l 1
 281 772 l 1
 322 597 l 1
 368 796 l 1
 612 796 l 1
42 774 m 1
 211 46 l 1
 415 46 l 1
 584 774 l 1
 386 774 l 1
 313 460 l 1
 240 774 l 1
 42 774 l 1
EndSplineSet
EndChar

StartChar: W
Encoding: 87 87 22
Width: 929
VWidth: 0
Flags: HW
HStem: 0 47<163 351 560 746> 780 22<38 227 399 505 677 866>
LayerCount: 2
Fore
SplineSet
892 803 m 1
 916 778 l 1
 789 0 l 1
 560 0 l 1
 536 24 l 1
 467 305 l 1
 393 0 l 1
 163 0 l 1
 139 24 l 1
 12 803 l 1
 246 803 l 1
 270 778 l 1
 306 563 l 1
 382 802 l 1
 522 802 l 1
 545 778 l 1
 617 555 l 1
 658 803 l 1
 892 803 l 1
452 460 m 1
 553 47 l 1
 746 47 l 1
 866 780 l 1
 677 780 l 1
 618 428 l 1
 505 780 l 1
 399 780 l 1
 286 428 l 1
 227 780 l 1
 38 780 l 1
 158 47 l 1
 351 47 l 1
 452 460 l 1
EndSplineSet
EndChar

StartChar: X
Encoding: 88 88 23
Width: 751
VWidth: 0
Flags: HW
HStem: 0 46<50 271 467 677> 775 22<50 271 456 677>
LayerCount: 2
Fore
SplineSet
523 386 m 1
 738 0 l 1
 467 0 l 1
 443 24 l 1
 382 133 l 1
 308 0 l 1
 36 0 l 1
 12 24 l 1
 228 411 l 1
 12 797 l 1
 284 797 l 1
 308 773 l 1
 369 664 l 1
 443 797 l 1
 714 797 l 1
 738 773 l 1
 523 386 l 1
253 411 m 1
 50 46 l 1
 271 46 l 1
 363 212 l 1
 456 46 l 1
 677 46 l 1
 474 411 l 1
 677 775 l 1
 456 775 l 1
 363 609 l 1
 271 775 l 1
 50 775 l 1
 253 411 l 1
EndSplineSet
EndChar

StartChar: Y
Encoding: 89 89 24
Width: 749
VWidth: 0
Flags: HW
HStem: 0 46<248 477> 773 22<48 269 454 675>
VStem: 224 22<46 413> 477 46<46 389>
LayerCount: 2
Fore
SplineSet
712 796 m 1
 737 772 l 1
 524 389 l 1
 524 0 l 1
 248 0 l 1
 224 24 l 1
 224 413 l 1
 11 796 l 1
 282 796 l 1
 306 772 l 1
 367 663 l 1
 441 796 l 1
 712 796 l 1
269 773 m 1
 48 773 l 1
 246 419 l 1
 246 46 l 1
 477 46 l 1
 477 419 l 1
 675 773 l 1
 454 773 l 1
 361 608 l 1
 269 773 l 1
EndSplineSet
EndChar

StartChar: Z
Encoding: 90 90 25
Width: 753
VWidth: 0
Flags: HW
HStem: 0 47<49 693> 164 22<426 693> 609 47<96 326> 773 22<96 686>
VStem: 73 22<655 773> 693 39<47 162>
LayerCount: 2
Fore
SplineSet
426 187 m 1
 716 187 l 1
 732 162 l 1
 732 0 l 1
 29 0 l 1
 12 25 l 1
 326 609 l 1
 90 609 l 1
 73 633 l 1
 73 795 l 1
 723 795 l 1
 740 771 l 1
 426 187 l 1
376 655 m 1
 49 47 l 1
 693 47 l 1
 693 164 l 1
 359 164 l 1
 686 773 l 1
 96 773 l 1
 96 655 l 1
 376 655 l 1
EndSplineSet
EndChar

StartChar: a
Encoding: 97 97 26
Width: 642
VWidth: 0
Flags: HW
HStem: 0 47<113 572> 167 22<299 319> 427 22<117 319> 469 47<103 306> 636 22<102 484>
VStem: 7 22<141 333> 79 22<516 636> 252 46<193 260> 319 22<190 260 449 469> 572 46<47 549>
LayerCount: 2
Fore
SplineSet
257 192 m 0
 255 197 253 206 252 236 c 2
 252 237 l 1
 252 237 l 2
 253 267 255 276 257 281 c 0
 261 293 271 307 299 307 c 2
 342 307 l 1
 342 189 l 1
 340 186 l 2
 335 177 325 167 301 167 c 2
 300 167 l 2
 272 167 261 180 257 192 c 0
301 189 m 2
 313 189 317 193 319 195 c 2
 319 260 l 2
 305 259 304 253 303 250 c 0
 302 247 300 238 299 212 c 0
 299 202 299 195 300 189 c 2
 301 189 l 2
618 422 m 2
 618 0 l 1
 212 0 l 2
 174 0 141 7 115 21 c 0
 100 29 87 39 76 51 c 2
 76 50 l 1
 55 72 l 1
 55 72 l 2
 46 81 39 90 33 101 c 0
 21 124 13 148 10 172 c 0
 9 183 8 213 7 236 c 0
 8 271 9 292 10 301 c 0
 13 325 21 349 33 372 c 0
 46 395 65 414 91 428 c 0
 117 442 149 449 188 449 c 2
 319 449 l 1
 319 469 l 1
 280 469 117 469 115 469 c 2
 103 469 l 1
 79 493 l 1
 79 658 l 1
 412 658 l 2
 451 658 484 652 510 638 c 0
 523 631 534 622 544 613 c 2
 544 613 l 1
 544 613 l 2
 545 612 l 2
 570 587 l 1
 570 587 l 2
 579 578 586 568 592 557 c 0
 604 534 612 510 615 486 c 0
 616 477 617 456 618 422 c 2
32 175 m 0
 35 153 41 132 52 112 c 0
 62 93 80 77 102 65 c 0
 125 53 153 47 188 47 c 2
 572 47 l 1
 572 446 l 2
 571 478 570 500 569 508 c 0
 566 530 560 551 549 571 c 0
 539 590 521 606 499 618 c 0
 476 630 448 636 413 636 c 2
 102 636 l 1
 102 516 l 1
 146 516 304 515 305 515 c 2
 306 515 l 2
 331 511 341 493 342 478 c 2
 342 427 l 1
 188 427 l 2
 153 427 125 421 102 409 c 0
 80 397 62 381 52 362 c 0
 41 342 35 321 32 299 c 0
 31 291 30 268 29 236 c 0
 30 204 31 183 32 175 c 0
EndSplineSet
EndChar

StartChar: b
Encoding: 98 98 27
Width: 645
VWidth: 0
Flags: HW
HStem: 0 47<42 517> 469 47<317 337> 636 22<317 495> 765 22<40 270>
VStem: 18 22<47 765> 270 84<379 513> 270 46<189 469 658 763> 339 22<192 468> 580 46<108 556>
LayerCount: 2
Fore
SplineSet
313 515 m 2xfa80
 341 515 351 502 355 490 c 0xfc80
 358 482 361 461 361 375 c 2
 361 307 l 2xf980
 361 221 358 200 355 192 c 0xfc80
 351 180 341 167 313 167 c 2
 270 167 l 1
 270 515 l 1
 313 515 l 2xfa80
339 307 m 1
 339 307 l 1
 339 375 l 2
 339 427 337 454 336 469 c 2
 317 469 l 1
 317 189 l 2xfb80
 331 190 333 196 334 199 c 0
 336 205 339 227 339 307 c 1
630 397 m 2
 631 240 l 2
 631 237 628 166 626 148 c 0
 623 124 615 100 603 77 c 0
 590 54 571 35 545 21 c 0
 519 7 486 0 448 0 c 2
 42 0 l 1
 18 24 l 1
 18 787 l 1
 293 787 l 1
 317 763 l 1
 317 658 l 1
 424 658 l 2
 463 658 495 651 521 637 c 0
 536 629 548 620 559 609 c 2
 559 609 l 1
 576 591 l 1
 576 591 l 2
 587 581 596 570 603 557 c 0
 615 534 623 510 626 486 c 0
 628 469 629 439 630 397 c 2
40 765 m 1
 40 47 l 1
 424 47 l 2
 459 47 487 53 510 65 c 0
 532 77 550 93 560 112 c 0
 571 132 577 153 580 175 c 0
 582 192 584 264 584 265 c 2
 584 421 l 2
 583 462 582 492 580 508 c 0
 577 530 571 551 560 571 c 0
 550 590 532 606 510 618 c 0
 487 630 459 636 424 636 c 2
 270 636 l 1
 270 765 l 1
 40 765 l 1
EndSplineSet
EndChar

StartChar: c
Encoding: 99 99 28
Width: 443
VWidth: 0
Flags: HW
HStem: 0 46<114 384> 167 22<301 384> 470 46<304 384> 637 22<120 384>
VStem: 7 22<143 541> 253 46<193 460> 384 46<46 165 516 635> 406 24<506 509>
LayerCount: 2
Fore
SplineSet
304 460 m 0xfd
 302 454 299 432 299 351 c 2
 299 284 l 2
 299 232 301 204 302 189 c 2
 406 189 l 1
 430 165 l 1
 430 0 l 1xfe
 213 0 l 2
 174 0 142 7 116 21 c 0
 102 28 91 37 81 47 c 2
 81 47 l 1
 57 71 l 1
 57 71 l 2
 48 80 40 90 34 101 c 0
 22 124 14 147 11 172 c 0
 9 190 8 222 7 265 c 0
 7 289 9 494 11 511 c 0
 14 536 22 559 34 582 c 0
 47 605 67 625 93 639 c 0
 119 653 151 659 190 659 c 2
 406 659 l 1
 430 635 l 1
 430 470 l 1
 325 470 l 2
 307 470 305 463 304 460 c 0xfd
406 506 m 1xfd
 406 509 l 1
 406 506 l 1
 406 506 l 1xfd
384 46 m 1
 384 46 l 1
 384 167 l 1
 301 167 l 2
 273 167 263 180 259 192 c 0
 256 200 253 222 253 308 c 2
 253 376 l 2
 253 462 256 483 259 491 c 0
 263 503 273 516 301 516 c 2
 384 516 l 1
 384 637 l 1xfe
 190 637 l 2
 155 637 126 631 103 619 c 0
 81 607 64 591 54 572 c 0
 43 552 36 530 33 508 c 0
 32 496 30 356 29 265 c 0
 30 223 31 192 33 175 c 0
 36 153 43 132 54 112 c 0
 64 93 81 76 103 64 c 0
 126 52 155 46 190 46 c 2
 384 46 l 1
EndSplineSet
EndChar

StartChar: d
Encoding: 100 100 29
Width: 660
VWidth: 0
Flags: HW
HStem: 0 45<135 600> 166 23<309 331> 640 23<127 331> 764 23<354 600>
VStem: 14 23<142 253 265 543> 262 44<192 471> 331 23<189 472 663 764> 600 44<45 742>
LayerCount: 2
Fore
SplineSet
311 166 m 6
 283 166 273 180 269 192 c 4
 266 200 262 221 262 308 c 6
 262 376 l 6
 262 463 266 485 269 493 c 4
 273 505 283 519 311 519 c 6
 354 519 l 5
 354 166 l 5
 311 166 l 6
309 189 m 4
 310 189 310 189 311 189 c 6
 331 189 l 5
 331 472 l 6
 321 470 315 465 312 456 c 4
 308 444 307 406 307 343 c 6
 307 275 l 6
 307 237 308 208 309 189 c 4
623 787 m 5
 644 742 l 5
 644 0 l 5
 376 0 l 5
 232 0 l 6
 198 0 164 6 134 23 c 4
 121 30 108 37 96 45 c 4
 75 59 55 76 42 98 c 4
 29 120 22 146 19 171 c 4
 17 187 16 215 15 253 c 4
 14 265 l 5
 14 434 l 5
 15 434 l 5
 16 471 17 497 19 513 c 4
 22 538 30 562 42 585 c 4
 55 609 75 628 101 642 c 4
 127 656 160 663 199 663 c 6
 331 663 l 5
 331 787 l 5
 623 787 l 5
38 411 m 5
 38 411 l 5
 38 273 l 5
 38 265 l 6
 39 222 40 191 42 174 c 4
 45 152 51 131 62 111 c 4
 72 92 90 75 112 63 c 4
 135 51 164 45 199 45 c 6
 600 45 l 5
 600 764 l 5
 354 764 l 5
 354 640 l 5
 199 640 l 6
 164 640 135 633 112 621 c 4
 90 609 72 593 62 574 c 4
 51 554 45 532 42 510 c 4
 40 493 39 464 38 423 c 6
 38 411 l 5
EndSplineSet
EndChar

StartChar: e
Encoding: 101 101 30
Width: 626
VWidth: 0
Flags: HW
HStem: 0 48<118 562> 164 22<287 562> 207 48<287 560> 374 129<258 338> 374 22<299 321> 619 22<121 474>
VStem: 12 22<141 526> 239 48<189 207> 251 48<396 455> 321 23<396 454> 561 47<48 161 255 535>
LayerCount: 2
Fore
SplineSet
344 385 m 2xf6e0
 344 374 l 1
 250 374 l 1xeee0
 251 385 l 2
 252 453 255 471 257 478 c 0
 261 489 271 503 298 503 c 2
 299 503 l 2
 326 503 335 489 339 478 c 0
 340 476 342 471 344 385 c 2xf6e0
299 396 m 2
 321 396 l 2
 320 418 320 440 319 455 c 1
 306 454 304 449 303 446 c 0
 302 442 300 430 299 396 c 2
584 187 m 1
 609 161 l 1
 609 0 l 1
 215 0 l 2
 178 0 146 7 121 20 c 0
 106 28 93 38 83 49 c 2
 83 49 l 1
 64 68 l 1
 64 68 l 2
 54 78 45 89 39 101 c 0
 27 123 20 146 17 170 c 0
 15 185 12 243 12 245 c 2
 12 438 l 2
 12 441 15 485 17 498 c 0
 20 522 27 545 39 567 c 0
 51 590 70 607 95 621 c 0
 120 634 153 641 190 641 c 2
 406 641 l 2
 443 641 475 634 500 621 c 0
 512 615 523 607 532 599 c 2
 532 599 l 1
 532 598 l 2
 534 596 535 595 537 593 c 2
 561 569 l 1
 561 569 l 2
 569 560 576 551 582 541 c 0
 594 519 601 496 604 472 c 0
 605 461 607 445 608 423 c 2
 608 423 l 1
 609 412 l 1
 609 252 l 1
 608 207 l 1
 308 207 l 2
 291 207 289 201 288 198 c 0
 288 197 288 195 287 191 c 0xe760
 287 189 287 188 287 186 c 2
 584 187 l 1
39 172 m 0
 42 151 48 130 58 111 c 0
 68 92 85 77 106 66 c 0
 128 54 156 48 190 48 c 2
 562 48 l 1
 562 164 l 1
 281 164 l 2
 254 164 244 178 240 189 c 0
 239 193 239 197 239 203 c 0
 239 207 239 212 239 217 c 2
 239 218 l 1
 239 219 l 2
 240 224 241 228 242 231 c 0
 246 242 256 255 283 255 c 2
 560 255 l 1
 561 278 l 1
 561 430 l 1
 560 438 l 2
 559 464 558 483 557 495 c 0
 554 516 547 536 537 556 c 0
 527 575 511 591 490 602 c 0
 468 614 440 619 406 619 c 2
 190 619 l 2
 156 619 128 614 106 602 c 0
 85 591 68 575 58 556 c 0
 48 537 42 516 39 495 c 0
 38 483 35 437 35 437 c 2
 35 246 l 2
 35 246 37 186 39 172 c 0
EndSplineSet
EndChar

StartChar: f
Encoding: 102 102 31
Width: 390
VWidth: 0
Flags: HW
HStem: 0 46<39 245> 357 46<291 332> 508 152<251 331> 508 22<292 332> 614 47<296 332> 765 22<109 332>
VStem: 15 22<46 693> 245 47<46 357 531 605> 332 47<403 507 661 763>
LayerCount: 2
Fore
SplineSet
296 605 m 4xdf80
 296 604 295 603 295 602 c 4
 294 590 293 561 292 531 c 6
 354 531 l 5
 378 507 l 5
 378 357 l 5
 291 357 l 5
 292 0 l 5
 39 0 l 5
 15 24 l 5
 15 35 l 6
 15 179 14 648 15 655 c 4
 18 677 24 698 35 718 c 4
 46 739 65 757 88 769 c 4
 111 781 140 787 174 787 c 6
 354 787 l 5
 378 763 l 5
 378 615 l 5
 367 615 l 5
 367 615 317 614 316 614 c 4
 298 614 297 608 296 605 c 4xdf80
332 403 m 5
 332 508 l 5
 245 508 l 5xdf80
 245 520 l 6
 245 540 246 606 249 629 c 4
 249 632 250 634 250 635 c 4
 253 647 263 661 292 661 c 4xe780
 293 661 317 661 332 661 c 6
 332 765 l 5
 174 765 l 6
 143 765 118 760 98 749 c 4
 79 739 64 725 55 708 c 4
 45 690 39 671 37 652 c 4
 36 640 37 257 37 46 c 5
 245 46 l 5
 245 403 l 5
 332 403 l 5
EndSplineSet
EndChar

StartChar: g
Encoding: 103 103 32
Width: 642
VWidth: 0
Flags: HW
HStem: -207 46<72 510> -46 22<70 331> 1 46<130 334> 162 22<312 336> 453 46<315 334> 615 22<135 573>
VStem: 32 22<128 533> 48 22<-161 -46> 264 46<187 453> 336 22<-21 1 184 452> 573 46<-96 613>
LayerCount: 2
Fore
SplineSet
311 499 m 0xfce0
 340 499 350 485 353 473 c 0
 355 465 358 444 358 357 c 2
 358 162 l 1
 311 162 l 2
 284 162 274 176 270 187 c 0
 267 195 264 215 264 298 c 2
 264 363 l 2
 264 446 267 466 270 474 c 0
 274 485 284 499 311 499 c 0xfce0
336 184 m 1
 336 184 l 1
 336 357 l 2
 336 410 335 438 334 453 c 0
 319 453 316 447 315 444 c 0
 313 438 310 417 310 339 c 2
 310 274 l 2
 310 225 312 198 313 184 c 2
 336 184 l 1
595 637 m 1
 619 613 l 1
 619 12 l 2
 619 9 617 -49 615 -64 c 0
 612 -88 605 -111 593 -133 c 0
 581 -156 561 -173 536 -187 c 0
 511 -200 480 -207 443 -207 c 2
 72 -207 l 1
 48 -183 l 1
 48 -24 l 1xfde0
 312 -24 l 2
 329 -24 330 -17 331 -14 c 0
 332 -12 333 -8 334 1 c 2
 228 1 l 2
 191 1 159 8 134 21 c 0
 121 28 109 36 99 46 c 2
 99 46 l 1
 77 68 l 2
 76 69 76 69 75 70 c 2
 73 73 l 1
 73 72 l 2
 65 80 59 89 54 99 c 0
 42 121 35 143 32 167 c 0
 29 190 27 351 27 358 c 0
 27 425 29 471 32 494 c 0xfee0
 35 518 42 540 54 562 c 0
 66 585 85 603 110 617 c 0
 135 630 167 637 204 637 c 2
 595 637 l 1
70 -46 m 1
 70 -161 l 1xfde0
 419 -161 l 2
 453 -161 480 -156 502 -144 c 0
 523 -133 539 -118 549 -99 c 0
 559 -80 566 -59 569 -38 c 0
 571 -24 573 35 573 36 c 2
 573 615 l 1
 204 615 l 2
 170 615 143 609 121 597 c 0
 100 586 83 571 73 552 c 0
 63 533 57 512 54 491 c 0
 51 469 50 424 50 358 c 0
 50 300 52 187 54 170 c 0xfee0
 57 149 63 128 73 109 c 0
 83 90 100 75 121 64 c 0
 143 52 170 46 204 46 c 2
 358 46 l 1
 358 35 l 2
 357 -4 354 -16 352 -21 c 0
 348 -32 339 -46 312 -46 c 2
 70 -46 l 1
EndSplineSet
EndChar

StartChar: h
Encoding: 104 104 33
Width: 628
VWidth: 0
Flags: HW
HStem: 0 46<43 271 355 561> 486 46<317 328> 636 22<317 489> 764 22<41 271>
VStem: 19 22<46 764> 271 46<46 486 659 763> 331 22<46 486> 561 46<46 569>
LayerCount: 2
Fore
SplineSet
607 503 m 4
 608 496 607 124 607 11 c 6
 607 0 l 5
 355 0 l 5
 331 24 l 5
 331 358 l 6
 331 403 330 458 328 486 c 4
 326 486 321 486 317 486 c 6
 317 0 l 5
 43 0 l 5
 19 24 l 5
 19 787 l 5
 293 787 l 5
 317 763 l 5
 317 659 l 5
 424 659 l 6
 458 659 488 652 511 640 c 4
 523 634 533 627 542 618 c 6
 542 618 l 5
 563 596 l 5
 563 596 l 6
 573 587 581 577 587 566 c 4
 598 546 604 525 607 503 c 4
41 764 m 5
 41 46 l 5
 271 46 l 5
 271 533 l 5
 282 532 l 5
 282 532 305 532 306 532 c 4
 335 532 345 519 348 507 c 4
 348 506 349 504 349 502 c 4
 352 477 353 399 353 357 c 6
 353 46 l 5
 561 46 l 5
 561 185 562 513 561 524 c 4
 559 543 553 561 543 579 c 4
 534 596 519 610 500 620 c 4
 480 631 455 636 424 636 c 6
 271 636 l 5
 271 764 l 5
 41 764 l 5
EndSplineSet
EndChar

StartChar: i
Encoding: 105 105 34
Width: 323
VWidth: 0
Flags: HW
HStem: 0 48<33 262> 575 22<30 262> 614 48<33 262> 766 22<30 262>
VStem: 8 22<48 575 661 766> 262 47<48 572 661 763>
LayerCount: 2
Fore
SplineSet
8 598 m 5
 284 598 l 5
 309 572 l 5
 309 0 l 5
 33 0 l 5
 8 26 l 5
 8 598 l 5
30 575 m 5
 30 48 l 5
 262 48 l 5
 262 575 l 5
 30 575 l 5
284 788 m 5
 309 763 l 5
 309 614 l 5
 33 614 l 5
 8 639 l 5
 8 788 l 5
 284 788 l 5
30 766 m 5
 30 661 l 5
 262 661 l 5
 262 766 l 5
 30 766 l 5
EndSplineSet
EndChar

StartChar: j
Encoding: 106 106 35
Width: 434
VWidth: 0
Flags: HW
HStem: -198 46<41 309> -36 22<39 131> 572 22<157 372> 612 46<159 372> 763 22<157 372>
VStem: 17 22<-151 -36> 135 22<-4 572 658 763> 372 46<-86 570 658 761>
LayerCount: 2
Fore
SplineSet
135 595 m 1
 395 595 l 1
 419 570 l 1
 419 21 l 2
 419 18 417 -40 415 -55 c 0
 412 -79 405 -101 393 -123 c 0
 381 -146 361 -165 336 -178 c 0
 311 -191 279 -198 242 -198 c 2
 41 -198 l 1
 17 -174 l 1
 17 -14 l 1
 111 -14 l 2
 128 -14 130 -7 131 -4 c 0
 132 0 134 11 135 46 c 2
 135 595 l 1
39 -36 m 1
 39 -151 l 1
 218 -151 l 2
 252 -151 279 -146 301 -134 c 0
 322 -123 339 -108 349 -89 c 0
 359 -70 365 -49 368 -28 c 0
 370 -14 372 45 372 46 c 2
 372 572 l 1
 157 572 l 1
 157 45 l 2
 156 6 154 -6 152 -11 c 0
 148 -22 138 -36 111 -36 c 2
 39 -36 l 1
395 785 m 1
 419 761 l 1
 419 612 l 1
 159 612 l 1
 135 636 l 1
 135 785 l 1
 395 785 l 1
157 763 m 1
 157 658 l 1
 372 658 l 1
 372 763 l 1
 157 763 l 1
EndSplineSet
EndChar

StartChar: k
Encoding: 107 107 36
Width: 643
VWidth: 0
Flags: HW
HStem: 0 46<50 280 363 570> 637 22<362 570> 765 22<49 280>
VStem: 27 22<46 765> 280 77<242 281> 280 46<46 241 419 763> 339 22<46 240 420 637> 570 46<46 293 369 636>
LayerCount: 2
Fore
SplineSet
595 292 m 4xf7
 615 255 616 215 616 181 c 4
 615 131 616 80 616 31 c 6
 615 0 l 5
 363 0 l 5
 339 24 l 5
 340 113 l 6
 340 157 339 211 337 240 c 4
 333 241 330 241 326 241 c 6
 326 0 l 5
 50 0 l 5
 27 24 l 5
 27 787 l 5
 303 787 l 5
 326 763 l 5
 326 419 l 6
 331 421 335 422 336 424 c 4
 336 424 336 426 336 427 c 4
 338 447 340 514 340 567 c 6
 339 660 l 5
 592 660 l 5
 615 636 l 5
 616 594 l 6
 616 579 616 564 616 549 c 4
 616 523 616 495 616 469 c 4
 617 431 617 383 595 341 c 4
 590 332 584 324 577 316 c 4
 584 308 590 301 595 292 c 4xf7
49 765 m 5
 49 46 l 5
 280 46 l 5
 280 288 l 5xf7
 292 288 l 6
 292 288 296 288 297 288 c 4
 298 288 350 287 357 262 c 4xf9
 357 261 358 259 358 257 c 4
 361 232 362 155 362 113 c 6
 362 46 l 5
 570 46 l 5
 570 55 l 6
 570 104 570 156 571 206 c 4
 571 238 570 272 552 305 c 4
 547 315 539 324 530 332 c 6
 521 340 l 5
 530 348 l 6
 539 356 547 365 552 375 c 4
 570 409 571 447 570 493 c 4
 570 520 570 547 570 573 c 4
 570 588 570 603 570 618 c 6
 570 637 l 5
 362 637 l 5
 362 567 l 6
 362 525 361 449 358 424 c 4
 358 421 357 419 357 418 c 4
 350 393 298 392 297 392 c 4
 296 392 292 392 292 392 c 5
 280 392 l 5
 280 403 l 5
 280 765 l 5
 49 765 l 5
EndSplineSet
EndChar

StartChar: l
Encoding: 108 108 37
Width: 332
VWidth: 0
Flags: HW
HStem: 0 45<54 278> 764 23<33 278>
VStem: 10 23<45 764> 278 42<45 742>
LayerCount: 2
Fore
SplineSet
302 787 m 1
 321 742 l 1
 321 0 l 1
 54 0 l 1
 10 22 l 1
 10 787 l 1
 302 787 l 1
33 764 m 1
 33 45 l 1
 278 45 l 1
 278 764 l 1
 33 764 l 1
EndSplineSet
EndChar

StartChar: m
Encoding: 109 109 38
Width: 818
VWidth: 0
Flags: HW
HStem: -0 46<41 270 366 510 606 751> 453 46<316 340 560 580> 615 22<40 349 522 551 551 665>
VStem: 17 22<46 615> 270 88<367 496> 270 46<46 453> 342 22<46 452> 510 46<46 443> 582 22<46 452> 751 46<46 531>
LayerCount: 2
Fore
SplineSet
793 470 m 0xf7c0
 796 447 797 402 797 334 c 2
 797 0 l 1
 606 0 l 1
 582 24 l 1
 582 363 l 2
 582 412 580 439 579 453 c 0
 563 452 561 445 560 443 c 0
 558 437 556 415 556 333 c 2
 556 -0 l 1
 366 -0 l 1
 342 24 l 1
 342 363 l 2
 342 412 340 439 339 453 c 2
 316 453 l 1
 316 -0 l 1
 41 -0 l 1
 17 24 l 1
 17 637 l 1
 327 637 l 2
 333 637 341 636 348 636 c 2
 349 636 l 2
 371 633 392 625 411 615 c 0
 420 610 428 604 436 597 c 0
 444 604 452 610 461 615 c 0
 480 625 501 633 522 636 c 2
 523 636 l 2
 533 636 551 637 551 637 c 1
 597 637 l 2
 634 637 666 630 691 617 c 0
 705 609 718 600 728 589 c 2
 728 589 l 1
 750 567 l 1
 750 567 l 2
 758 558 765 549 771 539 c 0
 783 517 790 494 793 470 c 0xf7c0
40 615 m 1
 40 46 l 1
 270 46 l 1
 270 499 l 1xf7c0
 317 499 l 2
 344 499 354 486 358 475 c 0xf9c0
 361 467 364 446 364 363 c 2
 364 46 l 1
 510 46 l 1
 510 357 l 2
 510 444 513 466 515 474 c 0
 518 486 528 499 557 499 c 0
 584 499 594 486 598 475 c 0
 601 467 604 446 604 363 c 2
 604 46 l 1
 751 46 l 1
 751 358 l 2
 751 424 750 469 747 491 c 0
 744 512 737 533 727 552 c 0
 717 571 701 586 680 597 c 0
 658 609 631 615 597 615 c 2
 551 615 l 2
 551 615 535 614 525 614 c 0
 506 611 488 604 471 595 c 0
 461 590 452 583 444 574 c 2
 436 565 l 1
 428 574 l 2
 420 583 411 590 401 595 c 0
 384 604 366 611 347 614 c 0
 341 614 333 615 327 615 c 2
 40 615 l 1
EndSplineSet
EndChar

StartChar: n
Encoding: 110 110 39
Width: 636
VWidth: 0
Flags: HW
HStem: -0 46<46 259 355 568> 453 46<305 330> 615 22<44 482>
VStem: 22 22<46 615> 259 88<367 497> 259 46<46 453> 331 22<46 452> 568 46<46 531>
LayerCount: 2
Fore
SplineSet
610 470 m 4xf7
 613 447 614 401 614 334 c 6
 614 0 l 5
 355 0 l 5
 331 24 l 5
 331 363 l 6
 331 412 330 439 329 453 c 6
 305 453 l 5
 305 -0 l 5
 46 -0 l 5
 22 24 l 5
 22 637 l 5
 414 637 l 6
 451 637 483 630 508 617 c 4
 523 609 536 599 546 588 c 6
 546 588 l 5
 563 571 l 5
 562 571 l 6
 573 561 581 551 588 539 c 4
 600 517 607 494 610 470 c 4xf7
44 615 m 5
 44 46 l 5
 259 46 l 5
 259 499 l 5xf7
 307 499 l 6
 334 499 343 486 347 475 c 4xf9
 350 467 354 446 354 363 c 6
 354 46 l 5
 568 46 l 5
 568 359 l 6
 568 425 567 469 564 491 c 4
 561 512 555 533 545 552 c 4
 535 571 518 587 497 598 c 4
 475 610 448 615 414 615 c 6
 44 615 l 5
EndSplineSet
EndChar

StartChar: o
Encoding: 111 111 40
Width: 623
VWidth: 0
Flags: HW
HStem: 0 46<118 458> 162 22<299 319> 453 46<302 322> 614 22<123 475>
VStem: 19 22<128 533> 252 46<187 452> 324 22<186 452> 556 46<105 539>
LayerCount: 2
Fore
SplineSet
299 162 m 2
 272 162 262 175 258 186 c 0
 255 194 252 215 252 298 c 2
 252 363 l 2
 252 446 255 466 258 474 c 0
 262 485 272 499 299 499 c 0
 327 499 336 485 340 474 c 0
 343 466 346 446 346 363 c 2
 346 298 l 2
 346 215 343 194 340 186 c 0
 336 175 326 162 299 162 c 2
 299 162 l 2
324 298 m 1
 324 298 l 1
 324 363 l 2
 324 412 322 439 321 453 c 0
 305 453 303 446 302 443 c 0
 300 437 297 417 297 339 c 2
 297 274 l 2
 297 225 299 198 300 184 c 0
 316 184 318 190 319 193 c 0
 321 199 324 220 324 298 c 1
602 469 m 0
 604 451 604 161 602 143 c 0
 599 119 592 96 580 74 c 0
 568 51 549 34 524 20 c 0
 506 10 483 4 458 1 c 2
 458 1 l 1
 458 1 l 2
 449 0 440 0 430 0 c 2
 215 0 l 2
 178 0 146 7 121 20 c 0
 106 28 93 38 83 49 c 2
 83 48 l 1
 65 67 l 1
 66 67 l 2
 56 76 47 86 41 98 c 0
 29 120 22 143 19 167 c 0
 17 185 17 475 19 493 c 0
 22 517 29 540 41 562 c 0
 53 585 73 603 98 616 c 0
 123 629 154 636 191 636 c 2
 406 636 l 2
 443 636 475 629 500 616 c 0
 515 608 528 599 538 588 c 2
 538 588 l 1
 555 570 l 1
 555 570 l 2
 565 561 574 550 580 538 c 0
 592 516 599 493 602 469 c 0
41 491 m 0
 39 474 39 187 41 170 c 0
 44 149 51 128 61 109 c 0
 71 90 87 75 108 64 c 0
 130 52 157 46 191 46 c 2
 406 46 l 2
 440 46 468 52 490 64 c 0
 511 75 527 90 537 109 c 0
 547 128 553 149 556 170 c 0
 558 187 558 475 556 491 c 0
 553 512 547 533 537 552 c 0
 527 571 511 586 490 597 c 0
 468 609 440 614 406 614 c 2
 191 614 l 2
 157 614 130 609 108 597 c 0
 87 586 71 571 61 552 c 0
 51 533 44 512 41 491 c 0
EndSplineSet
EndChar

StartChar: p
Encoding: 112 112 41
Width: 658
VWidth: 0
Flags: HW
HStem: -186 46<48 277> 0 46<323 523> 469 46<323 344> 636 22<47 501>
VStem: 24 22<-140 636> 277 84<379 512> 277 46<-140 0 189 469> 345 22<192 468> 586 46<108 556>
LayerCount: 2
Fore
SplineSet
361 192 m 4xfc80
 357 180 347 167 319 167 c 6
 277 167 l 5
 277 515 l 5xfa80
 319 515 l 6
 347 515 357 502 361 490 c 4xfc80
 364 482 368 461 368 375 c 6
 368 307 l 6xf980
 368 221 364 200 361 192 c 4xfc80
345 307 m 6xfb80
 345 375 l 6
 345 427 344 454 342 469 c 6
 323 469 l 5
 323 189 l 6
 337 190 339 196 340 199 c 4
 342 205 345 227 345 307 c 6xfb80
632 486 m 4
 634 468 636 397 636 394 c 6
 636 237 l 6
 635 194 634 165 632 148 c 4
 629 124 621 100 609 77 c 4
 596 54 577 35 551 21 c 4
 525 7 493 0 454 0 c 6
 323 0 l 5
 323 -186 l 5
 48 -186 l 5
 24 -162 l 5
 24 658 l 5
 431 658 l 6
 470 658 501 651 527 637 c 4
 543 628 557 618 568 606 c 6
 568 606 l 5
 586 588 l 5
 586 588 l 6
 596 579 603 568 609 557 c 4
 621 534 629 510 632 486 c 4
47 636 m 5
 47 -140 l 5
 277 -140 l 5
 277 46 l 5
 431 46 l 6
 466 46 494 52 517 64 c 4
 539 76 556 92 566 111 c 4
 577 131 583 153 586 175 c 4
 588 191 589 220 590 261 c 6
 591 418 l 6
 591 418 588 490 586 507 c 4
 583 529 577 550 566 570 c 4
 556 589 539 605 517 617 c 4
 494 629 466 636 431 636 c 6
 47 636 l 5
EndSplineSet
EndChar

StartChar: q
Encoding: 113 113 42
Width: 669
VWidth: 0
Flags: HW
HStem: -186 46<365 593> 0 46<134 341> 167 22<320 341> 636 22<139 593>
VStem: 31 22<132 549> 272 46<192 469> 341 22<-140 0 189 469> 593 46<-140 634>
LayerCount: 2
Fore
SplineSet
320 167 m 6
 292 167 283 180 279 192 c 4
 276 200 272 221 272 307 c 6
 272 375 l 6
 272 461 276 482 279 490 c 4
 283 502 292 515 320 515 c 6
 363 515 l 5
 363 167 l 5
 320 167 l 6
321 189 m 6
 341 189 l 5
 341 469 l 6
 327 468 325 462 324 459 c 4
 322 453 319 431 319 351 c 6
 319 283 l 6
 319 231 319 204 321 189 c 6
615 658 m 5
 640 634 l 5
 640 -186 l 5
 365 -186 l 5
 341 -162 l 5
 341 0 l 5
 233 0 l 6
 195 0 162 7 136 21 c 4
 121 29 109 38 99 49 c 6
 99 49 l 5
 78 70 l 5
 78 70 l 6
 68 79 60 89 54 101 c 4
 42 124 34 148 31 172 c 4
 29 189 28 219 27 261 c 6
 27 418 l 6
 27 421 29 492 31 510 c 4
 34 534 42 558 54 581 c 4
 67 604 86 623 112 637 c 4
 138 651 171 658 209 658 c 6
 615 658 l 5
53 175 m 4
 56 153 63 131 74 111 c 4
 84 92 101 76 123 64 c 4
 146 52 174 46 209 46 c 6
 363 46 l 5
 363 -140 l 5
 593 -140 l 5
 593 636 l 5
 209 636 l 6
 174 636 146 629 123 617 c 4
 101 605 84 589 74 570 c 4
 63 550 56 529 53 507 c 4
 51 490 49 418 49 417 c 6
 49 261 l 6
 50 220 51 191 53 175 c 4
EndSplineSet
EndChar

StartChar: r
Encoding: 114 114 43
Width: 647
VWidth: 0
Flags: HW
HStem: 0 47<41 261> 305 47<360 580> 468 47<309 334> 635 23<39 491>
VStem: 16 23<47 635> 261 91<379 512> 261 48<47 468> 335 23<352 467> 580 48<352 546>
LayerCount: 2
Fore
SplineSet
624 485 m 0xfb80
 627 461 628 414 628 345 c 2
 628 305 l 1
 360 305 l 1
 335 330 l 1
 335 375 l 2
 335 426 334 453 333 468 c 2
 309 468 l 1
 309 0 l 1
 41 0 l 1
 16 25 l 1
 16 657 l 1
 421 657 l 2
 459 657 492 651 518 637 c 0
 537 627 552 613 564 598 c 0
 579 586 592 572 601 556 c 0
 613 533 621 509 624 485 c 0xfb80
39 635 m 1
 39 47 l 1
 261 47 l 1
 261 515 l 1xfb80
 310 515 l 2
 338 515 348 502 352 490 c 0xfc80
 355 482 358 461 358 375 c 2
 358 352 l 1
 580 352 l 1
 580 370 l 2
 580 438 579 484 576 507 c 0
 573 529 567 550 556 570 c 0
 546 589 529 604 507 616 c 0
 485 628 456 635 421 635 c 2
 39 635 l 1
EndSplineSet
EndChar

StartChar: s
Encoding: 115 115 44
Width: 580
VWidth: 0
Flags: HW
HStem: 0 47<64 462> 161 22<62 322> 230 47<113 321 321 331> 385 22<248 438> 460 47<249 454> 615 22<117 454>
VStem: 40 22<47 161> 199 46<409 456> 333 22<194 230> 454 46<508 613>
LayerCount: 2
Fore
SplineSet
567 224 m 0
 573 173 564 117 543 76 c 0
 532 53 514 35 490 21 c 0
 466 7 435 0 399 0 c 2
 64 0 l 1
 41 25 l 1
 40 25 l 1
 40 184 l 1
 51 184 l 1
 51 184 296 184 297 184 c 0
 317 184 333 200 333 220 c 0
 333 223 332 226 331 229 c 0
 328 230 325 231 321 231 c 1
 321 231 215 230 206 230 c 0
 170 230 139 237 115 251 c 0
 103 258 93 267 84 276 c 2
 84 275 l 1
 63 297 l 1
 63 297 l 2
 53 307 44 318 38 331 c 0
 17 373 8 428 14 479 c 0
 15 490 18 500 20 510 c 0
 25 529 31 547 38 561 c 0
 49 584 67 603 91 617 c 0
 115 631 146 638 182 638 c 2
 476 638 l 1
 500 613 l 1
 500 461 l 1
 284 460 l 2
 263 460 246 443 246 422 c 0
 246 418 247 414 248 410 c 0
 252 409 256 407 260 407 c 2
 283 407 l 2
 311 407 356 408 360 408 c 0
 393 408 432 406 466 386 c 0
 477 379 487 372 496 363 c 2
 496 364 l 1
 519 340 l 2
 520 339 522 337 523 336 c 2
 524 335 l 1
 524 335 l 2
 532 326 538 316 543 306 c 0
 550 292 556 274 561 255 c 0
 563 245 566 235 567 224 c 0
62 161 m 1
 62 47 l 1
 375 47 l 2
 407 47 434 53 455 65 c 0
 475 77 490 92 499 111 c 0
 518 149 526 199 521 246 c 0
 520 256 518 266 516 275 c 0
 512 292 505 308 499 321 c 0
 490 340 475 355 455 367 c 0
 426 384 390 385 360 385 c 0
 356 385 311 385 283 385 c 2
 260 385 l 2
 226 385 199 412 199 446 c 0
 199 480 226 507 260 507 c 2
 454 508 l 1
 454 615 l 1
 182 615 l 2
 150 615 122 610 102 598 c 0
 82 586 67 571 58 552 c 0
 52 539 45 522 41 505 c 0
 39 496 37 487 36 477 c 0
 31 430 39 379 58 341 c 0
 67 322 82 307 102 295 c 0
 123 283 150 277 182 277 c 0
 191 277 297 278 297 278 c 2
 329 278 355 252 355 220 c 0
 355 188 329 162 297 162 c 0
 296 162 110 161 62 161 c 1
EndSplineSet
EndChar

StartChar: t
Encoding: 116 116 45
Width: 399
VWidth: 0
Flags: HW
HStem: 0 46<106 332> 150 22<295 332> 486 46<292 332> 637 22<292 332> 764 22<38 246>
VStem: 16 22<118 764> 245 46<172 486 660 763> 332 46<46 148 532 636>
LayerCount: 2
Fore
SplineSet
379 636 m 1
 379 636 l 1
 379 486 l 1
 292 486 l 2
 292 475 292 459 292 440 c 0
 293 364 294 216 295 172 c 0
 305 172 343 172 343 172 c 1
 355 172 l 1
 379 148 l 1
 379 0 l 1
 199 0 l 2
 165 0 135 6 112 18 c 0
 100 24 90 32 81 41 c 2
 81 41 l 1
 58 64 l 1
 58 64 l 2
 49 73 42 81 36 92 c 0
 25 112 19 134 16 156 c 0
 15 163 16 632 16 776 c 2
 16 787 l 1
 268 787 l 1
 292 763 l 1
 292 660 l 1
 355 660 l 1
 379 636 l 1
332 46 m 1
 332 150 l 2
 317 150 294 150 293 150 c 0
 264 150 254 164 251 176 c 0
 251 177 250 179 250 181 c 0
 248 195 247 334 246 464 c 0
 246 491 245 511 245 521 c 2
 245 532 l 1
 332 532 l 1
 332 637 l 1
 245 637 l 1
 246 764 l 1
 38 764 l 1
 38 553 37 170 38 158 c 0
 40 139 46 121 56 103 c 0
 65 86 80 72 99 62 c 0
 119 51 144 46 175 46 c 2
 332 46 l 1
EndSplineSet
EndChar

StartChar: u
Encoding: 117 117 46
Width: 628
VWidth: 0
Flags: HW
HStem: 0 47<172 561> 162 22<300 324> 615 22<37 252 346 561>
VStem: 15 22<139 615> 252 47<187 613> 324 22<184 615> 561 47<47 613>
LayerCount: 2
Fore
SplineSet
583 637 m 5
 607 613 l 5
 607 0 l 5
 216 0 l 6
 201 0 186 1 173 3 c 6
 172 3 l 5
 172 4 l 6
 153 7 137 12 122 20 c 4
 108 27 96 37 86 47 c 6
 86 46 l 5
 65 67 l 5
 66 67 l 6
 56 76 47 87 41 99 c 4
 29 121 22 144 19 168 c 4
 16 191 15 236 15 303 c 6
 15 637 l 5
 274 637 l 5
 298 613 l 5
 298 274 l 6
 298 225 300 198 301 184 c 6
 324 184 l 5
 324 637 l 5
 583 637 l 5
37 303 m 6
 37 237 38 192 41 170 c 4
 44 149 50 128 60 109 c 4
 70 90 87 75 108 64 c 4
 130 52 157 47 191 47 c 6
 561 47 l 5
 561 615 l 5
 346 615 l 5
 346 162 l 5
 299 162 l 6
 272 162 262 176 258 187 c 4
 255 195 252 215 252 298 c 6
 252 615 l 5
 37 615 l 5
 37 303 l 6
EndSplineSet
EndChar

StartChar: v
Encoding: 118 118 47
Width: 643
VWidth: 0
Flags: HW
HStem: 0 46<223 403> 615 22<51 238 380 567>
LayerCount: 2
Fore
SplineSet
597 637 m 1
 621 613 l 1
 444 0 l 1
 223 0 l 1
 199 24 l 1
 21 637 l 1
 255 637 l 1
 279 613 l 1
 318 477 l 1
 363 637 l 1
 597 637 l 1
51 615 m 1
 216 46 l 1
 403 46 l 1
 567 615 l 1
 380 615 l 1
 309 366 l 1
 238 615 l 1
 51 615 l 1
EndSplineSet
EndChar

StartChar: w
Encoding: 119 119 48
Width: 883
VWidth: 0
Flags: HW
HStem: 0 46<174 361 508 695> 615 22<49 237 382 487 626 814>
LayerCount: 2
Fore
SplineSet
842 637 m 1
 866 613 l 1
 737 0 l 1
 508 0 l 1
 484 24 l 1
 448 178 l 1
 403 0 l 1
 174 0 l 1
 150 24 l 1
 21 637 l 1
 256 637 l 1
 280 613 l 1
 313 440 l 1
 365 637 l 1
 505 637 l 1
 529 613 l 1
 570 442 l 1
 607 637 l 1
 842 637 l 1
435 333 m 1
 502 46 l 1
 695 46 l 1
 814 615 l 1
 626 615 l 1
 564 295 l 1
 487 615 l 1
 382 615 l 1
 298 297 l 1
 237 615 l 1
 49 615 l 1
 168 46 l 1
 361 46 l 1
 435 333 l 1
EndSplineSet
EndChar

StartChar: x
Encoding: 120 120 49
Width: 657
VWidth: 0
Flags: HW
HStem: 0 46<53 244 395 576> 612 22<53 244 385 576>
LayerCount: 2
Fore
SplineSet
634 610 m 5
 498 305 l 5
 634 0 l 5
 395 0 l 5
 371 24 l 5
 332 110 l 5
 282 0 l 5
 42 0 l 5
 18 24 l 5
 156 329 l 5
 18 634 l 5
 258 634 l 5
 282 610 l 5
 321 524 l 5
 371 634 l 5
 611 634 l 5
 634 610 l 5
314 201 m 5
 385 46 l 5
 576 46 l 5
 450 329 l 5
 576 612 l 5
 385 612 l 5
 314 457 l 5
 244 612 l 5
 53 612 l 5
 180 329 l 5
 53 46 l 5
 244 46 l 5
 314 201 l 5
EndSplineSet
EndChar

StartChar: y
Encoding: 121 121 50
Width: 630
VWidth: 0
Flags: HW
HStem: -204 46<61 499> -43 22<59 320> 3 46<119 322> 154 22<302 325> 618 22<39 253 347 562>
VStem: 16 22<142 618> 37 22<-158 -43> 253 47<179 616> 325 22<-11 3 176 618> 562 47<-93 616>
LayerCount: 2
Fore
SplineSet
584 640 m 1xfdc0
 609 616 l 1
 609 14 l 2
 609 11 606 -46 604 -61 c 0
 601 -85 594 -108 582 -130 c 0
 570 -153 551 -171 526 -184 c 0
 501 -197 469 -204 432 -204 c 2
 61 -204 l 1
 37 -180 l 1
 37 -20 l 1xfbc0
 300 -20 l 2
 317 -20 319 -14 320 -11 c 0
 321 -9 321 -5 322 3 c 2
 217 3 l 2
 180 3 148 10 123 23 c 0
 109 30 98 39 88 49 c 2
 88 49 l 1
 66 71 l 2
 65 72 l 2
 62 75 l 1
 63 75 l 2
 55 83 47 92 42 102 c 0
 30 124 23 147 20 171 c 0
 17 194 16 611 16 629 c 2
 16 640 l 1
 276 640 l 1
 300 616 l 1
 300 237 l 2
 300 206 301 187 302 176 c 0
 306 176 317 176 325 176 c 2
 325 640 l 1
 584 640 l 1xfdc0
59 -43 m 1
 59 -158 l 1xfbc0
 408 -158 l 2
 442 -158 469 -153 491 -141 c 0
 512 -130 528 -114 538 -95 c 0
 548 -76 555 -56 558 -35 c 0
 560 -21 562 38 562 39 c 2
 562 618 l 1
 347 618 l 1
 347 154 l 1
 336 154 l 1
 336 154 301 154 300 154 c 0
 273 154 263 167 259 178 c 0
 257 185 254 201 253 261 c 2
 253 618 l 1
 39 618 l 1xfdc0
 39 490 41 190 43 173 c 0
 46 152 52 131 62 112 c 0
 72 93 88 78 109 67 c 0
 131 55 159 50 193 50 c 2
 347 50 l 1
 347 38 l 2
 346 -1 343 -13 341 -18 c 0
 337 -29 327 -43 300 -43 c 2
 59 -43 l 1
EndSplineSet
EndChar

StartChar: z
Encoding: 122 122 51
Width: 631
VWidth: 0
Flags: HW
HStem: 0 46<47 561> 164 22<414 561> 448 46<40 215> 612 22<38 555>
VStem: 15 22<495 612> 561 46<46 162>
LayerCount: 2
Fore
SplineSet
414 186 m 1
 583 186 l 1
 607 162 l 1
 607 0 l 1
 35 0 l 1
 11 24 l 1
 215 448 l 1
 40 448 l 1
 15 472 l 1
 15 634 l 1
 590 634 l 1
 614 610 l 1
 414 186 l 1
262 495 m 1
 47 46 l 1
 561 46 l 1
 561 164 l 1
 344 164 l 1
 555 612 l 1
 38 612 l 1
 38 495 l 1
 262 495 l 1
EndSplineSet
EndChar

StartChar: zero
Encoding: 48 48 52
Width: 657
VWidth: 0
Flags: HMW
VStem: -711 265<171 220 409 625> -365 265<172 388 577 642>
LayerCount: 2
Fore
SplineSet
270 227 m 6
 270 230 l 5
 366 454 l 5
 366 311 l 6
 366 224 363 202 360 194 c 4
 356 182 346 169 318 169 c 6
 317 169 l 6
 289 169 279 182 275 194 c 4
 273 200 271 211 270 227 c 6
319 191 m 4
 336 191 338 198 339 201 c 4
 341 206 343 219 344 262 c 6
 318 202 l 6
 318 198 319 194 319 191 c 4
364 593 m 6
 365 590 l 5
 269 366 l 5
 269 509 l 6
 269 596 272 618 275 626 c 4
 279 638 289 651 317 651 c 6
 318 651 l 6
 346 651 356 638 360 626 c 4
 362 620 363 609 364 593 c 6
341 605 m 5
 341 605 l 5
 341 605 l 5
 341 605 l 5
316 533 m 6
 342 594 l 6
 342 598 341 602 341 605 c 4
 324 605 322 598 321 595 c 4
 320 590 317 575 316 533 c 6
639 509 m 5
 639 480 l 5
 639 263 l 6
 639 208 637 171 635 150 c 4
 632 125 624 101 612 78 c 4
 599 54 579 36 553 22 c 4
 527 8 494 1 455 1 c 6
 230 1 l 6
 191 1 158 8 132 22 c 4
 118 29 106 38 96 48 c 6
 96 48 l 5
 75 68 l 5
 75 68 l 6
 64 78 55 89 48 102 c 4
 36 125 28 149 25 174 c 4
 23 195 21 232 21 287 c 5
 21 287 l 5
 21 315 l 5
 21 533 l 6
 21 588 23 625 25 646 c 4
 28 671 36 695 48 718 c 4
 61 742 81 760 107 774 c 4
 133 788 166 795 205 795 c 6
 430 795 l 6
 469 795 502 788 528 774 c 4
 542 766 555 757 565 747 c 6
 565 747 l 5
 587 726 l 6
 587 725 l 6
 588 724 l 5
 588 724 l 6
 597 715 606 705 612 694 c 4
 624 671 632 647 635 622 c 4
 637 601 639 564 639 509 c 5
 639 509 l 5
47 177 m 4
 50 155 57 133 68 113 c 4
 79 93 95 77 117 65 c 4
 140 53 170 47 205 47 c 6
 430 47 l 6
 465 47 494 53 517 65 c 4
 539 77 556 93 567 113 c 4
 578 133 585 155 588 177 c 4
 591 198 592 238 592 298 c 6
 592 315 l 5
 592 522 l 6
 592 582 591 622 588 643 c 4
 585 665 578 687 567 707 c 4
 556 727 539 743 517 755 c 4
 494 767 465 773 430 773 c 6
 205 773 l 6
 170 773 140 767 117 755 c 4
 95 743 79 727 68 707 c 4
 57 687 50 665 47 643 c 4
 44 622 43 582 43 522 c 6
 43 504 l 5
 43 303 l 5
 43 298 l 6
 43 238 44 198 47 177 c 4
EndSplineSet
EndChar

StartChar: one
Encoding: 49 49 53
Width: 540
VWidth: 0
Flags: HW
HStem: 0 47<39 478> 174 22<37 119 420 478> 596 47<39 119> 770 22<37 373>
VStem: 15 22<47 174 643 770> 119 22<196 596> 373 47<196 767> 478 47<47 171>
LayerCount: 2
Fore
SplineSet
500 196 m 1
 524 171 l 1
 524 0 l 1
 39 0 l 1
 15 25 l 1
 15 196 l 1
 119 196 l 1
 119 596 l 1
 39 596 l 1
 15 621 l 1
 15 792 l 1
 395 792 l 1
 420 767 l 1
 420 196 l 1
 500 196 l 1
37 174 m 1
 37 47 l 1
 478 47 l 1
 478 174 l 1
 373 174 l 1
 373 770 l 1
 37 770 l 1
 37 643 l 1
 141 643 l 1
 141 174 l 1
 37 174 l 1
EndSplineSet
EndChar

StartChar: two
Encoding: 50 50 54
Width: 667
VWidth: 0
Flags: HW
HStem: 0 46<47 603> 173 22<319 603> 255 46<330 520> 465 22<168 305 305 336> 525 46<63 276> 604 45<327 356> 771 22<150 514>
VStem: 22 22<46 332> 38 22<571 676> 276 47<195 247 571 595> 357 22<508 603> 603 47<46 171 399 683>
LayerCount: 2
Fore
SplineSet
626 195 m 1xfef0
 650 171 l 1
 650 0 l 1
 47 0 l 1
 22 24 l 1
 22 35 l 2xff70
 22 44 21 262 23 280 c 0
 24 293 26 307 29 320 c 0
 34 344 42 366 50 385 c 0
 63 415 85 440 113 458 c 0
 153 484 240 487 288 487 c 0
 299 487 305 487 305 487 c 2
 334 487 357 511 357 540 c 0
 356 563 355 588 354 604 c 2
 346 604 l 2
 330 604 328 598 327 595 c 0
 326 591 323 578 322 536 c 2
 322 525 l 1
 63 525 l 1
 38 549 l 1
 38 560 l 2
 39 600 40 628 42 645 c 0
 45 669 53 693 65 716 c 0
 77 739 97 758 123 772 c 0
 149 786 182 793 220 793 c 2
 443 793 l 2
 481 793 514 786 540 772 c 0
 554 764 567 755 577 745 c 2
 577 745 l 1
 599 724 l 2
 600 723 l 2
 602 721 l 1
 602 721 l 2
 610 712 617 702 623 692 c 0
 635 669 643 645 646 621 c 0
 648 602 650 566 650 516 c 0
 652 459 642 402 622 356 c 0
 609 326 587 301 559 283 c 0
 535 268 507 259 473 256 c 2
 372 255 l 2
 343 255 319 231 319 202 c 2
 319 195 l 1
 626 195 l 1xfef0
46 278 m 0
 45 265 44 115 44 46 c 1xff70
 603 46 l 1
 603 173 l 1
 272 173 l 1
 272 226 l 2
 272 267 306 302 347 302 c 2
 447 302 l 2
 476 304 502 313 523 326 c 0
 548 342 565 363 577 389 c 0
 596 432 605 485 603 540 c 0
 603 590 601 624 599 643 c 0
 596 665 590 686 579 706 c 0
 569 725 552 741 530 753 c 0
 507 765 478 771 443 771 c 2
 220 771 l 2
 185 771 157 765 134 753 c 0
 112 741 95 725 85 706 c 0
 74 686 67 665 64 643 c 0
 62 629 62 604 61 571 c 2xfef0
 276 571 l 1
 277 609 279 621 281 626 c 0
 285 637 295 651 321 651 c 2
 321 651 l 1
 321 651 l 1
 322 651 l 1
 322 651 l 1
 343 650 l 2
 363 647 371 635 374 625 c 0
 377 615 379 563 380 541 c 0
 380 499 347 465 305 465 c 0
 304 465 298 465 288 465 c 0
 259 465 163 463 125 439 c 0
 100 423 82 402 70 376 c 0
 62 359 56 337 51 315 c 0
 48 303 47 290 46 278 c 0
EndSplineSet
EndChar

StartChar: three
Encoding: 51 51 55
Width: 664
VWidth: 0
Flags: HW
HStem: 0 46<131 523> 167 22<309 329> 246 22<47 262> 302 46<259 343> 468 22<258 329> 525 46<49 262> 604 45<313 343> 771 22<136 500>
VStem: 25 22<142 246 571 676> 235 22<348 468> 262 46<192 244 571 604> 344 22<196 301 493 604> 585 46<108 383 385 411 411 691>
LayerCount: 2
Fore
SplineSet
611 384 m 4
 622 363 629 341 632 318 c 4
 634 304 635 240 635 233 c 4
 635 226 634 162 632 148 c 4
 629 124 621 100 609 77 c 4
 596 54 576 35 550 21 c 4
 524 7 492 0 454 0 c 6
 231 0 l 6
 193 0 160 7 134 21 c 4
 118 29 105 39 94 51 c 6
 94 51 l 5
 75 70 l 5
 75 70 l 6
 65 79 57 89 51 101 c 4
 39 124 32 148 29 172 c 4
 27 189 26 217 25 257 c 6
 24 268 l 5
 284 268 l 5
 308 244 l 5
 308 233 l 6
 308 212 309 198 310 189 c 6
 318 189 l 6
 335 189 338 196 339 199 c 4
 340 203 343 215 344 257 c 4
 343 278 342 292 341 301 c 6
 259 302 l 5
 235 326 l 5
 235 490 l 5
 318 491 l 6
 335 491 338 498 339 501 c 4
 340 505 343 518 344 560 c 4
 343 582 342 595 341 604 c 6
 331 604 l 6
 315 604 314 598 313 595 c 4
 312 591 309 578 308 536 c 6
 308 525 l 5
 49 525 l 5
 24 549 l 5
 25 560 l 6
 26 600 27 628 29 645 c 4
 32 669 39 693 51 716 c 4
 64 739 84 758 110 772 c 4
 136 786 168 793 207 793 c 6
 429 793 l 6
 467 793 500 786 526 772 c 4
 541 764 553 755 564 744 c 6
 564 744 l 5
 583 725 l 5
 583 725 l 6
 594 715 602 704 609 692 c 4
 621 669 629 645 632 621 c 4
 634 606 635 541 635 535 c 4
 635 529 634 464 632 449 c 4
 629 426 622 405 611 384 c 4
51 175 m 4
 54 153 60 132 71 112 c 4
 81 93 98 76 120 64 c 4
 143 52 172 46 207 46 c 6
 429 46 l 6
 464 46 493 52 516 64 c 4
 538 76 555 93 565 112 c 4
 576 132 582 153 585 175 c 4
 587 188 589 251 589 257 c 4
 589 263 587 326 585 339 c 4
 582 361 563 411 563 411 c 5
 566 414 l 6
 577 434 582 455 585 476 c 4
 587 489 589 553 589 559 c 4
 589 565 587 630 585 643 c 4
 582 665 576 686 565 706 c 4
 555 725 538 741 516 753 c 4
 493 765 464 771 429 771 c 6
 207 771 l 6
 172 771 143 765 120 753 c 4
 98 741 81 725 71 706 c 4
 60 686 54 665 51 643 c 4
 49 629 48 604 47 571 c 6
 262 571 l 5
 263 609 265 621 267 626 c 4
 271 637 281 651 307 651 c 6
 329 650 l 6
 349 647 357 635 360 625 c 4
 362 619 365 606 366 560 c 4
 365 513 362 500 360 494 c 4
 357 484 349 472 329 469 c 6
 318 468 l 5
 258 468 l 5
 258 348 l 5
 329 346 l 6
 349 343 357 332 360 322 c 4
 362 316 365 303 366 257 c 4
 365 211 362 198 360 192 c 4
 357 182 349 171 329 168 c 6
 329 167 l 5
 307 167 l 5
 281 167 271 180 267 191 c 4
 265 196 263 208 262 246 c 5
 47 246 l 6
 48 213 49 189 51 175 c 4
EndSplineSet
EndChar

StartChar: four
Encoding: 52 52 56
Width: 676
VWidth: 0
Flags: HW
HStem: 0 46<308 537> 150 46<40 283 584 610> 323 22<259 283 584 610> 769 22<301 537>
VStem: 16 22<196 331> 283 22<46 150 345 386> 537 47<46 150 345 767> 610 47<196 321>
LayerCount: 2
Fore
SplineSet
305 531 m 5
 305 323 l 5
 181 323 l 5
 305 531 l 5
259 345 m 5
 283 345 l 5
 283 386 l 5
 259 345 l 5
632 345 m 5
 657 321 l 5
 657 150 l 5
 584 150 l 5
 584 0 l 5
 308 0 l 5
 283 24 l 5
 283 150 l 5
 40 150 l 5
 16 174 l 5
 16 337 l 5
 288 791 l 5
 559 791 l 5
 584 767 l 5
 584 345 l 5
 632 345 l 5
38 331 m 5
 38 196 l 5
 305 196 l 5
 305 46 l 5
 537 46 l 5
 537 196 l 5
 610 196 l 5
 610 323 l 5
 537 323 l 5
 537 769 l 5
 301 769 l 5
 38 331 l 5
EndSplineSet
EndChar

StartChar: five
Encoding: 53 53 57
Width: 647
VWidth: 0
Flags: HW
HStem: 0 47<126 518> 167 22<315 342> 326 22<44 265> 381 47<44 343> 548 22<311 494> 603 47<311 542> 771 22<42 541>
VStem: 22 22<136 326 428 771> 265 47<193 324 570 603> 347 23<199 381> 542 47<650 769> 580 46<108 468>
LayerCount: 2
Fore
SplineSet
627 398 m 4xffe0
 629 382 629 164 627 148 c 4xffd0
 624 124 616 100 604 77 c 4
 591 54 571 35 545 21 c 4
 519 7 487 0 449 0 c 6
 226 0 l 6
 188 0 155 7 129 21 c 4
 114 29 101 39 90 50 c 6
 90 50 l 5
 72 68 l 5
 72 68 l 6
 62 78 53 89 46 101 c 4
 34 124 26 148 23 172 c 4
 23 175 23 199 22 273 c 4
 22 296 22 319 22 337 c 6
 22 348 l 5
 287 348 l 5
 311 324 l 5
 312 286 l 6
 313 264 314 214 315 189 c 6
 324 189 l 6
 340 189 341 195 342 198 c 4
 343 201 346 213 347 247 c 6
 347 271 l 6
 347 277 346 287 346 300 c 4
 345 323 344 360 343 381 c 4
 333 381 307 381 273 381 c 6
 44 381 l 5
 19 406 l 5
 19 793 l 5
 563 793 l 5
 588 769 l 5
 588 756 l 5
 588 604 l 5
 311 603 l 5
 311 570 l 5
 424 570 l 6
 462 570 495 564 521 550 c 4
 534 543 546 534 556 524 c 6
 556 524 l 5
 579 501 l 5
 579 501 l 6
 589 492 598 481 604 469 c 4
 616 446 624 422 627 398 c 4xffe0
46 175 m 4
 49 154 55 132 66 112 c 4
 76 93 93 77 115 65 c 4
 138 53 166 47 201 47 c 6
 424 47 l 6
 459 47 488 53 511 65 c 4
 533 77 550 93 560 112 c 4
 571 132 577 153 580 175 c 4
 582 189 582 406 580 420 c 4xffd0
 577 442 571 463 560 483 c 4
 550 502 533 518 511 530 c 4
 488 542 459 548 424 548 c 6
 286 548 l 5
 266 548 l 5
 266 548 l 5
 265 548 l 5
 265 559 l 5
 265 650 l 5
 542 650 l 5xffe0
 541 771 l 5
 42 771 l 5
 42 428 l 5
 317 428 l 6
 319 428 321 428 323 428 c 4
 323 428 l 5
 323 428 l 6
 350 428 360 414 364 403 c 4
 366 398 366 376 368 301 c 4
 368 289 369 277 369 271 c 6
 369 261 l 5
 369 250 l 6
 368 209 366 197 364 192 c 4
 360 181 350 167 324 167 c 6
 301 168 l 6
 281 171 274 182 271 192 c 4
 269 199 267 229 265 310 c 6
 265 326 l 5
 44 326 l 6
 44 310 44 292 44 274 c 4
 44 230 46 179 46 175 c 4
EndSplineSet
EndChar

StartChar: six
Encoding: 54 54 58
Width: 650
VWidth: 0
Flags: HW
HStem: 0 46<127 520> 167 22<314 344> 303 46<312 348> 469 22<313 496> 525 46<373 586> 604 47<317 348> 771 22<133 497>
VStem: 25 22<132 685> 267 99<273 346> 267 46<192 303 492 604> 349 22<191 302 571 604> 582 45<108 389 571 691>
LayerCount: 2
Fore
SplineSet
273 192 m 4xff90
 271 198 268 212 267 258 c 6
 267 349 l 5
 331 349 l 6
 354 347 363 334 366 324 c 4xff90
 368 319 370 308 371 271 c 6
 371 261 l 5
 371 250 l 6xff30
 370 209 368 196 366 191 c 4
 362 180 352 167 326 167 c 5
 303 167 l 5
 303 168 l 6
 283 171 276 182 273 192 c 4xff90
344 198 m 4
 345 201 348 213 349 247 c 6xff30
 349 271 l 6
 349 286 348 296 347 303 c 6
 312 303 l 5
 312 234 l 6
 313 212 314 198 315 189 c 6
 326 189 l 6
 342 189 343 195 344 198 c 4
605 391 m 4
 617 368 625 344 628 320 c 4
 630 304 630 164 628 148 c 4
 625 124 617 100 605 77 c 4
 592 54 572 35 546 21 c 4
 520 7 489 0 450 0 c 6
 227 0 l 6
 188 0 156 7 130 21 c 4
 113 30 99 40 88 53 c 6
 88 53 l 5
 69 73 l 5
 69 73 l 6
 61 82 54 91 48 101 c 4
 36 124 28 148 25 172 c 4
 23 186 21 557 21 560 c 4
 21 567 23 631 25 645 c 4
 28 669 36 693 48 716 c 4
 61 739 80 758 106 772 c 4
 132 786 164 793 203 793 c 6
 426 793 l 6
 465 793 497 786 523 772 c 4
 537 764 550 756 560 746 c 6
 560 746 l 5
 578 726 l 5
 578 726 l 6
 589 716 598 705 605 692 c 4
 617 669 625 645 628 621 c 4
 630 604 630 576 631 536 c 6
 632 525 l 5
 373 525 l 5
 349 549 l 5
 349 560 l 6
 349 581 348 595 347 604 c 6
 338 604 l 6
 321 604 318 597 317 594 c 4
 316 590 313 578 312 536 c 4xff50
 312 535 313 513 313 492 c 6
 426 492 l 6
 464 492 497 485 523 471 c 4
 537 463 550 454 560 444 c 6
 560 444 l 5
 585 418 l 5
 584 418 l 6
 592 410 600 401 605 391 c 4
47 175 m 4
 50 153 57 132 68 112 c 4
 78 93 95 77 117 65 c 4
 140 53 168 46 203 46 c 6
 426 46 l 6
 461 46 490 53 513 65 c 4
 535 77 552 93 562 112 c 4
 573 132 579 153 582 175 c 4
 584 189 584 327 582 341 c 4
 579 363 573 384 562 404 c 4
 552 423 535 439 513 451 c 4
 490 463 461 469 426 469 c 6
 267 469 l 5
 267 481 l 6
 267 512 267 558 267 560 c 4xff50
 268 606 271 619 273 625 c 4
 276 635 283 647 303 650 c 6
 326 651 l 5
 326 651 l 6
 352 651 362 637 366 626 c 4xff90
 368 621 370 609 371 571 c 5
 586 571 l 6
 585 604 584 629 582 643 c 4
 579 665 573 686 562 706 c 4
 552 725 535 741 513 753 c 4
 490 765 461 771 426 771 c 6
 203 771 l 6
 168 771 140 765 117 753 c 4
 95 741 78 725 68 706 c 4
 57 686 50 665 47 643 c 4
 45 630 44 566 44 560 c 4
 44 538 46 189 47 175 c 4
EndSplineSet
EndChar

StartChar: seven
Encoding: 55 55 59
Width: 657
VWidth: 0
Flags: HW
HStem: 0 48<132 363> 596 48<41 278> 771 22<39 586>
VStem: 17 22<644 771>
LayerCount: 2
Fore
SplineSet
616 793 m 5
 640 767 l 5
 404 0 l 5
 127 0 l 5
 102 26 l 5
 278 596 l 5
 41 596 l 5
 17 622 l 5
 17 793 l 5
 616 793 l 5
316 644 m 5
 132 48 l 5
 363 48 l 5
 586 771 l 5
 39 771 l 5
 39 644 l 5
 316 644 l 5
EndSplineSet
EndChar

StartChar: eight
Encoding: 56 56 60
Width: 642
VWidth: 0
Flags: HW
HStem: 0 46<123 512> 167 22<309 329> 301 46<312 333> 468 22<309 329> 604 46<312 333> 771 22<126 490>
VStem: 15 22<143 372 444 675> 260 47<191 301 493 604> 334 22<192 301 494 604> 576 47<108 257 258 383 385 404 411 691>
LayerCount: 2
Fore
SplineSet
320 346 m 6
 340 343 347 332 350 322 c 4
 352 316 355 303 356 257 c 4
 355 211 352 198 350 192 c 4
 346 180 336 167 308 167 c 4
 280 167 270 180 266 192 c 4
 264 198 261 211 260 257 c 4
 261 303 264 316 266 322 c 4
 269 332 277 343 297 346 c 6
 320 346 l 6
329 199 m 4
 330 203 333 215 334 257 c 4
 333 278 333 292 332 301 c 4
 316 301 313 294 312 291 c 4
 311 287 308 275 307 233 c 4
 308 212 309 198 310 189 c 4
 326 190 328 196 329 199 c 4
308 468 m 4
 280 468 270 482 266 494 c 4
 264 500 261 513 260 559 c 4
 261 606 264 619 266 625 c 4
 270 637 280 650 308 650 c 6
 308 650 l 6
 336 650 346 637 350 625 c 4
 352 619 355 606 356 560 c 4
 355 513 352 500 350 494 c 4
 346 482 336 468 308 468 c 4
329 501 m 4
 330 505 333 518 334 560 c 4
 333 582 333 595 332 604 c 4
 316 604 313 597 312 594 c 4
 311 590 308 577 307 535 c 4
 308 513 309 500 310 491 c 4
 326 492 328 498 329 501 c 4
602 384 m 4
 613 363 620 341 623 318 c 4
 625 304 626 240 626 233 c 6
 626 228 l 6
 625 190 625 164 623 148 c 4
 620 124 612 100 600 77 c 4
 587 54 567 35 541 21 c 4
 515 7 483 0 445 0 c 6
 222 0 l 6
 183 0 151 7 125 21 c 4
 110 29 97 39 86 50 c 6
 86 50 l 5
 68 67 l 5
 68 67 l 6
 57 77 49 88 42 101 c 4
 30 124 22 148 19 172 c 4
 17 188 16 214 15 252 c 6
 15 257 l 6
 15 264 17 328 19 342 c 4
 22 365 28 387 39 408 c 4
 28 429 22 451 19 474 c 4
 17 489 15 554 15 560 c 6
 15 563 l 6
 16 601 17 629 19 645 c 4
 22 669 30 693 42 716 c 4
 55 739 74 758 100 772 c 4
 126 786 158 793 197 793 c 6
 420 793 l 6
 458 793 490 786 516 772 c 4
 529 765 540 758 550 749 c 6
 550 749 l 5
 550 748 l 6
 551 748 l 6
 576 724 l 5
 576 723 l 5
 576 723 l 6
 586 714 594 703 600 692 c 4
 612 669 620 645 623 621 c 4
 625 605 625 577 626 539 c 6
 627 536 l 6
 627 530 625 464 623 449 c 4
 620 426 613 405 602 384 c 4
41 175 m 4
 44 153 50 132 61 112 c 4
 71 93 88 76 110 64 c 4
 133 52 162 46 197 46 c 6
 420 46 l 6
 455 46 483 52 506 64 c 4
 528 76 545 93 555 112 c 4
 566 132 573 153 576 175 c 4
 578 190 579 257 579 257 c 6
 579 263 577 326 575 339 c 4
 572 361 566 383 555 403 c 6
 554 404 l 5
 553 411 l 5
 556 414 l 6
 567 434 572 455 575 476 c 4
 577 489 579 553 579 559 c 6
 579 562 l 6
 578 600 578 627 576 643 c 4
 573 665 566 686 555 706 c 4
 545 725 528 741 506 753 c 4
 483 765 455 771 420 771 c 6
 197 771 l 6
 162 771 133 765 110 753 c 4
 88 741 71 725 61 706 c 4
 50 686 44 665 41 643 c 4
 39 627 38 600 37 562 c 6
 37 560 l 6
 37 553 39 489 41 476 c 4
 43 456 49 437 58 419 c 6
 60 419 l 5
 63 406 l 5
 61 403 l 6
 50 383 44 361 41 339 c 4
 39 326 37 263 37 257 c 6
 37 253 l 6
 38 216 39 190 41 175 c 4
EndSplineSet
EndChar

StartChar: nine
Encoding: 57 57 61
Width: 650
VWidth: 0
Flags: HW
HStem: 0 46<129 522> 167 22<307 338> 246 22<46 261> 302 46<129 342> 468 22<307 342> 604 45<311 341> 771 22<135 499>
VStem: 27 22<133 246 434 685> 260 46<192 244 493 604> 342 22<192 302 491 604> 584 45<108 691>
LayerCount: 2
Fore
SplineSet
365 560 m 6
 365 468 l 5
 307 468 l 6
 280 468 270 482 266 493 c 4
 264 498 262 509 261 546 c 6
 260 556 l 5
 261 568 l 6
 262 609 264 621 266 626 c 4
 270 637 279 651 305 651 c 6
 305 651 l 5
 328 650 l 6
 348 647 356 635 359 625 c 4
 361 619 364 606 365 560 c 6
342 491 m 5
 342 491 l 5
 342 559 l 6
 341 581 341 595 340 604 c 6
 329 604 l 6
 313 604 312 598 311 595 c 4
 310 592 307 580 306 546 c 6
 306 523 l 6
 306 508 307 498 308 491 c 6
 342 491 l 5
630 621 m 4
 632 607 633 236 633 233 c 4
 633 226 632 162 630 148 c 4
 627 124 619 100 607 77 c 4
 594 54 574 35 548 21 c 4
 522 7 490 0 452 0 c 6
 229 0 l 6
 191 0 158 7 132 21 c 4
 116 30 102 40 91 52 c 6
 91 52 l 5
 70 74 l 5
 70 74 l 6
 62 82 55 91 50 101 c 4
 38 124 30 148 27 172 c 4
 25 189 24 217 23 257 c 6
 23 268 l 5
 282 268 l 5
 306 244 l 5
 306 233 l 6
 306 212 307 198 308 189 c 6
 317 189 l 6
 334 189 337 196 338 199 c 4
 339 203 341 215 342 257 c 4
 342 258 342 281 342 302 c 6
 229 302 l 6
 191 302 158 308 132 322 c 4
 120 328 109 337 100 345 c 6
 100 344 l 5
 99 345 l 6
 96 348 93 352 90 355 c 6
 75 371 l 6
 72 373 70 375 68 378 c 6
 67 378 l 5
 60 386 55 394 50 403 c 4
 38 426 30 450 27 474 c 4
 25 490 25 629 27 645 c 4
 30 669 38 693 50 716 c 4
 62 739 82 758 108 772 c 4
 134 786 167 793 205 793 c 6
 428 793 l 6
 466 793 499 786 525 772 c 4
 540 764 552 755 563 744 c 6
 563 744 l 5
 582 724 l 5
 582 724 l 6
 592 715 601 704 607 692 c 4
 619 669 627 645 630 621 c 4
49 175 m 4
 52 153 59 132 70 112 c 4
 80 93 97 77 119 65 c 4
 142 53 170 46 205 46 c 6
 428 46 l 6
 463 46 492 53 515 65 c 4
 537 77 554 93 564 112 c 4
 575 132 581 153 584 175 c 4
 586 188 588 251 588 257 c 4
 588 279 585 629 584 643 c 4
 581 665 575 686 564 706 c 4
 554 725 537 741 515 753 c 4
 492 765 463 771 428 771 c 6
 205 771 l 6
 170 771 142 765 119 753 c 4
 97 741 80 725 70 706 c 4
 59 686 52 665 49 643 c 4
 47 629 47 490 49 476 c 4
 52 454 59 433 70 413 c 4
 80 394 97 378 119 366 c 4
 142 354 170 348 205 348 c 6
 364 348 l 5
 364 337 l 6
 364 306 365 259 365 257 c 4
 364 211 361 198 359 192 c 4
 356 182 348 171 328 168 c 6
 305 167 l 5
 279 167 270 180 266 191 c 4
 264 196 262 208 261 246 c 5
 46 246 l 6
 47 213 47 189 49 175 c 4
EndSplineSet
EndChar

StartChar: Acircumflex
Encoding: 194 194 63
Width: 651
VWidth: 0
Flags: HW
HStem: 0 46<49 263 347 574> 219 46<309 323> 393 22<309 323> 761 22<179 490 516 574>
VStem: 25 22<46 672> 129 22<829 901> 263 46<46 219 415 598> 323 22<46 219 415 598> 470 46<829 894> 574 46<46 759>
LayerCount: 2
Fore
SplineSet
303 645 m 2
 304 645 l 1
 345 645 l 1
 345 393 l 1
 263 393 l 1
 263 509 l 2
 263 592 267 612 269 620 c 0
 272 629 279 644 303 645 c 2
309 485 m 2
 309 415 l 1
 323 415 l 1
 323 598 l 2
 317 596 315 593 314 590 c 0
 312 583 309 559 309 485 c 2
620 759 m 1
 620 0 l 1
 347 0 l 1
 323 24 l 1
 323 219 l 1
 309 219 l 1
 309 0 l 1
 49 0 l 1
 25 24 l 1
 25 35 l 2
 25 59 26 617 29 640 c 0
 32 664 38 686 49 708 c 0
 60 731 78 749 101 763 c 0
 115 771 131 777 149 780 c 2
 129 800 l 1
 129 918 l 1
 310 966 l 1
 492 918 l 1
 516 894 l 1
 516 783 l 1
 596 783 l 1
 620 759 l 1
151 901 m 1
 151 829 l 1
 310 871 l 1
 470 829 l 1
 470 901 l 1
 310 943 l 1
 151 901 l 1
334 824 m 1
 179 783 l 2
 182 783 184 783 187 783 c 2
 490 783 l 1
 334 824 l 1
345 46 m 1
 345 46 l 1
 574 46 l 1
 574 761 l 1
 187 761 l 2
 157 761 132 755 112 744 c 0
 93 733 78 717 69 698 c 0
 59 679 53 658 51 637 c 0
 49 619 47 215 47 46 c 1
 263 46 l 1
 263 266 l 1
 345 266 l 1
 345 46 l 1
EndSplineSet
EndChar

StartChar: Atilde
Encoding: 195 195 64
Width: 663
VWidth: 0
Flags: HW
HStem: 0 46<54 268 352 579> 219 46<314 328> 393 22<314 328> 761 22<184 579> 783 46<313 455> 812 46<193 337> 917 22<332 438> 948 22<195 303>
VStem: 30 22<46 672> 145 22<839 921> 268 46<46 219 415 598> 328 22<46 219 415 598> 456 47<835 935> 579 46<46 759>
LayerCount: 2
Fore
SplineSet
309 645 m 6xf3fc
 309 645 l 5
 350 645 l 5
 350 393 l 5
 268 393 l 5
 268 509 l 6
 268 592 272 612 274 620 c 4
 277 629 285 644 309 645 c 6xf3fc
314 485 m 6
 314 415 l 5
 328 415 l 5
 328 598 l 6
 322 596 320 593 319 590 c 4
 317 583 314 559 314 485 c 6
625 759 m 5
 625 0 l 5
 352 0 l 5
 328 24 l 5
 328 219 l 5
 314 219 l 5
 314 0 l 5
 54 0 l 5
 30 24 l 5
 30 35 l 6
 30 59 31 617 34 640 c 4
 37 664 43 686 54 708 c 4
 65 731 83 749 106 763 c 4
 121 772 139 778 159 781 c 6
 145 795 l 5
 145 931 l 5
 149 934 l 6
 151 935 186 970 247 970 c 4
 270 970 293 966 316 956 c 4
 343 945 368 939 390 939 c 4
 438 939 457 965 458 966 c 6
 478 993 l 5
 503 969 l 5
 503 802 l 5
 496 799 l 6
 494 798 459 783 411 783 c 4xfbfc
 383 783 356 789 332 799 c 4
 311 808 291 812 270 812 c 4xf7fc
 220 812 188 786 188 786 c 6
 184 783 l 6
 187 783 189 783 192 783 c 6
 601 783 l 5
 625 759 l 5
167 921 m 6
 167 921 l 5
 167 839 l 6
 184 848 211 858 245 858 c 4xf7fc
 269 858 293 853 316 843 c 4
 337 834 362 830 387 830 c 4
 419 830 444 837 456 841 c 6
 456 935 l 6
 442 926 420 917 390 917 c 4
 365 917 338 923 308 935 c 4
 288 943 267 948 247 948 c 4
 205 948 176 929 167 921 c 6
350 46 m 5
 350 46 l 5
 579 46 l 5
 579 761 l 5
 192 761 l 6
 162 761 137 755 117 744 c 4
 98 733 83 717 74 698 c 4
 64 679 58 658 56 637 c 4
 54 619 52 215 52 46 c 5
 268 46 l 5
 268 266 l 5
 350 266 l 5
 350 46 l 5
EndSplineSet
EndChar

StartChar: Adieresis
Encoding: 196 196 65
Width: 636
VWidth: 0
Flags: HW
HStem: 0 46<41 255 339 566> 219 47<301 315> 393 22<301 315> 761 66<143 260 343 460> 761 22<306 342 506 566> 943 22<143 260 343 460>
VStem: 17 22<46 672> 121 22<826 943> 255 46<46 219 415 598 826 942> 315 22<46 219 415 598 826 943> 460 46<826 942> 566 46<46 759>
LayerCount: 2
Fore
SplineSet
295 645 m 2xe7f0
 296 645 l 1
 337 645 l 1
 337 393 l 1
 255 393 l 1
 255 509 l 2
 255 592 258 612 260 620 c 0
 263 629 271 644 295 645 c 2xe7f0
301 485 m 1
 301 485 l 1
 301 415 l 1
 315 415 l 1
 315 598 l 2
 309 596 307 593 306 590 c 0
 304 583 301 559 301 485 c 1
612 759 m 1
 612 0 l 1
 339 0 l 1
 315 24 l 1
 315 219 l 1
 301 219 l 1
 301 0 l 1
 41 0 l 1
 17 24 l 1
 17 35 l 2
 17 59 17 617 20 640 c 0
 23 664 30 686 41 708 c 0
 52 731 69 749 92 763 c 0
 107 772 125 777 145 780 c 2
 121 804 l 1
 121 965 l 1
 282 965 l 1
 306 942 l 1
 306 783 l 1
 342 783 l 1
 321 804 l 1
 321 965 l 1
 482 965 l 1
 506 942 l 1
 506 783 l 1
 588 783 l 1xeff0
 612 759 l 1
343 943 m 1
 343 826 l 1
 460 826 l 1xf7f0
 460 943 l 1
 343 943 l 1
143 943 m 1
 143 826 l 1
 260 826 l 1
 260 943 l 1
 143 943 l 1
337 46 m 1
 337 46 l 1
 566 46 l 1
 566 761 l 1xeff0
 179 761 l 2
 149 761 124 755 104 744 c 0
 85 733 69 717 60 698 c 0
 50 679 45 658 43 637 c 0
 41 619 39 215 39 46 c 1
 255 46 l 1
 255 266 l 1
 337 266 l 1
 337 46 l 1
EndSplineSet
EndChar

StartChar: Aring
Encoding: 197 197 66
Width: 646
VWidth: 0
Flags: HW
HStem: 0 46<48 262 346 573> 219 47<308 322> 393 22<308 322> 761 22<124 225 245 378 397 573> 937 22<269 353>
VStem: 24 22<46 672> 202 22<808 892> 262 46<46 219 415 598> 322 22<46 219 415 598> 398 22<808 892> 573 46<46 759>
LayerCount: 2
Fore
SplineSet
303 645 m 2
 303 645 l 1
 344 645 l 1
 344 393 l 1
 262 393 l 1
 262 509 l 2
 262 592 266 612 268 620 c 0
 271 629 279 644 303 645 c 2
308 485 m 2
 308 415 l 1
 322 415 l 1
 322 598 l 2
 316 596 314 593 313 590 c 0
 311 583 308 559 308 485 c 2
619 759 m 1
 619 0 l 1
 346 0 l 1
 322 24 l 1
 322 219 l 1
 308 219 l 1
 308 0 l 1
 48 0 l 1
 24 24 l 1
 24 35 l 2
 24 59 25 617 28 640 c 0
 31 664 37 686 48 708 c 0
 59 731 77 749 100 763 c 0
 123 776 152 783 186 783 c 2
 225 783 l 2
 210 802 202 825 202 850 c 0
 202 910 251 960 311 960 c 0
 371 960 421 910 421 850 c 0
 421 825 412 802 397 783 c 2
 595 783 l 1
 619 759 l 1
224 850 m 0
 224 824 236 800 256 783 c 2
 367 783 l 2
 387 800 398 824 398 850 c 0
 398 898 359 937 311 937 c 0
 263 937 224 898 224 850 c 0
344 46 m 1
 344 46 l 1
 573 46 l 1
 573 761 l 1
 186 761 l 2
 156 761 131 755 111 744 c 0
 92 733 77 717 68 698 c 0
 58 679 52 658 50 637 c 0
 48 619 46 215 46 46 c 1
 262 46 l 1
 262 266 l 1
 344 266 l 1
 344 46 l 1
EndSplineSet
EndChar

StartChar: Aacute
Encoding: 193 193 67
Width: 641
VWidth: 0
Flags: HW
HStem: 0 46<44 258 342 569> 219 46<304 318> 393 22<304 318> 761 22<211 569>
VStem: 20 22<46 671> 139 22<826 874> 258 46<46 219 415 598> 318 22<46 219 415 598> 450 46<864 940> 569 46<46 759>
LayerCount: 2
Fore
SplineSet
298 645 m 6
 299 645 l 5
 340 645 l 5
 340 393 l 5
 258 393 l 5
 258 509 l 6
 258 592 262 612 264 620 c 4
 267 629 274 644 298 645 c 6
304 485 m 6
 304 415 l 5
 318 415 l 5
 318 598 l 6
 312 596 310 593 309 590 c 4
 307 583 304 559 304 485 c 6
615 759 m 5
 615 0 l 5
 342 0 l 5
 318 24 l 5
 318 219 l 5
 304 219 l 5
 304 -0 l 5
 44 -0 l 5
 20 24 l 5
 20 35 l 6
 20 59 21 617 24 640 c 4
 27 664 33 686 44 708 c 4
 55 731 73 749 96 763 c 4
 113 773 134 779 158 782 c 6
 139 801 l 5
 139 891 l 5
 472 968 l 5
 496 944 l 5
 496 820 l 5
 211 783 l 5
 591 783 l 5
 615 759 l 5
161 874 m 5
 161 826 l 5
 450 864 l 5
 450 940 l 5
 161 874 l 5
340 46 m 5
 340 46 l 5
 569 46 l 5
 569 761 l 5
 182 761 l 6
 152 761 127 755 107 744 c 4
 88 733 73 717 64 698 c 4
 54 679 48 658 46 637 c 4
 44 619 42 215 42 46 c 5
 258 46 l 5
 258 266 l 5
 340 266 l 5
 340 46 l 5
EndSplineSet
EndChar

StartChar: Agrave
Encoding: 192 192 68
Width: 654
VWidth: 0
Flags: HW
HStem: 0 46<51 265 349 576> 219 46<311 325> 393 22<311 325> 761 22<127 457 503 576>
VStem: 27 22<46 672> 146 22<864 940> 265 46<46 219 415 598> 325 22<46 219 415 598> 457 46<826 867> 576 46<46 759>
LayerCount: 2
Fore
SplineSet
306 645 m 6
 306 645 l 5
 347 645 l 5
 347 393 l 5
 265 393 l 5
 265 509 l 6
 265 592 269 612 271 620 c 4
 274 629 282 644 306 645 c 6
311 485 m 6
 311 415 l 5
 325 415 l 5
 325 598 l 6
 319 596 317 593 316 590 c 4
 314 583 311 559 311 485 c 6
622 759 m 5
 622 0 l 5
 349 0 l 5
 325 24 l 5
 325 219 l 5
 311 219 l 5
 311 0 l 5
 51 0 l 5
 27 24 l 5
 27 35 l 6
 27 59 28 617 31 640 c 4
 34 664 40 686 51 708 c 4
 62 731 80 749 103 763 c 4
 126 776 155 783 189 783 c 6
 457 783 l 5
 170 820 l 5
 146 844 l 5
 146 968 l 5
 479 891 l 5
 503 867 l 5
 503 783 l 5
 598 783 l 5
 622 759 l 5
457 826 m 5
 457 874 l 5
 168 940 l 5
 168 864 l 5
 457 826 l 5
347 46 m 5
 347 46 l 5
 576 46 l 5
 576 761 l 5
 189 761 l 6
 159 761 134 755 114 744 c 4
 95 733 80 717 71 698 c 4
 61 679 55 658 53 637 c 4
 51 619 49 215 49 46 c 5
 265 46 l 5
 265 266 l 5
 347 266 l 5
 347 46 l 5
EndSplineSet
EndChar

StartChar: AE
Encoding: 198 198 69
Width: 868
VWidth: 0
Flags: HW
HStem: 0 46<58 272 356 792> 173 22<629 792> 219 46<318 332> 364 46<629 792> 392 22<318 332> 537 22<629 792> 588 46<629 792> 760 22<135 792>
VStem: 34 22<46 671> 272 46<46 219 414 598> 332 22<46 219 414 598> 583 46<195 364 559 588> 792 46<46 171 410 535 634 759>
LayerCount: 2
Fore
SplineSet
313 645 m 6xeff8
 313 645 l 5
 354 645 l 5
 354 392 l 5
 272 392 l 5
 272 509 l 6
 272 592 276 612 278 620 c 4
 281 629 289 644 313 645 c 6xeff8
318 414 m 5
 332 414 l 5
 332 598 l 6
 326 597 324 593 323 590 c 4
 321 583 318 559 318 485 c 6
 318 414 l 5
838 588 m 5
 629 588 l 5
 629 559 l 5
 814 559 l 5
 838 535 l 5
 838 364 l 5
 629 364 l 5xf7f8
 629 195 l 5
 814 195 l 5
 838 171 l 5
 838 0 l 5
 356 0 l 5
 332 24 l 5
 332 35 l 5
 332 219 l 5
 318 219 l 5
 318 0 l 5
 58 0 l 5
 34 24 l 5
 34 35 l 6
 34 59 35 616 38 639 c 4
 41 663 47 686 58 708 c 4
 69 731 87 748 110 762 c 4
 133 775 163 783 197 783 c 6
 814 783 l 5
 838 759 l 5
 838 588 l 5
792 410 m 5
 792 537 l 5
 583 537 l 5
 583 634 l 5
 792 634 l 5
 792 760 l 5
 197 760 l 6
 167 760 141 754 121 743 c 4
 101 732 87 717 78 698 c 4
 68 679 62 658 60 637 c 4
 58 619 56 215 56 46 c 5
 272 46 l 5
 272 265 l 5
 354 265 l 5
 354 46 l 5
 792 46 l 5
 792 173 l 5
 583 173 l 5
 583 410 l 5
 792 410 l 5
EndSplineSet
EndChar

StartChar: ae
Encoding: 230 230 70
Width: 995
VWidth: 0
Flags: HW
HStem: 0 46<140 917> 167 22<327 346 631 917> 214 46<631 916> 384 22<643 669> 427 22<145 347> 469 46<131 333 643 666> 636 22<129 830>
VStem: 34 22<141 332> 106 22<515 636> 279 48<192 259> 347 22<190 260 449 469> 584 47<192 214> 596 47<406 470> 669 23<406 469> 917 47<46 165 260 546>
LayerCount: 2
Fore
SplineSet
285 192 m 0xffe6
 283 197 280 206 279 236 c 2
 279 237 l 1
 279 237 l 2
 280 267 283 276 285 281 c 0
 289 293 298 306 326 306 c 2
 369 306 l 1
 369 189 l 1
 368 186 l 2
 363 177 352 167 328 167 c 2
 327 167 l 2
 299 167 289 180 285 192 c 0xffe6
328 189 m 2
 340 189 345 193 347 195 c 2
 347 260 l 2
 333 259 331 253 330 250 c 0
 329 247 327 238 326 212 c 0
 326 202 327 195 328 189 c 2
 328 189 l 2
691 395 m 2
 692 384 l 1
 596 384 l 1
 596 516 l 1xffee
 645 517 l 2
 673 517 683 503 687 491 c 0
 688 489 689 484 691 395 c 2
643 406 m 1
 669 406 l 2
 668 430 667 455 666 470 c 2
 643 470 l 1
 643 406 l 1
940 190 m 1
 964 165 l 1
 964 0 l 1
 240 0 l 2
 201 0 169 7 143 21 c 0
 129 29 116 37 106 48 c 2
 105 48 l 1
 84 69 l 1
 84 69 l 2
 74 78 66 89 60 101 c 0
 48 124 40 148 37 172 c 0
 36 183 35 213 34 236 c 0
 35 271 36 292 37 301 c 0
 40 325 48 349 60 372 c 0
 73 395 92 414 118 428 c 0
 144 442 176 449 215 449 c 2
 347 449 l 1
 347 469 l 1
 308 469 144 469 142 469 c 2
 131 469 l 1
 106 493 l 1
 106 658 l 1
 756 660 l 2
 795 660 827 653 853 639 c 0
 867 631 880 622 890 611 c 2
 890 611 l 1
 910 592 l 1
 909 592 l 2
 920 582 929 571 936 558 c 0
 948 535 956 512 959 487 c 0
 960 476 961 460 962 437 c 2
 962 437 l 1
 963 425 l 1
 962 214 l 1
 653 214 l 2
 635 214 633 207 632 204 c 0
 632 203 632 201 631 197 c 0xfff6
 631 194 631 191 631 189 c 2
 940 190 l 1
59 175 m 0
 62 153 69 132 80 112 c 0
 90 93 107 77 129 65 c 0
 152 53 180 46 215 46 c 2
 917 46 l 1
 917 167 l 1
 627 167 l 2
 599 167 589 180 585 192 c 0
 584 196 584 201 584 207 c 0
 584 211 584 216 584 221 c 2
 584 222 l 1
 584 223 l 2
 585 228 586 232 587 235 c 0
 591 246 601 260 629 260 c 2
 916 260 l 1
 917 442 l 1
 916 449 l 2
 915 476 914 497 913 509 c 0
 910 531 903 552 892 572 c 0
 882 591 865 607 843 619 c 0
 820 631 791 637 756 637 c 2
 129 636 l 1
 129 515 l 1
 173 515 331 515 332 515 c 2
 333 515 l 2
 358 511 368 493 369 478 c 2
 369 427 l 1
 215 427 l 2
 180 427 152 421 129 409 c 0
 107 397 90 381 80 362 c 0
 69 342 62 320 59 298 c 0
 58 290 57 268 56 236 c 0
 57 204 58 183 59 175 c 0
EndSplineSet
EndChar

StartChar: at
Encoding: 64 64 71
Width: 886
VWidth: 0
Flags: HW
HStem: 0 40<108 825> 98 19<266 433> 98 62<414 429 433 825> 263 19<525 541> 667 61<343 664> 688 40<268 408> 780 19<113 725>
VStem: 19 19<114 705> 228 36<120 679> 272 19<242 584> 483 40<285 523> 541 19<282 523> 664 57<263 667> 825 40<40 98 160 710>
LayerCount: 2
Fore
SplineSet
488 541 m 0x93fc
 491 551 500 563 524 563 c 2
 560 563 l 1
 560 263 l 1
 524 263 l 2
 500 263 491 275 488 285 c 0
 486 292 483 310 483 384 c 2
 483 442 l 2
 483 516 486 534 488 541 c 0x93fc
541 523 m 2
 530 522 529 517 528 515 c 0
 526 510 523 491 523 422 c 2
 523 364 l 2
 523 319 525 294 526 282 c 2
 541 282 l 1
 541 523 l 2
864 651 m 0
 864 649 865 644 865 579 c 2
 865 166 l 1
 865 116 l 1
 865 96 l 1
 865 0 l 1
 194 0 l 2
 161 0 132 6 110 18 c 0
 99 24 90 30 82 38 c 2
 82 38 l 1
 81 39 l 2
 80 40 l 2
 61 59 l 2
 60 60 59 60 58 61 c 2
 57 63 l 1
 57 63 l 2
 50 70 44 78 39 87 c 0
 28 107 22 128 19 149 c 0
 17 169 17 651 19 671 c 0
 22 692 28 713 39 733 c 0
 50 753 66 769 89 781 c 0
 111 793 140 799 173 799 c 2
 724 797 l 1
 725 797 l 2
 743 794 759 788 773 781 c 0
 785 775 794 768 803 759 c 2
 803 759 l 1
 818 744 l 1
 818 744 l 2
 829 735 837 724 844 712 c 0
 855 692 861 672 864 651 c 0
276 268 m 0
 274 283 272 310 272 347 c 0
 272 367 274 543 276 558 c 0
 279 579 285 600 295 619 c 0
 306 639 323 656 345 668 c 0
 362 677 384 685 408 688 c 2
 286 688 l 2
 271 688 269 682 268 679 c 0
 266 671 264 601 264 533 c 2
 264 199 l 2
 264 153 265 129 266 117 c 2
 433 117 l 2xd7fc
 407 120 385 128 367 138 c 0
 351 147 337 157 327 170 c 0
 313 180 303 193 295 207 c 0
 285 226 279 247 276 268 c 0
825 40 m 1
 825 40 l 1
 825 98 l 1xbbfc
 270 98 l 2
 246 98 236 110 233 120 c 0
 231 127 228 144 228 219 c 2
 228 554 l 2
 228 555 228 689 233 705 c 0
 236 715 246 727 270 727 c 2xd7fc
 721 727 l 1
 721 263 l 1
 664 263 l 1
 664 667 l 1
 429 667 l 2
 399 667 373 661 354 651 c 0
 335 641 321 627 312 610 c 0
 303 593 297 575 295 556 c 0
 294 546 292 425 291 347 c 0
 291 311 293 285 295 270 c 0
 297 251 303 233 312 216 c 0
 321 199 335 185 354 175 c 0
 373 165 399 160 429 160 c 2
 825 160 l 1xbbfc
 825 600 l 2
 825 658 824 667 824 669 c 0
 822 688 815 706 806 724 c 0
 797 741 783 754 764 764 c 0
 752 770 738 775 722 778 c 2
 173 780 l 2
 143 780 118 774 98 764 c 0
 79 754 65 741 56 724 c 0
 47 706 40 688 38 669 c 0
 36 652 36 168 38 151 c 0
 40 132 47 114 56 96 c 0
 65 79 79 65 98 55 c 0
 118 45 143 40 173 40 c 2
 825 40 l 1
EndSplineSet
EndChar

StartChar: copyright
Encoding: 169 169 72
Width: 831
VWidth: 0
Flags: HW
HStem: 0 46<156 670> 115 22<181 625> 189 47<263 517 517 543> 378 69<431 579> 588 22<263 519> 663 46<185 654> 778 22<167 640>
VStem: 17 22<164 661> 108 47<158 635> 205 22<297 528> 371 64<355 378 447 490> 579 47<256 378 447 552> 677 22<183 641> 767 47<138 667>
LayerCount: 2
Fore
SplineSet
699 611 m 6
 699 610 l 6
 701 570 701 256 699 215 c 6
 699 214 l 6
 696 197 690 180 680 163 c 4
 673 150 660 140 642 131 c 4
 621 121 590 115 553 115 c 6
 253 115 l 6
 216 115 186 121 165 131 c 4
 147 140 133 150 126 163 c 4
 116 180 111 197 108 214 c 6
 108 215 l 6
 106 256 106 570 108 610 c 6
 108 611 l 6
 111 628 116 644 126 661 c 4
 133 674 147 685 165 694 c 4
 186 704 216 710 253 710 c 6
 553 710 l 6
 590 710 621 704 642 694 c 4
 661 685 673 674 680 661 c 4
 690 644 696 628 699 611 c 6
186 669 m 5
 185 667 l 6
 187 668 187 669 189 670 c 4
 190 670 l 6
 186 669 l 5
677 217 m 4
 679 258 679 568 677 608 c 4
 675 621 671 633 664 646 c 4
 662 647 660 649 657 650 c 4
 639 659 611 663 578 663 c 6
 278 663 l 6
 245 663 217 659 199 650 c 4
 185 643 175 635 170 626 c 4
 162 612 156 598 154 584 c 4
 152 544 152 234 154 193 c 4
 156 180 161 168 168 155 c 4
 170 154 172 152 175 151 c 4
 193 142 220 137 253 137 c 6
 553 137 l 6
 586 137 614 142 632 151 c 4
 646 158 656 165 661 174 c 4
 669 188 675 203 677 217 c 4
814 596 m 4
 817 573 817 203 814 180 c 4
 810 150 799 121 783 93 c 4
 766 65 741 42 706 25 c 4
 672 8 629 0 578 0 c 6
 278 0 l 6
 227 0 183 8 149 25 c 4
 130 35 113 46 99 59 c 6
 99 59 l 5
 95 64 l 6
 95 64 l 6
 71 87 l 5
 71 87 l 6
 62 96 54 106 48 117 c 4
 32 145 21 174 17 204 c 4
 14 227 14 597 17 620 c 4
 21 650 32 679 48 707 c 4
 65 735 90 758 125 775 c 4
 159 792 202 800 253 800 c 6
 553 800 l 6
 604 800 648 792 682 775 c 4
 703 765 721 752 735 738 c 6
 735 738 l 5
 760 713 l 5
 760 713 l 6
 769 704 777 694 783 683 c 4
 799 655 810 626 814 596 c 4
729 80 m 5
 727 79 l 6
 728 80 729 80 730 81 c 6
 729 80 l 5
767 207 m 4
 770 228 770 597 767 618 c 4
 763 645 755 671 740 696 c 4
 726 720 703 740 672 755 c 4
 641 770 601 778 553 778 c 6
 253 778 l 6
 205 778 166 770 135 755 c 4
 104 740 81 720 67 696 c 4
 52 671 43 645 39 618 c 4
 36 597 36 228 39 207 c 4
 43 180 52 154 67 129 c 4
 81 105 104 84 135 69 c 4
 166 54 205 46 253 46 c 6
 553 46 l 6
 601 46 641 54 672 69 c 4
 703 84 726 105 740 129 c 4
 755 154 763 180 767 207 c 4
598 559 m 6
 603 553 609 546 613 537 c 4
 622 519 626 493 626 463 c 6
 626 400 l 5
 626 375 l 5
 626 362 l 5
 626 311 l 6
 626 281 622 256 613 238 c 4
 605 222 596 212 585 206 c 4
 571 198 558 192 543 190 c 6
 542 190 l 6
 538 190 517 189 517 189 c 5
 516 189 l 5
 352 189 l 6
 322 189 297 193 279 202 c 4
 269 207 260 213 254 219 c 6
 254 219 l 5
 228 246 l 5
 228 246 l 6
 226 249 224 252 222 255 c 4
 214 269 208 283 206 297 c 6
 206 298 l 6
 206 304 205 318 205 341 c 6
 205 341 l 5
 205 352 l 5
 205 460 l 6
 205 485 205 517 206 527 c 6
 206 528 l 6
 208 542 214 556 222 570 c 4
 228 581 238 589 254 597 c 4
 272 606 298 611 328 611 c 6
 492 610 l 6
 504 610 513 610 518 610 c 6
 519 609 l 6
 534 607 547 602 561 594 c 4
 564 592 567 590 569 588 c 6
 569 588 l 5
 598 559 l 5
 598 559 l 6
579 336 m 6
 579 336 l 5
 579 378 l 5
 435 378 l 6
 434 370 433 358 431 353 c 4
 428 345 422 339 414 335 c 4
 407 332 399 333 395 334 c 4
 386 338 379 344 376 353 c 6
 376 355 l 6
 373 365 371 370 371 412 c 4
 371 454 373 459 376 469 c 6
 376 471 l 6
 379 479 384 485 391 489 c 6
 392 489 l 6
 396 490 407 493 415 489 c 6
 416 489 l 6
 423 485 429 479 431 471 c 4
 433 466 434 455 435 447 c 6
 579 447 l 5
 579 488 l 6
 579 515 575 537 568 552 c 4
 562 563 557 571 550 575 c 4
 539 582 527 585 516 587 c 4
 511 587 502 588 491 588 c 6
 328 588 l 6
 301 588 279 584 264 577 c 4
 253 571 245 566 241 559 c 4
 234 548 230 536 228 525 c 4
 228 517 227 494 227 460 c 6
 227 352 l 6
 227 318 228 305 228 300 c 4
 230 289 234 277 241 266 c 4
 245 259 253 253 264 247 c 4
 279 240 301 236 328 236 c 6
 491 236 l 6
 493 236 511 237 516 237 c 4
 527 239 539 243 550 250 c 4
 557 254 562 262 568 273 c 4
 575 288 579 309 579 336 c 6
EndSplineSet
EndChar

StartChar: registered
Encoding: 174 174 73
Width: 846
VWidth: 0
Flags: HW
HStem: 0 46<161 676> 115 22<187 631> 190 46<235 383 455 584> 436 95<384 451> 588 22<233 537> 663 46<189 658> 778 22<172 645>
VStem: 23 22<164 660> 113 46<157 634> 210 22<236 588> 383 68<236 390 437 530> 584 46<236 398> 682 22<183 641> 772 46<138 667>
LayerCount: 2
Fore
SplineSet
113 214 m 6
 113 215 l 6
 111 256 111 569 113 609 c 6
 113 610 l 6
 116 627 121 644 131 661 c 4
 138 674 152 684 170 693 c 4
 191 703 222 709 259 709 c 6
 559 709 l 6
 596 709 626 703 647 693 c 4
 666 684 679 674 686 661 c 4
 696 644 701 627 704 610 c 6
 704 609 l 6
 706 569 706 256 704 215 c 6
 704 214 l 6
 701 197 696 180 686 163 c 4
 679 150 665 140 647 131 c 4
 626 121 596 115 559 115 c 6
 259 115 l 6
 222 115 191 121 170 131 c 4
 152 140 138 150 131 163 c 4
 121 180 116 197 113 214 c 6
682 216 m 4
 684 257 684 568 682 608 c 4
 680 621 676 632 669 645 c 4
 667 646 664 649 661 650 c 4
 643 659 615 663 582 663 c 6
 282 663 l 6
 249 663 222 659 204 650 c 4
 190 643 179 635 174 626 c 4
 166 612 161 598 159 584 c 4
 157 544 157 234 159 193 c 4
 161 180 165 167 172 155 c 4
 174 154 177 152 180 151 c 4
 198 142 226 137 259 137 c 6
 559 137 l 6
 592 137 619 142 637 151 c 4
 651 158 661 165 666 174 c 4
 674 188 680 202 682 216 c 4
430 437 m 6
 419 436 l 5
 384 436 l 5
 384 531 l 5
 419 531 l 6
 442 531 449 519 451 511 c 4
 453 504 453 462 451 456 c 4
 449 450 444 440 430 437 c 6
818 596 m 4
 821 573 821 203 818 180 c 4
 814 150 804 121 788 93 c 4
 771 65 746 42 711 25 c 4
 677 8 633 0 582 0 c 6
 282 0 l 6
 231 0 188 8 154 25 c 4
 135 34 118 46 104 59 c 6
 104 59 l 5
 102 62 l 6
 101 63 99 64 98 65 c 6
 80 84 l 6
 78 86 76 88 74 90 c 6
 72 92 l 5
 72 92 l 6
 65 100 58 108 53 117 c 4
 37 145 27 174 23 204 c 4
 20 227 20 597 23 620 c 4
 27 650 37 679 53 707 c 4
 70 735 95 758 130 775 c 4
 164 792 208 800 259 800 c 6
 559 800 l 6
 610 800 653 792 687 775 c 4
 710 764 729 749 744 733 c 6
 744 733 l 5
 762 716 l 5
 761 716 l 6
 771 706 781 695 788 683 c 4
 804 655 814 626 818 596 c 4
45 207 m 4
 49 180 57 153 72 128 c 4
 86 104 109 84 140 69 c 4
 171 54 211 46 259 46 c 6
 559 46 l 6
 607 46 646 54 677 69 c 4
 708 84 731 104 745 128 c 4
 760 153 768 180 772 207 c 4
 775 228 775 596 772 617 c 4
 768 644 760 671 745 696 c 4
 731 720 708 740 677 755 c 4
 646 770 607 778 559 778 c 6
 259 778 l 6
 211 778 171 770 140 755 c 4
 109 740 86 720 72 696 c 4
 57 671 49 644 45 617 c 4
 42 596 42 228 45 207 c 4
631 302 m 5
 631 291 l 5
 631 190 l 5
 235 190 l 5
 210 214 l 5
 210 610 l 5
 483 610 l 6
 509 610 531 605 549 596 c 4
 558 591 566 585 573 579 c 6
 573 579 l 5
 573 579 l 6
 573 579 l 6
 598 554 l 5
 598 553 l 6
 604 547 610 541 614 533 c 4
 615 531 640 486 616 425 c 5
 616 425 l 6
 614 421 609 412 603 405 c 4
 607 400 611 395 614 389 c 4
 622 373 628 357 630 340 c 4
 630 338 631 332 631 302 c 5
233 588 m 5
 233 236 l 5
 383 236 l 5
 383 391 l 5
 418 391 l 6
 441 391 449 379 451 371 c 4
 452 366 454 355 455 314 c 6
 455 236 l 5
 584 236 l 5
 584 315 l 6
 584 348 583 359 583 362 c 4
 581 376 577 390 570 403 c 4
 566 410 562 415 556 420 c 6
 547 429 l 5
 556 437 l 6
 561 441 569 455 571 458 c 4
 591 509 570 546 570 546 c 4
 563 559 553 568 539 576 c 4
 524 584 506 588 483 588 c 6
 233 588 l 5
EndSplineSet
EndChar

StartChar: logicalnot
Encoding: 172 172 74
Width: 814
VWidth: 0
Flags: HW
HStem: 321 46<518 745> 468 46<42 494> 636 22<40 745>
VStem: 18 22<514 636> 494 22<367 468> 745 47<367 634>
LayerCount: 2
Fore
SplineSet
767 658 m 1
 791 634 l 1
 791 321 l 1
 518 321 l 1
 494 345 l 1
 494 468 l 1
 42 468 l 1
 18 492 l 1
 18 658 l 1
 767 658 l 1
40 636 m 1
 40 514 l 1
 516 514 l 1
 516 367 l 1
 745 367 l 1
 745 636 l 1
 40 636 l 1
EndSplineSet
EndChar

StartChar: ordfeminine
Encoding: 170 170 75
Width: 309
VWidth: 0
Flags: HW
HStem: 436 46<78 253> 534 73<106 177> 660 50<64 176> 777 22<64 204>
VStem: 42 22<710 777> 103 74<537 604> 253 46<482 731>
LayerCount: 2
Fore
SplineSet
140 534 m 6
 120 534 103 551 103 571 c 4
 103 591 120 607 140 607 c 6
 177 607 l 5
 177 534 l 5
 140 534 l 6
299 653 m 6
 299 436 l 5
 162 436 l 6
 135 436 111 440 93 449 c 4
 83 454 74 459 67 466 c 6
 67 466 l 5
 39 493 l 5
 40 493 l 6
 35 498 30 503 27 509 c 4
 18 524 12 539 10 555 c 4
 9 563 9 578 10 586 c 4
 12 602 18 617 27 632 c 4
 35 646 48 657 64 666 c 6
 42 688 l 5
 42 799 l 5
 154 799 l 6
 182 799 196 795 214 786 c 4
 226 780 237 773 245 764 c 6
 245 765 l 5
 266 743 l 5
 266 743 l 6
 272 738 276 732 280 726 c 4
 289 711 295 696 297 680 c 6
 297 678 l 6
 298 672 298 666 299 653 c 6
32 583 m 4
 31 578 31 563 32 558 c 4
 34 545 39 533 46 521 c 4
 53 510 64 500 79 493 c 4
 94 486 114 482 138 482 c 6
 253 482 l 5
 253 676 l 6
 253 688 252 693 251 698 c 6
 251 700 l 6
 249 713 244 726 237 738 c 4
 230 749 220 759 205 766 c 4
 189 774 178 777 154 777 c 6
 64 777 l 5
 64 710 l 6
 89 710 146 710 147 710 c 6
 148 710 l 6
 168 707 175 694 176 683 c 6
 176 660 l 5
 138 660 l 6
 114 660 94 656 79 649 c 4
 64 642 53 632 46 621 c 4
 39 609 34 596 32 583 c 4
EndSplineSet
EndChar

StartChar: multiply
Encoding: 215 215 76
Width: 479
VWidth: 0
Flags: HW
LayerCount: 2
Fore
SplineSet
464 525 m 1
 364 425 l 1
 464 325 l 1
 350 211 l 1
 250 311 l 1
 150 211 l 1
 12 349 l 1
 112 449 l 1
 12 549 l 1
 126 663 l 1
 226 563 l 1
 326 663 l 1
 464 525 l 1
144 449 m 1
 43 349 l 1
 126 267 l 1
 226 367 l 1
 326 267 l 1
 409 349 l 1
 309 449 l 1
 409 549 l 1
 326 632 l 1
 226 532 l 1
 126 632 l 1
 43 549 l 1
 144 449 l 1
EndSplineSet
EndChar

StartChar: section
Encoding: 167 167 77
Width: 629
VWidth: 0
Flags: HW
HStem: -201 46<64 472> -21 22<62 302> 23 46<117 303> 185 22<300 319> 369 46<303 322> 531 22<318 475> 593 46<318 535> 772 22<149 535>
VStem: 18 22<152 640> 40 22<-152 -21> 252 46<208 369> 272 46<553 592> 304 22<16 23> 324 22<209 369> 535 46<639 768> 557 46<-57 454>
LayerCount: 2
Fore
SplineSet
299 416 m 0xff24
 327 416 336 402 340 391 c 0
 342 384 345 366 346 300 c 0
 345 233 342 216 340 209 c 0
 336 198 326 185 299 185 c 2
 299 185 l 2
 272 185 262 198 258 209 c 0
 256 216 253 234 252 300 c 0
 253 367 256 384 258 391 c 0
 262 402 272 416 299 416 c 0xff24
319 216 m 0
 321 221 324 238 324 300 c 0
 324 336 322 357 321 369 c 0
 306 369 304 363 303 360 c 0
 301 355 298 338 298 276 c 0
 298 240 300 219 301 207 c 0
 316 207 318 213 319 216 c 0
603 183 m 1xff11
 603 183 l 1
 603 70 l 2
 604 47 604 24 602 2 c 0
 601 -12 598 -24 595 -37 c 0
 590 -61 582 -84 574 -102 c 0
 560 -132 539 -156 510 -174 c 0
 482 -192 447 -201 405 -201 c 2
 405 -201 l 2
 403 -201 l 1
 64 -198 l 1
 40 -174 l 1
 40 1 l 1xff51
 281 1 l 2
 299 1 301 8 302 11 c 0
 302 12 303 13 304 17 c 0
 304 19 303 21 303 23 c 2
 198 23 l 2
 168 25 143 32 122 43 c 0
 111 49 100 56 91 64 c 2
 91 64 l 1
 90 65 l 2
 88 67 86 70 84 72 c 2
 65 90 l 2
 64 91 64 91 63 92 c 2
 60 95 l 1
 60 95 l 2
 52 103 46 111 41 121 c 0
 29 143 22 166 19 190 c 0
 17 206 17 347 18 393 c 2
 18 523 l 2
 17 546 18 570 20 592 c 0
 22 606 23 618 26 631 c 0
 31 655 40 678 48 696 c 0
 62 726 82 750 111 768 c 0
 139 786 175 794 217 794 c 2
 218 794 l 1
 557 792 l 1
 581 768 l 1
 581 593 l 1xff8a
 424 593 l 2
 404 593 387 593 378 593 c 2
 378 592 l 1
 367 592 l 1
 340 592 l 2
 325 592 322 585 320 579 c 0
 320 578 319 575 318 570 c 0
 318 564 318 558 318 553 c 2
 406 553 l 2
 443 553 475 546 500 533 c 0
 514 526 525 517 535 507 c 2
 535 508 l 1
 560 482 l 1
 560 482 l 2
 568 474 575 465 580 455 c 0
 592 433 600 410 603 386 c 0
 605 370 604 229 603 183 c 1xff11
62 -21 m 1
 62 -21 l 1
 62 -152 l 1
 381 -154 l 2
 418 -154 450 -146 475 -131 c 0
 500 -115 518 -95 530 -69 c 0
 538 -52 545 -30 550 -8 c 0
 553 4 555 16 556 29 c 0
 558 50 558 72 557 94 c 2
 557 207 l 2
 558 260 558 394 556 407 c 0
 553 428 547 449 537 468 c 0
 527 487 511 503 490 514 c 0
 468 526 440 531 406 531 c 2
 315 531 l 2
 293 531 278 541 273 560 c 0
 272 564 272 569 272 576 c 0xff51
 272 581 272 588 272 594 c 2
 272 595 l 1
 272 596 l 2
 273 602 273 606 274 609 c 0
 279 628 294 638 316 638 c 2
 342 639 l 2
 344 639 346 639 348 639 c 0
 349 639 371 639 400 639 c 2
 535 639 l 1
 535 770 l 1
 217 772 l 2
 180 772 148 764 123 749 c 0
 98 733 80 712 68 686 c 0
 60 669 53 648 48 626 c 0
 45 614 43 602 42 589 c 0
 40 568 40 546 41 524 c 2
 41 393 l 2
 40 342 39 206 41 193 c 0
 44 172 51 151 61 132 c 0
 71 113 87 97 108 86 c 0
 128 75 155 70 186 69 c 2
 187 69 l 1
 283 69 l 2
 311 69 321 56 325 45 c 0
 326 41 326 36 326 31 c 0
 326 27 326 22 326 17 c 2xff8a
 326 16 l 1
 326 15 l 2
 325 10 324 6 323 3 c 0
 319 -8 309 -21 281 -21 c 2
 62 -21 l 1
483 -8 m 1024
EndSplineSet
EndChar

StartChar: yen
Encoding: 165 165 78
Width: 766
VWidth: 0
Flags: HW
HStem: 0 47<258 487> 157 47<55 234 533 693> 255 22<53 234 533 693> 309 47<55 234 533 693> 406 22<53 225 555 693> 774 22<58 279 464 685>
VStem: 31 22<204 255 355 406> 234 22<47 157 277 309> 487 46<47 157 277 309> 693 46<204 253 355 404>
LayerCount: 2
Fore
SplineSet
555 428 m 5
 715 428 l 5
 739 404 l 5
 739 309 l 5
 533 309 l 5
 533 277 l 5
 715 277 l 5
 739 253 l 5
 739 157 l 5
 533 157 l 5
 533 0 l 5
 258 0 l 5
 234 24 l 5
 234 157 l 5
 55 157 l 5
 31 182 l 5
 31 277 l 5
 234 277 l 5
 234 309 l 5
 55 309 l 5
 31 333 l 5
 31 428 l 5
 225 428 l 5
 21 796 l 5
 292 796 l 5
 316 772 l 5
 377 663 l 5
 451 796 l 5
 722 796 l 5
 747 772 l 5
 555 428 l 5
693 204 m 5
 693 204 l 5
 693 255 l 5
 487 255 l 5
 487 355 l 5
 693 355 l 5
 693 406 l 5
 480 406 l 5
 685 774 l 5
 464 774 l 5
 372 608 l 5
 279 774 l 5
 58 774 l 5
 263 406 l 5
 53 406 l 5
 53 355 l 5
 256 355 l 5
 256 255 l 5
 53 255 l 5
 53 204 l 5
 256 204 l 5
 256 47 l 5
 487 47 l 5
 487 204 l 5
 693 204 l 5
EndSplineSet
EndChar

StartChar: divide
Encoding: 247 247 79
Width: 500
VWidth: 0
Flags: HW
HStem: 103 46<181 297> 266 69<180 297> 288 46<40 158 319 438> 451 68<181 297> 451 22<38 181 343 438> 636 22<180 297>
VStem: 16 22<335 451> 157 22<149 266 519 636> 297 46<149 264 519 635> 438 46<335 449>
LayerCount: 2
Fore
SplineSet
484 449 m 1xafc0
 484 449 l 1
 484 288 l 1
 319 288 l 1
 343 264 l 1
 343 103 l 1
 181 103 l 1
 158 127 l 1
 158 288 l 1
 40 288 l 1
 16 312 l 1
 16 473 l 1
 181 473 l 1
 157 497 l 1
 157 658 l 1
 319 658 l 1
 343 635 l 1
 343 473 l 1
 460 473 l 1
 484 449 l 1xafc0
180 636 m 1
 180 519 l 1
 297 519 l 1x97c0
 297 636 l 1
 180 636 l 1
297 149 m 1
 297 266 l 1
 180 266 l 1xc7c0
 180 149 l 1
 297 149 l 1
438 335 m 1xafc0
 438 335 l 1
 438 451 l 1
 38 451 l 1
 38 335 l 1
 438 335 l 1xafc0
EndSplineSet
EndChar

StartChar: plusminus
Encoding: 177 177 80
Width: 521
VWidth: 0
Flags: HW
HStem: 5 46<54 452> 168 22<52 452> 190 46<184 298> 332 46<42 159 345 440> 495 22<40 159 345 440> 636 22<181 298>
VStem: 17 22<378 495> 30 22<51 168> 159 22<236 332 517 636> 298 47<236 332 517 635> 440 47<378 493> 452 46<51 166>
LayerCount: 2
Fore
SplineSet
462 517 m 1xdee0
 487 493 l 1
 487 332 l 1
 345 332 l 1
 345 190 l 1
 184 190 l 1
 159 214 l 1
 159 332 l 1
 42 332 l 1
 17 356 l 1
 17 517 l 1
 159 517 l 1
 159 659 l 1
 320 659 l 1
 345 635 l 1
 345 517 l 1
 462 517 l 1xdee0
40 495 m 1
 40 378 l 1
 181 378 l 1
 181 236 l 1
 298 236 l 1xbee0
 298 378 l 1
 440 378 l 1
 440 495 l 1
 298 495 l 1
 298 636 l 1
 181 636 l 1
 181 495 l 1
 40 495 l 1
474 190 m 1
 498 166 l 1
 498 5 l 1
 54 5 l 1
 30 29 l 1
 30 190 l 1xbdd0
 474 190 l 1
52 168 m 1xddd0
 52 51 l 1
 452 51 l 1
 452 168 l 1
 52 168 l 1xddd0
EndSplineSet
EndChar

StartChar: plus
Encoding: 43 43 81
Width: 502
VWidth: 0
Flags: HW
HStem: 190 46<182 297> 332 46<41 158 343 438> 494 22<38 158 343 438> 636 22<180 297>
VStem: 16 22<378 494> 158 22<236 332 517 636> 297 47<236 332 517 634> 438 47<378 493>
LayerCount: 2
Fore
SplineSet
460 517 m 1
 485 493 l 1
 485 332 l 1
 343 332 l 1
 343 190 l 1
 182 190 l 1
 158 214 l 1
 158 332 l 1
 41 332 l 1
 16 356 l 1
 16 517 l 1
 158 517 l 1
 158 658 l 1
 319 658 l 1
 343 634 l 1
 343 517 l 1
 460 517 l 1
38 494 m 1
 38 378 l 1
 180 378 l 1
 180 236 l 1
 297 236 l 1
 297 378 l 1
 438 378 l 1
 438 494 l 1
 297 494 l 1
 297 636 l 1
 180 636 l 1
 180 494 l 1
 38 494 l 1
EndSplineSet
EndChar

StartChar: asterisk
Encoding: 42 42 82
Width: 525
VWidth: 0
Flags: HW
HStem: 299 46<185 317> 777 22<183 317>
VStem: 12 22<418 480 642 704> 161 22<345 422 664 777> 317 46<345 435 676 775> 466 46<418 470 642 704>
LayerCount: 2
Fore
SplineSet
512 717 m 1
 512 717 l 1
 512 605 l 1
 393 543 l 1
 488 494 l 1
 512 470 l 1
 512 357 l 1
 364 435 l 1
 364 299 l 1
 185 299 l 1
 161 323 l 1
 161 422 l 1
 36 357 l 1
 12 381 l 1
 12 494 l 1
 131 555 l 1
 36 605 l 1
 12 628 l 1
 12 741 l 1
 161 664 l 1
 161 799 l 1
 339 799 l 1
 364 775 l 1
 364 676 l 1
 488 741 l 1
 512 717 l 1
34 480 m 1
 34 418 l 1
 183 495 l 1
 183 345 l 1
 317 345 l 1
 317 495 l 1
 466 418 l 1
 466 480 l 1
 310 561 l 1
 466 642 l 1
 466 704 l 1
 317 627 l 1
 317 777 l 1
 183 777 l 1
 183 627 l 1
 34 704 l 1
 34 642 l 1
 190 561 l 1
 34 480 l 1
EndSplineSet
EndChar

StartChar: ampersand
Encoding: 38 38 83
Width: 749
VWidth: 0
Flags: HW
HStem: 2 47<169 377 532 652> 182 22<296 340> 624 47<327 355> 764 22<172 484>
VStem: 30 22<134 362> 74 22<531 684> 250 46<219 267> 280 46<551 624> 561 46<508 689> 630 46<147 280>
LayerCount: 2
Fore
SplineSet
280 507 m 1xfdc0
 280 601 l 2
 280 607 280 637 282 645 c 0
 284 654 292 670 320 671 c 2
 336 671 l 2
 364 670 373 654 375 645 c 0
 377 636 377 581 375 570 c 0
 370 542 313 519 295 512 c 2
 280 507 l 1xfdc0
354 575 m 2
 355 580 355 606 355 624 c 2
 345 624 l 2
 330 624 328 618 327 615 c 0
 326 612 326 597 326 576 c 2
 326 551 l 2
 341 560 352 568 353 574 c 2
 354 575 l 2
296 182 m 0
 265 182 252 206 250 219 c 2
 250 220 l 2xfec0
 250 221 251 312 253 324 c 2
 257 347 l 1
 382 205 l 1
 315 185 l 2
 308 183 302 182 296 182 c 0
309 206 m 2
 342 216 l 1
 298 267 l 2
 297 246 296 218 296 204 c 1
 300 204 305 205 309 206 c 2
639 101 m 2
 726 2 l 1
 532 2 l 1
 508 27 l 1
 490 48 l 1
 422 26 320 5 305 3 c 2
 305 2 l 2
 295 0 282 0 268 0 c 0
 244 0 218 3 201 5 c 0
 184 7 175 7 169 9 c 2
 169 9 l 2
 156 12 145 17 135 22 c 0
 118 31 104 42 93 55 c 2
 93 55 l 1
 78 71 l 1
 78 71 l 2
 68 80 60 91 54 102 c 0
 42 124 35 146 32 170 c 0
 30 183 30 202 30 215 c 0
 30 225 30 274 30 283 c 0
 30 296 30 314 32 327 c 0
 35 351 42 374 54 396 c 0
 71 427 90 449 111 460 c 0
 115 462 119 464 123 466 c 2
 106 485 l 2
 101 492 97 498 94 504 c 0
 83 526 77 549 74 573 c 0
 73 580 72 589 72 600 c 0
 72 618 73 633 74 643 c 0
 77 667 83 689 94 711 c 0
 105 734 123 752 147 766 c 0
 171 779 201 786 236 786 c 2
 328 786 l 1
 421 786 l 2
 456 786 486 779 510 766 c 0
 524 758 535 748 545 737 c 2
 545 737 l 1
 561 721 l 1
 561 721 l 2
 572 711 580 699 586 686 c 0
 597 664 604 642 607 618 c 0
 608 608 609 593 609 575 c 0
 609 563 608 555 607 548 c 0
 604 524 598 501 587 479 c 0
 576 456 558 439 534 425 c 0
 533 424 455 383 410 360 c 1
 495 263 l 1
 652 310 l 1
 676 285 l 1
 676 115 l 1
 669 112 l 1
 669 112 658 108 639 101 c 2
53 215 m 0
 53 202 53 185 54 173 c 0
 57 152 64 131 74 112 c 0
 84 93 100 78 121 67 c 0
 130 62 139 59 150 56 c 0
 154 55 202 47 244 47 c 0
 257 47 268 48 277 49 c 0
 281 50 397 73 468 97 c 2
 475 99 l 1
 518 49 l 1
 652 49 l 1
 577 135 l 1
 592 141 l 2
 609 147 622 152 630 155 c 2
 630 280 l 1
 487 237 l 1
 350 392 l 1
 363 398 l 2
 409 422 496 467 499 469 c 0
 519 480 534 495 543 514 c 0
 553 533 559 554 561 575 c 0
 562 581 562 590 562 601 c 0
 562 618 562 631 561 640 c 0
 559 661 553 682 543 701 c 0
 534 720 519 735 499 746 c 0
 479 757 452 764 421 764 c 2
 328 764 l 1
 236 764 l 2
 205 764 178 757 158 746 c 0
 138 735 123 720 114 701 c 0
 104 681 98 661 96 640 c 0
 95 631 95 617 95 600 c 0
 95 589 95 581 96 575 c 0
 98 554 104 533 114 514 c 0
 117 509 120 504 124 499 c 2
 162 455 l 1
 145 450 l 2
 136 447 128 444 121 440 c 0
 104 431 89 413 74 386 c 0
 64 367 57 346 54 325 c 0
 53 313 53 295 53 283 c 0
 53 274 53 225 53 215 c 0
EndSplineSet
EndChar

StartChar: parenleft
Encoding: 40 40 84
Width: 530
VWidth: 0
Flags: HW
HStem: -195 46<237 439> 778 22<217 439>
VStem: 14 22<196 434> 261 46<144 459>
LayerCount: 2
Fore
SplineSet
307 291 m 0
 307 116 375 -50 497 -176 c 2
 515 -195 l 1
 237 -195 l 1
 213 -170 l 1
 210 -167 l 2
 84 -37 14 134 14 315 c 0
 14 496 84 667 210 797 c 2
 213 801 l 1
 491 801 l 1
 515 776 l 1
 497 758 l 2
 375 632 307 466 307 291 c 0
222 778 m 1
 102 653 36 489 36 315 c 0
 36 141 102 -23 222 -148 c 1
 439 -148 l 1
 324 -21 261 142 261 315 c 0
 261 487 324 651 439 778 c 1
 222 778 l 1
EndSplineSet
EndChar

StartChar: parenright
Encoding: 41 41 85
Width: 548
VWidth: 0
Flags: HW
HStem: -196 47<76 309> 778 22<76 298>
VStem: 232 22<194 435> 479 47<148 461>
LayerCount: 2
Fore
SplineSet
329 772 m 2
 455 642 525 471 525 290 c 0
 525 109 455 -62 329 -192 c 2
 326 -196 l 1
 48 -196 l 1
 24 -171 l 1
 42 -152 l 2
 164 -26 232 140 232 315 c 0
 232 490 164 655 42 781 c 2
 24 800 l 1
 302 800 l 1
 305 797 l 2
 305 797 l 2
 326 775 l 1
 329 772 l 2
254 315 m 0
 254 142 191 -22 76 -149 c 1
 292 -149 l 1
 412 -24 479 141 479 315 c 0
 479 489 412 653 292 778 c 1
 76 778 l 1
 191 651 254 487 254 315 c 0
EndSplineSet
EndChar

StartChar: braceleft
Encoding: 123 123 86
Width: 617
VWidth: 0
Flags: HW
HStem: -196 46<245 548> -29 22<432 548> 610 45<435 548> 777 22<250 548>
VStem: 139 22<-52 239 389 680> 384 46<-3 238 381 610> 548 46<-150 -30 657 775>
LayerCount: 2
Fore
SplineSet
430 391 m 2
 429 346 379 313 343 295 c 1
 356 287 369 277 380 266 c 2
 380 266 l 1
 400 247 l 1
 399 247 l 2
 416 231 429 211 430 189 c 2
 430 187 l 1
 430 87 l 2
 430 35 431 8 433 -7 c 0
 446 -7 555 -7 559 -7 c 2
 570 -6 l 1
 594 -30 l 1
 594 -42 l 1
 594 -196 l 1
 345 -196 l 2
 307 -196 274 -189 248 -175 c 0
 228 -165 212 -152 200 -136 c 0
 185 -124 174 -111 166 -95 c 0
 154 -72 146 -48 143 -24 c 0
 141 -4 139 34 139 88 c 1
 138 99 l 2
 138 140 137 207 137 212 c 0
 137 224 132 235 124 245 c 0
 103 262 78 274 64 279 c 2
 36 290 l 1
 13 314 l 1
 40 324 l 2
 41 324 134 362 137 415 c 2
 137 416 l 2
 137 421 138 487 138 528 c 2
 139 539 l 2
 139 593 141 631 143 651 c 0
 146 675 154 699 166 722 c 0
 179 745 198 764 224 778 c 0
 250 792 283 799 321 799 c 2
 570 799 l 1
 594 775 l 1
 594 609 l 1
 582 610 l 2
 579 610 496 611 466 611 c 2
 456 610 l 2
 439 610 436 603 435 600 c 0
 433 594 430 572 430 492 c 2
 430 391 l 2
548 -150 m 1
 548 -29 l 2
 516 -29 433 -29 432 -29 c 0
 404 -29 394 -16 390 -4 c 0
 387 4 384 25 384 111 c 2
 384 212 l 2
 383 265 258 314 258 314 c 1
 258 314 383 372 384 417 c 2
 384 418 l 1
 384 516 l 2
 384 602 387 623 390 631 c 0
 393 641 401 653 421 656 c 2
 421 656 516 657 548 657 c 2
 548 777 l 1
 321 777 l 2
 286 777 257 771 234 759 c 0
 212 747 195 731 185 712 c 0
 174 692 168 671 165 649 c 0
 162 628 161 587 161 528 c 2
 161 517 l 2
 161 478 161 423 160 414 c 2
 160 414 l 1
 158 365 102 330 70 314 c 1
 102 298 158 262 160 213 c 1
 160 213 l 2
 160 204 161 155 161 110 c 1
 161 110 l 1
 161 99 l 2
 161 40 162 0 165 -21 c 0
 168 -43 174 -64 185 -84 c 0
 195 -103 212 -119 234 -131 c 0
 257 -143 286 -150 321 -150 c 2
 548 -150 l 1
EndSplineSet
EndChar

StartChar: bracketleft
Encoding: 91 91 87
Width: 405
VWidth: 0
Flags: HW
HStem: -198 46<36 344> -29 22<304 344> 606 46<304 344> 775 22<34 344>
VStem: 12 22<-151 775> 257 47<-7 606> 344 47<-151 -31 653 773>
LayerCount: 2
Fore
SplineSet
390 606 m 1
 304 606 l 1
 304 -7 l 1
 366 -7 l 1
 390 -31 l 1
 390 -198 l 1
 36 -198 l 1
 12 -174 l 1
 12 797 l 1
 366 797 l 1
 390 773 l 1
 390 606 l 1
344 -151 m 1
 344 -29 l 1
 257 -29 l 1
 257 653 l 1
 344 653 l 1
 344 775 l 1
 34 775 l 1
 34 -151 l 1
 344 -151 l 1
EndSplineSet
EndChar

StartChar: bracketright
Encoding: 93 93 88
Width: 405
VWidth: 0
Flags: HW
HStem: -198 46<35 344> -29 22<34 98> 606 46<35 98> 775 22<34 344>
VStem: 12 22<-152 -29 652 775> 98 22<-7 606> 344 46<-152 773>
LayerCount: 2
Fore
SplineSet
366 797 m 1
 390 773 l 1
 390 -198 l 1
 35 -198 l 1
 12 -174 l 1
 12 -7 l 1
 98 -7 l 1
 98 606 l 1
 35 606 l 1
 12 630 l 1
 12 797 l 1
 366 797 l 1
34 -29 m 1
 34 -152 l 1
 344 -152 l 1
 344 775 l 1
 34 775 l 1
 34 652 l 1
 120 652 l 1
 120 -29 l 1
 34 -29 l 1
EndSplineSet
EndChar

StartChar: quotedblleft
Encoding: 147 8220 89
Width: 449
VWidth: 0
Flags: HW
HStem: 542 46<79 190 268 379> 777 22<36 152 225 341>
LayerCount: 2
Fore
SplineSet
195 775 m 5
 241 542 l 5
 79 542 l 5
 55 566 l 5
 9 799 l 5
 171 799 l 5
 195 775 l 5
36 777 m 5
 74 588 l 5
 190 588 l 5
 152 777 l 5
 36 777 l 5
384 775 m 5
 430 542 l 5
 268 542 l 5
 244 566 l 5
 198 799 l 5
 359 799 l 5
 384 775 l 5
225 777 m 5
 262 588 l 5
 379 588 l 5
 341 777 l 5
 225 777 l 5
EndSplineSet
EndChar

StartChar: exclam
Encoding: 33 33 90
Width: 342
VWidth: 0
Flags: HW
HStem: 0 46<98 217> 151 22<96 217> 191 46<99 218> 765 22<42 271>
VStem: 74 22<46 151> 217 46<46 149 237 252>
LayerCount: 2
Fore
SplineSet
74 173 m 1
 239 173 l 1
 263 149 l 1
 263 0 l 1
 98 0 l 1
 74 24 l 1
 74 173 l 1
96 151 m 1
 96 46 l 1
 217 46 l 1
 217 151 l 1
 96 151 l 1
99 191 m 1
 75 215 l 1
 17 787 l 1
 295 787 l 1
 319 763 l 1
 262 191 l 1
 99 191 l 1
42 765 m 1
 95 237 l 1
 218 237 l 1
 271 765 l 1
 42 765 l 1
EndSplineSet
EndChar

StartChar: exclamdown
Encoding: 161 161 91
Width: 328
VWidth: 0
Flags: HW
HStem: -186 46<31 260> 445 22<85 207> 485 46<87 206> 636 22<86 206>
VStem: 63 22<531 636> 206 46<531 634>
LayerCount: 2
Fore
SplineSet
251 444 m 1
 309 -186 l 1
 31 -186 l 1
 7 -162 l 1
 64 468 l 1
 227 468 l 1
 251 444 l 1
85 445 m 1
 31 -140 l 1
 260 -140 l 1
 207 445 l 1
 85 445 l 1
252 485 m 1
 87 485 l 1
 63 509 l 1
 63 658 l 1
 228 658 l 1
 252 634 l 1
 252 485 l 1
86 636 m 1
 86 531 l 1
 206 531 l 1
 206 636 l 1
 86 636 l 1
EndSplineSet
EndChar

StartChar: dollar
Encoding: 36 36 92
Width: 683
VWidth: 0
Flags: HW
HStem: -130 46<269 388> -1 46<72 245 434 527> 180 22<71 339> 285 46<144 356> 494 22<328 491> 598 46<333 539> 777 22<151 245 434 539> 907 22<267 388>
VStem: 48 22<47 180> 245 22<-84 0 800 907> 276 46<522 587> 362 22<224 278> 388 46<-84 -1 798 905> 539 46<644 774>
LayerCount: 2
Fore
SplineSet
656 285 m 0
 662 219 652 150 628 97 c 0
 614 67 593 43 564 25 c 0
 536 7 501 -1 459 -1 c 2
 459 -1 l 1
 434 -1 l 1
 434 -130 l 1
 269 -130 l 1
 245 -106 l 1
 245 0 l 1
 72 1 l 1
 48 25 l 1
 49 203 l 1
 60 202 l 2
 61 202 166 202 242 202 c 0
 297 202 314 202 318 202 c 0
 319 202 320 202 321 203 c 2
 323 204 l 2
 346 210 362 231 362 255 c 0
 362 264 360 272 356 279 c 0
 349 283 341 284 333 284 c 2
 224 285 l 2
 189 288 160 297 136 312 c 0
 125 319 116 327 107 336 c 2
 107 336 l 1
 84 358 l 1
 84 358 l 2
 69 373 58 390 49 409 c 0
 25 463 16 531 23 597 c 0
 25 611 27 623 30 636 c 0
 35 660 43 683 51 701 c 0
 65 731 86 755 115 773 c 0
 143 791 178 800 220 800 c 2
 245 800 l 1
 245 929 l 1
 410 929 l 1
 434 905 l 1
 434 798 l 1
 561 798 l 1
 585 774 l 1
 585 598 l 1
 376 598 l 2
 347 598 322 574 322 545 c 0
 322 536 324 528 328 521 c 0
 335 518 343 516 351 516 c 0
 351 516 358 516 368 516 c 0
 416 516 503 512 543 486 c 0
 553 480 562 473 570 465 c 2
 570 465 l 1
 572 464 l 2
 572 463 l 2
 596 439 l 2
 596 439 l 2
 596 439 l 1
 596 439 l 2
 610 425 622 408 630 389 c 0
 638 370 645 348 650 324 c 0
 653 311 655 298 656 285 c 0
71 180 m 2
 70 47 l 1
 267 46 l 1
 267 -84 l 1
 388 -84 l 1
 388 45 l 1
 435 45 l 2
 472 45 504 53 529 68 c 0
 554 84 572 105 584 131 c 0
 607 180 616 246 610 307 c 0
 609 320 608 332 605 344 c 0
 600 366 594 387 586 404 c 0
 574 430 556 452 531 468 c 0
 493 492 397 494 368 494 c 0
 358 494 351 494 351 494 c 0
 309 494 276 527 276 569 c 0
 276 610 311 644 352 644 c 2
 539 644 l 1
 539 775 l 1
 388 776 l 1
 388 907 l 1
 267 907 l 1
 267 777 l 1
 220 777 l 2
 183 777 152 769 127 754 c 0
 102 738 83 718 71 692 c 0
 63 675 56 653 51 631 c 0
 48 619 46 607 45 594 c 0
 38 533 47 467 69 418 c 0
 81 392 99 371 124 355 c 0
 145 342 171 333 201 331 c 2
 309 331 l 2
 351 331 384 297 384 255 c 0
 384 222 361 192 329 183 c 0
 326 182 322 180 319 180 c 0
 312 179 287 180 242 180 c 0
 181 180 100 180 71 180 c 2
EndSplineSet
EndChar

StartChar: cent
Encoding: 162 162 93
Width: 458
VWidth: 0
Flags: HW
HStem: -129 46<161 281> 0 46<327 397> 167 22<315 397> 470 46<318 397> 637 22<327 397> 768 22<159 281>
VStem: 21 22<143 540> 137 22<-83 23 647 768> 266 46<193 460> 281 46<-83 0 659 766> 397 46<46 165 516 635>
LayerCount: 2
Fore
SplineSet
318 460 m 4xff60
 316 454 313 433 313 352 c 6
 313 284 l 6xffa0
 313 231 314 203 316 189 c 6
 419 189 l 5
 444 165 l 5
 444 0 l 5
 327 0 l 5
 327 -129 l 5
 161 -129 l 5
 137 -105 l 5
 137 18 l 6
 135 19 132 20 130 21 c 4
 111 31 96 44 84 59 c 4
 69 71 57 85 48 101 c 4
 36 124 28 147 25 172 c 4
 23 190 22 222 21 265 c 4
 21 289 23 494 25 511 c 4
 28 536 36 559 48 582 c 4
 61 605 80 624 106 638 c 4
 115 643 126 648 137 651 c 6
 137 790 l 5
 303 790 l 5
 327 766 l 5
 327 659 l 5
 419 659 l 5
 444 635 l 5
 444 470 l 5
 339 470 l 6
 321 470 319 463 318 460 c 4xff60
397 46 m 5
 397 46 l 5
 397 167 l 5
 315 167 l 6
 287 167 277 180 273 192 c 4
 270 200 266 222 266 308 c 6
 266 375 l 6xffa0
 266 461 270 483 273 491 c 4
 277 503 287 516 315 516 c 6
 397 516 l 5
 397 637 l 5
 281 637 l 5
 281 768 l 5
 159 768 l 5
 159 633 l 5
 151 631 l 6
 138 628 127 624 117 619 c 4
 95 607 77 591 67 572 c 4
 56 552 50 530 47 508 c 4
 46 496 44 356 43 265 c 4
 44 223 45 192 47 175 c 4
 50 153 56 131 67 111 c 4
 77 92 95 76 117 64 c 4
 127 59 138 55 151 52 c 6
 159 50 l 5
 159 -83 l 5
 281 -83 l 5
 281 46 l 5xff60
 397 46 l 5
EndSplineSet
EndChar

StartChar: sterling
Encoding: 163 163 94
Width: 552
VWidth: 0
Flags: HW
HStem: 0 46<42 485> 167 22<40 76 367 485> 310 46<42 76 367 485> 472 22<40 76 367 485> 598 46<372 485> 765 22<187 485>
VStem: 18 22<46 167 356 472> 76 22<189 310 494 667> 321 46<189 310 494 598> 485 46<46 165 356 470 644 763>
LayerCount: 2
Fore
SplineSet
531 310 m 5
 367 310 l 5
 367 189 l 5
 508 189 l 5
 531 165 l 5
 531 0 l 5
 42 0 l 5
 18 24 l 5
 18 189 l 5
 76 189 l 5
 76 310 l 5
 42 310 l 5
 18 334 l 5
 18 494 l 5
 76 494 l 5
 76 527 l 6
 76 581 78 619 80 639 c 4
 83 663 91 687 103 710 c 4
 116 733 135 752 161 766 c 4
 187 780 219 787 258 787 c 6
 508 787 l 5
 531 763 l 5
 531 597 l 5
 520 598 l 6
 517 598 435 598 404 598 c 6
 393 598 l 6
 376 598 373 591 372 588 c 4
 370 582 367 563 367 494 c 5
 508 494 l 5
 531 470 l 5
 531 310 l 5
485 46 m 5
 485 167 l 5
 321 167 l 5
 321 356 l 5
 485 356 l 5
 485 472 l 5
 321 472 l 5
 321 504 l 6
 321 590 324 611 327 619 c 4
 330 629 338 640 358 643 c 6
 369 644 l 6
 370 644 453 644 485 644 c 6
 485 765 l 5
 258 765 l 6
 223 765 195 759 172 747 c 4
 150 735 132 718 122 699 c 4
 111 679 105 658 102 636 c 4
 99 615 98 575 98 516 c 6
 98 472 l 5
 40 472 l 5
 40 356 l 5
 98 356 l 5
 98 167 l 5
 40 167 l 5
 40 46 l 5
 485 46 l 5
EndSplineSet
EndChar

StartChar: currency
Encoding: 164 164 95
Width: 807
VWidth: 0
Flags: HW
HStem: 0 21G<140 180 653 693> 0 21G<140 180 653 693> 63 46<236 579> 225 22<394 412> 516 46<397 416> 678 22<216 569>
VStem: 113 22<228 567> 345 46<250 516> 417 22<250 515> 650 46<215 536>
LayerCount: 2
Fore
SplineSet
393 225 m 2x3fc0
 366 225 356 239 352 250 c 0
 349 258 345 278 345 361 c 2
 345 426 l 2
 345 509 349 530 352 538 c 0
 356 549 365 562 392 562 c 0
 420 562 430 549 434 538 c 0
 437 530 440 509 440 426 c 2
 440 361 l 2
 440 278 437 258 434 250 c 0
 430 239 420 225 393 225 c 2
 393 225 l 2x3fc0
418 361 m 2
 418 426 l 2
 418 475 416 502 415 516 c 0
 400 516 398 510 397 507 c 0
 395 501 392 480 392 402 c 2
 392 337 l 2
 392 288 393 261 394 247 c 0
 409 247 412 254 413 257 c 0
 415 263 418 283 418 361 c 2
697 207 m 0
 697 206 696 204 696 203 c 2
 786 113 l 1
 673 0 l 1
 649 24 l 1
 649 24 l 1
 598 75 l 2
 577 67 552 63 524 63 c 2
 309 63 l 2
 281 63 256 67 235 75 c 2
 160 0 l 1xbfc0
 136 24 l 1
 136 24 l 1
 23 137 l 1
 113 228 l 2
 113 229 113 230 113 231 c 0
 111 249 111 539 113 557 c 0
 113 558 113 559 113 560 c 2
 23 650 l 1
 136 763 l 1
 160 739 l 1
 160 739 l 1
 211 688 l 2
 232 696 257 700 285 700 c 2
 500 700 l 2
 528 700 553 696 574 688 c 2
 649 763 l 1
 673 739 l 1
 673 739 l 1
 786 626 l 1
 696 536 l 2
 696 535 697 534 697 533 c 0
 699 515 699 225 697 207 c 0
137 220 m 1
 54 137 l 1
 136 56 l 1
 206 125 l 1
 212 122 l 2
 232 114 257 110 285 110 c 2
 500 110 l 2
 528 110 553 114 573 122 c 2
 580 125 l 1
 649 56 l 1
 731 137 l 1
 648 220 l 1
 649 229 l 2
 649 231 650 231 650 233 c 0
 652 250 652 538 650 554 c 0
 650 556 649 557 649 559 c 2
 648 567 l 1
 731 650 l 1
 649 732 l 1
 580 662 l 1
 573 665 l 2
 553 673 528 678 500 678 c 2
 285 678 l 2
 257 678 232 673 212 665 c 2
 206 662 l 1
 136 732 l 1
 54 650 l 1
 137 567 l 1
 136 559 l 2
 136 557 135 556 135 554 c 0
 133 538 133 250 135 233 c 0
 135 231 136 231 136 229 c 2
 137 220 l 1
603 178 m 1025
EndSplineSet
EndChar

StartChar: ordmasculine
Encoding: 186 186 96
Width: 347
VWidth: 0
Flags: HW
HStem: 435 46<99 244> 573 113<128 197> 777 22<99 226>
VStem: 124 76<576 683>
LayerCount: 2
Fore
SplineSet
162 686 m 0
 183 686 200 669 200 648 c 2
 200 611 l 2
 200 590 183 573 162 573 c 0
 141 573 124 590 124 611 c 2
 124 648 l 2
 124 669 141 686 162 686 c 0
337 632 m 0
 339 614 339 597 337 579 c 0
 335 556 328 532 319 510 c 0
 309 487 294 470 273 456 c 0
 252 442 227 435 196 435 c 2
 178 435 l 2
 147 435 122 442 101 456 c 0
 96 459 91 462 87 466 c 2
 87 466 l 1
 87 466 l 2
 83 469 80 472 77 476 c 2
 62 491 l 2
 59 494 56 497 53 500 c 2
 52 501 l 1
 52 500 l 2
 43 510 36 522 30 535 c 0
 21 557 14 580 12 603 c 0
 10 621 10 638 12 656 c 0
 14 679 21 702 30 724 c 0
 40 747 55 765 76 779 c 0
 97 793 123 799 154 799 c 2
 171 799 l 2
 202 799 228 793 249 779 c 0
 256 774 263 768 269 762 c 2
 269 762 l 1
 292 739 l 1
 292 739 l 2
 303 728 312 715 319 700 c 0
 328 678 335 655 337 632 c 0
290 605 m 0
 292 621 292 638 290 654 c 0
 288 675 283 695 274 715 c 0
 266 734 254 749 237 760 c 0
 220 771 197 777 171 777 c 2
 154 777 l 2
 128 777 105 771 88 760 c 0
 71 749 59 734 51 715 c 0
 42 695 37 675 35 654 c 0
 33 638 33 621 35 605 c 0
 37 584 42 563 51 543 c 0
 59 524 71 509 88 498 c 0
 105 487 128 481 154 481 c 2
 171 481 l 2
 197 481 220 487 237 498 c 0
 254 509 266 524 274 543 c 0
 283 563 288 584 290 605 c 0
EndSplineSet
EndChar

StartChar: equal
Encoding: 61 61 97
Width: 457
VWidth: 0
Flags: HW
HStem: 303 41<41 396> 448 20<39 396> 491 41<41 396> 637 20<39 396>
VStem: 19 20<344 448 532 637> 396 41<344 447 532 635>
LayerCount: 2
Fore
SplineSet
416 656 m 1
 438 635 l 1
 438 491 l 1
 41 491 l 1
 19 513 l 1
 19 656 l 1
 416 656 l 1
39 637 m 1
 39 532 l 1
 396 532 l 1
 396 637 l 1
 39 637 l 1
416 468 m 1
 438 447 l 1
 438 303 l 1
 41 303 l 1
 19 324 l 1
 19 468 l 1
 416 468 l 1
39 448 m 1
 39 344 l 1
 396 344 l 1
 396 448 l 1
 39 448 l 1
EndSplineSet
EndChar

StartChar: question
Encoding: 63 63 98
Width: 654
VWidth: 0
Flags: HW
HStem: 0 46<57 283> 149 22<55 283> 188 46<57 283> 315 46<333 513> 454 22<139 350> 622 46<57 352> 761 22<55 490>
VStem: 33 22<46 149 234 369 668 761> 283 47<46 148 234 315> 354 22<486 621> 573 47<422 681>
LayerCount: 2
Fore
SplineSet
33 172 m 1
 305 172 l 1
 330 148 l 1
 330 0 l 1
 57 0 l 1
 33 24 l 1
 33 172 l 1
55 149 m 1
 55 46 l 1
 283 46 l 1
 283 149 l 1
 55 149 l 1
619 535 m 0
 619 524 619 512 619 503 c 0
 619 490 620 471 618 458 c 0
 615 434 608 412 596 390 c 0
 584 367 564 349 539 335 c 0
 514 322 483 315 446 315 c 2
 395 315 l 2
 393 315 389 315 384 315 c 0
 371 315 353 315 347 315 c 0
 343 315 335 314 333 307 c 0
 332 301 330 247 329 199 c 2
 329 188 l 1
 57 188 l 1
 33 212 l 1
 33 289 l 2
 33 302 33 320 35 333 c 0
 38 357 45 380 57 402 c 0
 69 425 88 442 113 456 c 0
 138 469 169 476 206 476 c 2
 330 476 l 2
 347 476 349 484 350 486 c 0
 351 490 353 502 354 541 c 0
 354 547 354 575 354 581 c 0
 354 601 353 613 352 622 c 2
 57 622 l 1
 33 646 l 1
 33 783 l 1
 421 783 l 2
 458 783 490 776 515 763 c 0
 534 753 549 740 561 725 c 0
 576 714 588 700 596 684 c 0
 608 662 615 640 618 616 c 0
 620 603 620 584 620 571 c 0
 620 562 619 548 619 535 c 0
57 330 m 0
 56 318 55 301 55 289 c 2
 55 234 l 1
 283 234 l 1
 284 280 285 331 287 337 c 0
 291 351 304 361 321 362 c 0
 327 362 347 362 360 362 c 0
 365 362 369 362 371 362 c 2
 421 362 l 2
 455 362 483 367 505 379 c 0
 526 390 542 405 552 424 c 0
 562 443 568 464 571 485 c 0
 572 497 573 515 573 527 c 0
 573 536 573 548 573 559 c 0
 573 572 573 585 573 595 c 0
 573 608 572 625 571 637 c 0
 568 658 562 679 552 698 c 0
 542 717 526 732 505 743 c 0
 483 755 455 761 421 761 c 2
 55 761 l 1
 55 668 l 1
 329 668 l 2
 358 668 368 655 371 643 c 0
 373 637 375 625 376 582 c 0
 376 576 376 546 376 540 c 0
 375 497 373 486 371 480 c 0
 368 469 358 455 331 454 c 2
 206 454 l 2
 173 454 145 447 124 436 c 0
 103 425 86 410 76 391 c 0
 66 372 60 351 57 330 c 0
EndSplineSet
EndChar

StartChar: questiondown
Encoding: 191 191 99
Width: 624
VWidth: 0
Flags: HW
HStem: -185 46<118 558> -46 22<285 558> 122 46<288 498> 260 22<124 305> 449 22<330 558> 488 46<332 558> 637 22<330 558>
VStem: 18 22<-54 175> 237 46<-20 112> 308 22<286 449 534 637> 558 46<-139 -48 229 448 534 635>
LayerCount: 2
Fore
SplineSet
580 659 m 1
 604 635 l 1
 604 488 l 1
 332 488 l 1
 308 512 l 1
 308 659 l 1
 580 659 l 1
330 637 m 1
 330 534 l 1
 558 534 l 1
 558 637 l 1
 330 637 l 1
580 472 m 1
 604 448 l 1
 604 309 l 2
 604 296 605 278 603 265 c 0
 600 241 593 218 581 196 c 0
 569 173 549 156 524 142 c 0
 499 129 469 122 432 122 c 2
 307 122 l 2
 290 122 289 114 288 112 c 0
 287 108 285 96 284 57 c 0
 284 51 284 23 284 17 c 0
 284 -3 285 -15 286 -24 c 2
 580 -24 l 1
 604 -48 l 1
 604 -185 l 1
 216 -185 l 2
 179 -185 147 -178 122 -165 c 0
 110 -159 100 -151 91 -142 c 2
 91 -142 l 1
 90 -142 l 2
 89 -141 89 -141 88 -140 c 2
 66 -118 l 2
 65 -117 64 -116 63 -115 c 2
 61 -113 l 1
 61 -113 l 2
 53 -105 47 -96 42 -86 c 0
 30 -64 23 -42 20 -18 c 0
 18 -5 18 14 18 27 c 0
 18 36 18 50 18 63 c 0
 18 74 18 86 18 95 c 0
 18 108 18 126 20 139 c 0
 23 163 30 186 42 208 c 0
 54 231 73 248 98 262 c 0
 123 275 155 283 192 283 c 2
 242 283 l 2
 244 283 248 282 253 282 c 0
 266 282 284 282 290 282 c 0
 294 282 303 284 305 291 c 0
 306 299 307 399 308 460 c 2
 309 471 l 1
 580 472 l 1
558 -139 m 1
 558 -139 l 1
 558 -46 l 1
 284 -46 l 2
 255 -46 245 -33 242 -21 c 0
 240 -15 238 -3 237 40 c 0
 237 46 237 76 237 82 c 0
 238 125 240 136 242 142 c 0
 245 153 256 167 283 168 c 2
 407 168 l 2
 440 168 469 174 490 185 c 0
 511 196 527 212 537 231 c 0
 547 250 553 271 556 292 c 0
 557 304 558 321 558 333 c 2
 558 343 l 1
 558 449 l 1
 330 449 l 1
 329 345 327 290 326 285 c 0
 322 271 309 261 292 260 c 0
 286 260 266 260 253 260 c 0
 248 260 244 260 242 260 c 2
 192 260 l 2
 158 260 131 255 109 243 c 0
 88 232 71 217 61 198 c 0
 51 179 45 158 42 137 c 0
 41 125 40 107 40 95 c 0
 40 86 40 74 40 63 c 0
 40 50 40 37 40 27 c 0
 40 14 41 -3 42 -15 c 0
 45 -36 51 -57 61 -76 c 0
 71 -95 88 -110 109 -121 c 0
 131 -133 158 -139 192 -139 c 2
 558 -139 l 1
EndSplineSet
EndChar

StartChar: degree
Encoding: 176 176 100
Width: 400
VWidth: 0
Flags: HW
HStem: 437 47<129 262> 533 22<148 225> 681 47<159 248> 777 22<133 240>
VStem: 18 22<577 685> 89 47<569 658> 262 22<592 669> 333 47<555 688>
LayerCount: 2
Fore
SplineSet
186 533 m 0
 132 533 89 577 89 631 c 0
 89 685 132 728 186 728 c 0
 240 728 284 685 284 631 c 0
 284 577 240 533 186 533 c 0
186 556 m 0
 227 556 262 590 262 631 c 0
 262 645 258 658 251 669 c 0
 240 676 226 681 211 681 c 0
 170 681 136 647 136 606 c 0
 136 592 140 578 147 567 c 0
 159 560 171 556 186 556 c 0
329 725 m 2
 360 694 380 653 380 606 c 0
 380 513 304 437 211 437 c 0
 163 437 121 457 90 489 c 2
 90 489 l 1
 73 507 l 1
 73 507 l 2
 39 538 18 582 18 631 c 0
 18 724 93 799 186 799 c 0
 235 799 279 778 310 745 c 2
 310 745 l 1
 329 725 l 1
 329 725 l 2
186 777 m 0
 105 777 40 712 40 631 c 0
 40 550 105 484 186 484 c 0
 267 484 333 550 333 631 c 0
 333 712 267 777 186 777 c 0
EndSplineSet
EndChar

StartChar: paragraph
Encoding: 182 182 101
Width: 871
VWidth: 0
Flags: HW
HStem: 0 46<236 461 570 800> 324 46<124 212> 597 46<508 546> 769 22<129 800>
VStem: 26 22<452 688> 212 22<47 324> 461 46<46 597> 546 22<46 597> 800 46<46 767>
LayerCount: 2
Fore
SplineSet
822 791 m 5
 846 767 l 5
 846 0 l 5
 570 0 l 5
 546 24 l 5
 546 597 l 5
 508 597 l 5
 508 -0 l 5
 236 0 l 5
 212 24 l 5
 212 324 l 6
 179 325 151 332 128 344 c 4
 114 352 101 361 91 372 c 6
 91 372 l 5
 72 391 l 5
 72 391 l 6
 62 400 54 410 48 422 c 4
 36 444 29 467 26 491 c 4
 24 504 24 635 26 648 c 4
 29 672 36 695 48 717 c 4
 60 740 79 757 104 771 c 4
 129 784 161 791 198 791 c 6
 822 791 l 5
48 646 m 4
 47 634 47 506 48 494 c 4
 51 473 57 452 67 433 c 4
 77 414 94 399 115 388 c 4
 137 376 164 370 198 370 c 6
 234 370 l 5
 234 47 l 5
 461 46 l 5
 461 643 l 5
 569 643 l 5
 569 46 l 5
 800 46 l 5
 800 769 l 5
 198 769 l 6
 164 769 136 764 114 752 c 4
 93 741 77 725 67 706 c 4
 57 687 51 667 48 646 c 4
EndSplineSet
EndChar

StartChar: periodcentered
Encoding: 183 183 102
Width: 307
VWidth: 0
Flags: HW
HStem: 375 46<93 204> 636 22<93 187>
VStem: 10 22<482 576> 248 47<464 577>
LayerCount: 2
Fore
SplineSet
253 599 m 2
 278 575 294 542 294 505 c 0
 294 433 236 375 164 375 c 0
 130 375 100 388 77 409 c 2
 77 409 l 1
 75 411 l 2
 74 412 74 412 73 413 c 2
 51 434 l 1
 51 434 l 2
 26 458 10 491 10 528 c 0
 10 600 68 658 140 658 c 0
 177 658 210 643 234 618 c 2
 234 618 l 1
 253 599 l 1
 253 599 l 2
140 636 m 0
 81 636 32 587 32 528 c 0
 32 469 81 421 140 421 c 0
 199 421 248 469 248 528 c 0
 248 587 199 636 140 636 c 0
EndSplineSet
EndChar

StartChar: asciitilde
Encoding: 126 126 103
Width: 351
VWidth: 0
Flags: HW
HStem: 470 41<163 292> 496 41<57 189> 589 20<182 277> 617 20<60 156>
VStem: 15 20<520 593> 293 42<516 605>
LayerCount: 2
Fore
SplineSet
334 636 m 1x7c
 335 487 l 1
 329 484 l 2
 328 483 295 470 252 470 c 0xbc
 227 470 204 475 182 484 c 0
 164 492 144 496 126 496 c 0
 81 496 53 472 53 472 c 2
 37 459 l 1
 15 480 l 1
 15 602 l 1
 18 605 l 2
 19 606 52 637 106 637 c 0
 126 637 147 633 168 624 c 0
 192 614 214 609 234 609 c 0
 277 609 294 632 295 633 c 2
 313 657 l 1
 334 636 l 1x7c
35 593 m 2
 35 593 l 1
 35 520 l 2
 50 528 74 537 105 537 c 0x7c
 126 537 147 533 168 524 c 0
 187 516 208 511 231 511 c 0
 259 511 282 518 293 522 c 2
 293 605 l 2
 281 597 261 589 234 589 c 0
 211 589 187 595 160 606 c 0
 142 614 124 617 106 617 c 0
 68 617 43 600 35 593 c 2
EndSplineSet
EndChar

StartChar: numbersign
Encoding: 35 35 104
Width: 816
VWidth: 0
Flags: HW
HStem: 0 46<54 283 385 614> 152 46<40 49 351 380 682 742> 328 22<39 82 384 413 715 742> 432 46<40 96 398 427 728 742> 608 22<39 129 431 460> 760 22<173 402 504 733>
VStem: 16 22<198 328 478 608> 742 46<198 327 478 607>
LayerCount: 2
Fore
SplineSet
330 328 m 1
 355 478 l 1
 457 478 l 1
 432 328 l 1
 330 328 l 1
384 351 m 1
 413 351 l 1
 427 432 l 1
 398 432 l 1
 384 351 l 1
789 432 m 1
 789 432 l 1
 728 432 l 1
 715 351 l 1
 765 351 l 1
 789 327 l 1
 789 152 l 1
 682 152 l 1
 656 0 l 1
 382 0 l 1
 358 24 l 1
 380 152 l 1
 351 152 l 1
 326 0 l 1
 52 0 l 1
 28 24 l 1
 49 152 l 1
 40 152 l 1
 16 176 l 1
 16 351 l 1
 82 351 l 1
 96 432 l 1
 40 432 l 1
 16 456 l 1
 16 630 l 1
 129 630 l 1
 154 783 l 1
 428 783 l 1
 452 759 l 1
 431 630 l 1
 460 630 l 1
 485 783 l 1
 759 783 l 1
 783 759 l 1
 761 630 l 1
 765 630 l 1
 789 607 l 1
 789 432 l 1
742 198 m 1
 742 328 l 1
 661 328 l 1
 686 478 l 1
 742 478 l 1
 742 608 l 1
 707 608 l 1
 733 760 l 1
 504 760 l 1
 478 608 l 1
 377 608 l 1
 402 760 l 1
 173 760 l 1
 148 608 l 1
 39 608 l 1
 39 478 l 1
 126 478 l 1
 101 328 l 1
 39 328 l 1
 39 198 l 1
 79 198 l 1
 54 46 l 1
 283 46 l 1
 308 198 l 1
 410 198 l 1
 385 46 l 1
 614 46 l 1
 639 198 l 1
 742 198 l 1
EndSplineSet
EndChar

StartChar: asciicircum
Encoding: 94 94 105
Width: 514
VWidth: 0
Flags: HW
HStem: 439 46<41 156 334 440> 777 22<139 343>
LayerCount: 2
Fore
SplineSet
383 775 m 1
 495 439 l 1
 334 439 l 1
 310 463 l 1
 257 621 l 1
 196 439 l 1
 34 439 l 1
 10 463 l 1
 123 799 l 1
 359 799 l 1
 383 775 l 1
241 738 m 1
 326 485 l 1
 440 485 l 1
 343 777 l 1
 139 777 l 1
 41 485 l 1
 156 485 l 1
 241 738 l 1
EndSplineSet
EndChar

StartChar: braceright
Encoding: 125 125 106
Width: 607
VWidth: 0
Flags: HW
HStem: -196 46<35 354> -29 22<34 171> 610 46<36 162> 777 22<34 332>
VStem: 12 22<-150 -29 657 777> 176 22<3 239 389 610> 422 46<-81 229 414 689>
LayerCount: 2
Fore
SplineSet
570 314 m 5
 593 290 l 5
 566 279 l 6
 565 279 470 242 468 188 c 6
 468 187 l 6
 468 182 467 116 467 75 c 6
 467 64 l 6
 467 10 465 -28 463 -48 c 4
 460 -72 452 -96 440 -119 c 4
 427 -142 408 -161 382 -175 c 4
 356 -189 323 -196 285 -196 c 6
 35 -196 l 5
 12 -172 l 5
 12 -6 l 5
 24 -7 l 6
 28 -7 143 -7 151 -7 c 4
 168 -7 170 0 171 3 c 4
 173 9 176 31 176 111 c 6
 177 213 l 6
 178 258 227 290 263 308 c 5
 249 316 236 327 225 339 c 6
 225 339 l 5
 206 358 l 5
 206 358 l 6
 189 375 176 394 176 417 c 6
 176 516 l 6
 176 568 176 595 174 610 c 6
 163 611 l 6
 132 611 51 610 47 610 c 6
 36 610 l 5
 12 634 l 5
 12 645 l 5
 12 799 l 5
 262 799 l 6
 301 799 333 792 359 778 c 4
 371 771 382 764 391 755 c 6
 391 755 l 5
 392 755 l 6
 394 753 396 751 398 749 c 6
 420 726 l 5
 420 726 l 6
 428 718 435 708 440 698 c 4
 452 675 460 651 463 627 c 4
 465 607 467 570 467 516 c 5
 467 516 l 5
 467 504 l 6
 467 463 468 396 468 391 c 4
 469 380 474 370 481 360 c 4
 509 338 542 324 543 324 c 6
 570 314 l 5
34 -29 m 6
 34 -150 l 5
 262 -150 l 6
 297 -150 325 -143 348 -131 c 4
 370 -119 387 -103 397 -84 c 4
 408 -64 415 -43 418 -21 c 4
 421 0 422 40 422 99 c 6
 422 110 l 6
 422 155 423 204 423 213 c 6
 423 213 l 5
 425 262 480 298 512 314 c 5
 480 330 425 365 423 414 c 5
 423 414 l 6
 422 423 422 478 422 517 c 5
 422 528 l 6
 422 587 421 628 418 649 c 4
 415 671 408 692 397 712 c 4
 387 731 370 747 348 759 c 4
 325 771 297 777 262 777 c 6
 34 777 l 5
 34 657 l 6
 66 657 162 656 162 656 c 6
 182 653 189 641 192 631 c 4
 195 623 199 602 199 516 c 6
 199 417 l 6
 199 372 277 334 307 324 c 6
 337 314 l 5
 307 303 l 6
 277 293 200 256 199 211 c 6
 199 210 l 5
 199 111 l 6
 199 25 195 4 192 -4 c 4
 188 -16 179 -29 151 -29 c 4
 150 -29 66 -29 34 -29 c 6
EndSplineSet
EndChar

StartChar: underscore
Encoding: 95 95 107
Width: 637
VWidth: 0
Flags: HW
HStem: 0 46<42 571> 168 22<40 571>
VStem: 18 22<46 168> 571 46<46 166>
LayerCount: 2
Fore
SplineSet
593 190 m 1
 617 166 l 1
 617 0 l 1
 42 0 l 1
 18 24 l 1
 18 190 l 1
 593 190 l 1
40 168 m 1
 40 46 l 1
 571 46 l 1
 571 168 l 1
 40 168 l 1
EndSplineSet
EndChar

StartChar: germandbls
Encoding: 223 223 108
Width: 882
VWidth: 0
Flags: HW
HStem: 0 47<60 291 393 756> 149 22<391 627> 210 47<435 628 628 635> 353 22<561 735> 420 47<563 670> 563 22<437 546> 601 47<342 548> 774 22<153 224 225 649>
VStem: 36 22<47 671> 291 47<47 590> 368 22<47 149> 514 47<376 417> 635 22<180 210>
LayerCount: 2
Fore
SplineSet
853 206 m 4
 858 159 850 108 831 70 c 4
 821 49 804 32 782 19 c 4
 760 6 732 0 699 0 c 6
 393 0 l 5
 368 25 l 5
 368 172 l 5
 379 172 l 5
 379 172 603 172 604 172 c 4
 621 172 635 186 635 203 c 4
 635 205 635 208 635 210 c 4
 633 210 630 210 628 210 c 5
 628 210 531 210 523 210 c 4
 490 210 462 216 440 229 c 4
 429 235 420 243 412 251 c 6
 412 251 l 5
 411 251 l 6
 411 251 l 6
 391 272 l 5
 391 272 l 6
 381 282 373 293 367 305 c 4
 348 343 340 393 345 440 c 4
 346 450 348 460 350 469 c 4
 354 486 360 502 367 515 c 4
 377 536 394 553 416 566 c 4
 435 577 459 584 487 585 c 6
 489 585 l 6
 492 585 495 585 499 585 c 6
 518 585 l 6
 541 585 547 593 549 600 c 5
 547 600 546 601 544 601 c 6
 364 601 l 6
 346 601 343 593 342 590 c 4
 340 582 337 557 337 478 c 6
 337 -0 l 5
 60 -0 l 5
 36 25 l 5
 36 515 l 6
 36 577 37 619 40 642 c 4
 43 667 51 692 64 716 c 4
 77 740 97 760 124 774 c 4
 151 788 184 796 224 796 c 6
 224 796 572 796 575 796 c 4
 606 796 641 794 672 776 c 4
 683 770 692 762 700 754 c 6
 700 754 l 5
 721 733 l 5
 721 733 l 6
 731 723 739 713 745 701 c 4
 752 688 758 671 762 654 c 4
 764 645 766 636 767 626 c 4
 772 579 764 528 745 490 c 4
 735 469 718 452 696 439 c 4
 674 426 646 420 613 420 c 6
 594 420 l 6
 575 420 560 404 560 385 c 4
 560 382 560 380 561 377 c 4
 564 376 567 375 570 375 c 6
 591 375 l 6
 617 375 657 376 661 376 c 4
 692 376 727 374 758 356 c 4
 774 347 787 336 797 322 c 4
 812 311 823 297 831 281 c 4
 838 268 844 251 848 234 c 4
 850 225 852 216 853 206 c 4
391 149 m 5
 391 47 l 5
 675 47 l 6
 704 47 728 52 747 63 c 4
 765 73 779 87 787 104 c 4
 804 138 811 185 806 228 c 4
 805 237 804 245 802 253 c 4
 798 269 793 283 787 295 c 4
 779 312 765 327 747 337 c 4
 720 352 689 353 661 353 c 4
 657 353 617 353 591 353 c 6
 570 353 l 6
 539 353 514 379 514 410 c 4
 514 442 539 467 570 467 c 6
 589 467 l 6
 618 467 642 472 661 483 c 4
 679 493 693 508 701 525 c 4
 718 559 725 605 720 648 c 4
 719 657 718 665 716 673 c 4
 712 689 707 703 701 715 c 4
 693 732 679 747 661 757 c 4
 634 772 603 774 575 774 c 4
 572 774 224 773 224 773 c 6
 188 773 157 768 134 755 c 4
 111 743 94 726 83 706 c 4
 72 685 65 663 62 640 c 4
 59 618 58 576 58 515 c 6
 58 47 l 5
 291 47 l 5
 290 502 l 6
 290 591 294 613 297 622 c 4
 301 634 311 648 340 648 c 6
 520 648 l 6
 565 647 571 621 571 606 c 4
 571 579 552 563 518 563 c 6
 499 563 l 6
 496 563 492 563 489 563 c 6
 488 563 l 6
 464 562 443 556 427 547 c 4
 409 537 395 522 387 505 c 4
 381 493 376 479 372 463 c 4
 370 455 368 447 367 438 c 4
 362 395 370 348 387 314 c 4
 395 297 409 283 427 273 c 4
 446 262 470 257 499 257 c 4
 507 257 604 257 604 257 c 6
 634 257 658 233 658 203 c 4
 658 173 634 150 604 150 c 4
 603 150 436 149 391 149 c 5
EndSplineSet
EndChar

StartChar: OE
Encoding: 140 338 109
Width: 870
VWidth: 0
Flags: HW
HStem: 0 46<125 800> 173 22<313 340 637 800> 364 46<637 800> 537 22<637 800> 599 46<316 340 637 800> 772 22<131 800>
VStem: 17 22<145 674> 265 46<194 604> 340 22<190 604> 590 46<195 364 559 599> 800 46<46 171 410 535 646 771>
LayerCount: 2
Fore
SplineSet
271 625 m 0
 275 637 285 650 313 650 c 2
 362 650 l 1
 362 168 l 1
 313 168 l 2
 285 168 275 182 271 194 c 0
 268 202 265 223 265 310 c 2
 265 509 l 2
 265 596 268 617 271 625 c 0
314 190 m 2
 340 190 l 1
 340 604 l 1
 337 604 l 2
 319 604 317 597 316 594 c 0
 314 588 311 566 311 485 c 2
 311 286 l 2
 311 233 312 205 314 190 c 2
846 599 m 1
 637 599 l 1
 637 559 l 1
 822 559 l 1
 846 535 l 1
 846 364 l 1
 637 364 l 1
 637 195 l 1
 822 195 l 1
 846 171 l 1
 846 0 l 1
 225 0 l 2
 186 0 153 7 127 21 c 0
 114 28 103 36 93 45 c 2
 93 45 l 1
 93 45 l 2
 92 47 l 2
 66 72 l 1
 66 72 l 2
 57 81 50 91 44 102 c 0
 32 125 24 148 21 173 c 0
 18 195 17 238 17 298 c 2
 17 521 l 2
 17 581 18 623 21 645 c 0
 24 670 32 694 44 717 c 0
 57 741 77 760 103 774 c 0
 129 788 162 795 201 795 c 2
 822 795 l 1
 846 771 l 1
 846 599 l 1
800 410 m 1
 800 537 l 1
 590 537 l 1
 590 646 l 1
 800 646 l 1
 800 772 l 1
 201 772 l 2
 166 772 137 766 114 754 c 0
 92 742 75 726 64 706 c 0
 53 686 46 665 43 643 c 0
 40 622 39 581 39 521 c 2
 39 298 l 2
 39 238 40 197 43 176 c 0
 46 154 53 132 64 112 c 0
 75 92 92 77 114 65 c 0
 137 53 166 46 201 46 c 2
 800 46 l 1
 800 173 l 1
 590 173 l 1
 590 410 l 1
 800 410 l 1
EndSplineSet
EndChar

StartChar: trademark
Encoding: 153 8482 110
Width: 813
VWidth: 0
Flags: HW
HStem: 439 46<117 236 363 473 558 606 691 738> 628 46<46 93 282 308> 636 46<519 532> 777 22<44 308 362 518 633 701>
VStem: 22 22<674 777> 93 22<485 628> 236 46<485 628> 308 53<674 777> 339 22<485 628> 473 78<569 681> 473 46<485 636> 534 22<485 635> 606 46<485 629> 667 22<485 635> 738 46<485 741>
LayerCount: 2
Fore
SplineSet
782 697 m 0xdebe
 783 688 784 674 784 654 c 2
 784 439 l 1
 691 439 l 1
 667 463 l 1
 667 565 l 2
 667 601 666 623 665 636 c 1
 657 635 656 631 656 629 c 0
 655 624 652 605 652 536 c 2
 652 439 l 1
 558 439 l 1
 534 463 l 1
 534 565 l 2
 534 601 533 623 532 636 c 2
 519 636 l 1xbebe
 519 439 l 1
 363 439 l 1
 339 463 l 1
 339 628 l 1
 282 628 l 1
 282 439 l 1
 117 439 l 1
 93 463 l 1
 93 628 l 1
 46 628 l 1
 22 652 l 1
 22 799 l 1
 499 799 l 2
 504 799 510 799 516 799 c 2
 518 798 l 2
 536 795 554 790 571 781 c 0
 578 777 585 772 591 766 c 0
 597 772 604 777 611 781 c 0
 624 788 641 793 656 795 c 0
 686 800 718 788 738 765 c 2
 738 766 l 1
 757 747 l 1
 757 747 l 2
 761 743 765 739 768 734 c 0
 776 723 780 711 782 697 c 0xdebe
515 776 m 0
 510 776 503 777 498 777 c 2
 362 777 l 1xbf1e
 362 485 l 1
 473 485 l 1
 473 682 l 1xbeae
 515 682 l 2
 540 682 548 668 551 660 c 0xbe4e
 553 653 556 636 556 565 c 2
 556 485 l 1
 606 485 l 1
 606 560 l 2
 606 634 608 652 610 659 c 0
 612 668 621 682 648 682 c 0
 673 682 681 668 684 660 c 0
 686 653 689 636 689 565 c 2
 689 485 l 1
 738 485 l 1
 738 678 l 2
 738 697 737 710 736 718 c 0
 735 728 732 737 726 745 c 0
 712 766 684 777 659 773 c 0
 646 771 632 767 621 761 c 0
 613 757 606 750 599 743 c 2
 591 734 l 1
 582 743 l 2
 575 750 568 757 560 761 c 0
 546 769 531 773 515 776 c 0
44 777 m 1
 44 777 l 1
 44 674 l 1
 116 674 l 1
 116 485 l 1
 236 485 l 1
 236 674 l 1
 308 674 l 1xdf0e
 308 777 l 1
 44 777 l 1
EndSplineSet
EndChar

StartChar: dagger
Encoding: 134 8224 111
Width: 406
VWidth: 0
Flags: HW
HStem: 317 46<133 251> 569 46<38 109 298 347> 689 22<36 109 298 347> 777 22<131 251>
VStem: 14 22<615 689> 109 22<363 569 711 777> 251 46<363 569 711 775> 347 46<615 687>
LayerCount: 2
Fore
SplineSet
369 711 m 5
 393 687 l 5
 393 569 l 5
 298 569 l 5
 298 317 l 5
 133 317 l 5
 109 341 l 5
 109 569 l 5
 38 569 l 5
 14 593 l 5
 14 711 l 5
 109 711 l 5
 109 799 l 5
 274 799 l 5
 298 775 l 5
 298 711 l 5
 369 711 l 5
36 689 m 5
 36 615 l 5
 131 615 l 5
 131 363 l 5
 251 363 l 5
 251 615 l 5
 347 615 l 5
 347 689 l 5
 251 689 l 5
 251 777 l 5
 131 777 l 5
 131 689 l 5
 36 689 l 5
EndSplineSet
EndChar

StartChar: daggerdbl
Encoding: 135 8225 112
Width: 405
VWidth: 0
Flags: HW
HStem: 317 47<133 249> 405 47<37 107 297 345> 525 22<34 107 297 345> 568 47<37 107 297 345> 689 22<34 107 297 345> 777 22<129 249>
VStem: 12 22<451 525 615 689> 107 22<363 405 548 568 711 777> 249 48<363 405 548 568 711 775> 345 48<451 523 615 687>
LayerCount: 2
Fore
SplineSet
393 568 m 5
 297 568 l 5
 297 548 l 5
 367 548 l 5
 393 523 l 5
 393 405 l 5
 297 405 l 5
 297 317 l 5
 133 317 l 5
 107 341 l 5
 107 405 l 5
 37 405 l 5
 12 429 l 5
 12 548 l 5
 107 548 l 5
 107 568 l 5
 37 568 l 5
 12 593 l 5
 12 711 l 5
 107 711 l 5
 107 799 l 5
 272 799 l 5
 297 775 l 5
 297 711 l 5
 367 711 l 5
 393 687 l 5
 393 568 l 5
345 451 m 5
 345 525 l 5
 249 525 l 5
 249 615 l 5
 345 615 l 5
 345 689 l 5
 249 689 l 5
 249 777 l 5
 129 777 l 5
 129 689 l 5
 34 689 l 5
 34 615 l 5
 129 615 l 5
 129 525 l 5
 34 525 l 5
 34 451 l 5
 129 451 l 5
 129 363 l 5
 249 363 l 5
 249 451 l 5
 345 451 l 5
EndSplineSet
EndChar

StartChar: uniFB01
Encoding: 256 64257 113
Width: 736
VWidth: 0
Flags: HW
HStem: 0 46<43 249 437 666> 357 46<295 412> 508 22<296 666> 615 46<300 336 437 666> 765 22<113 336 435 666>
VStem: 19 22<46 693> 249 46<46 357 531 614> 336 46<661 763> 412 22<46 357 661 765> 666 46<46 507 661 763>
LayerCount: 2
Fore
SplineSet
296 531 m 2
 688 531 l 1
 712 507 l 1
 712 0 l 1
 437 0 l 1
 412 24 l 1
 412 357 l 1
 295 357 l 1
 296 0 l 1
 43 0 l 1
 19 24 l 1
 19 35 l 2
 19 652 19 654 19 655 c 0
 22 677 29 698 40 718 c 0
 51 739 69 756 92 768 c 0
 115 780 144 787 178 787 c 2
 358 787 l 1
 382 763 l 1
 382 615 l 1
 371 615 l 1
 371 615 321 614 320 614 c 0
 302 614 301 608 300 605 c 0
 300 604 299 603 299 602 c 0
 298 590 297 561 296 531 c 2
41 653 m 0
 41 637 41 257 41 46 c 1
 249 46 l 1
 249 403 l 1
 435 403 l 1
 435 46 l 1
 666 46 l 1
 666 509 l 1
 249 508 l 1
 249 520 l 2
 249 540 250 606 253 629 c 0
 253 632 254 634 254 635 c 0
 257 647 267 661 296 661 c 0
 297 661 321 661 336 661 c 2
 336 765 l 1
 178 765 l 2
 147 765 122 760 102 749 c 0
 82 739 68 725 59 708 c 0
 50 690 43 672 41 653 c 0
688 787 m 1
 712 763 l 1
 712 615 l 1
 437 615 l 1
 412 639 l 1
 412 787 l 1
 688 787 l 1
435 765 m 1
 435 661 l 1
 666 661 l 1
 666 765 l 1
 435 765 l 1
EndSplineSet
EndChar

StartChar: uniFB02
Encoding: 257 64258 114
Width: 731
VWidth: 0
Flags: HW
HStem: 0 46<41 247 435 664> 357 46<293 410> 508 22<294 410> 614 46<298 334> 765 22<111 334 433 664>
VStem: 17 22<46 693> 247 46<46 357 531 614> 334 46<661 763> 410 22<46 357 531 765> 664 46<46 763>
LayerCount: 2
Fore
SplineSet
710 763 m 1
 710 0 l 1
 435 0 l 1
 410 24 l 1
 410 357 l 1
 293 357 l 1
 294 0 l 1
 41 0 l 1
 17 24 l 1
 17 35 l 2
 17 652 17 654 17 655 c 0
 20 677 27 698 38 718 c 0
 49 739 67 756 90 768 c 0
 113 780 142 787 176 787 c 2
 356 787 l 1
 380 763 l 1
 380 615 l 1
 369 615 l 1
 369 615 319 614 318 614 c 0
 300 614 299 608 298 605 c 0
 298 604 297 603 297 602 c 0
 296 590 295 561 294 531 c 2
 410 531 l 1
 410 787 l 1
 686 787 l 1
 710 763 l 1
39 653 m 0
 39 637 39 257 39 46 c 1
 247 46 l 1
 247 403 l 1
 433 403 l 1
 433 46 l 1
 664 46 l 1
 664 765 l 1
 433 765 l 1
 433 508 l 1
 247 508 l 1
 247 520 l 2
 247 540 248 606 251 629 c 0
 251 632 252 634 252 635 c 0
 255 647 265 661 294 661 c 0
 295 661 319 661 334 661 c 2
 334 765 l 1
 176 765 l 2
 145 765 120 760 100 749 c 0
 81 739 66 725 57 708 c 0
 48 690 41 672 39 653 c 0
EndSplineSet
EndChar

StartChar: perthousand
Encoding: 137 8240 115
Width: 1475
VWidth: 0
Flags: HW
HStem: -21 47<762 948 1149 1337> 0 46<329 559> 142 195<805 885 1193 1273> 295 47<124 310> 453 22<767 925 1156 1312> 773 22<142 273 514 744>
VStem: 25 22<424 686> 369 48<483 689> 663 22<109 240> 1007 66<103 328> 1394 47<84 376>
LayerCount: 2
Fore
SplineSet
207 653 m 0x0fe0
 235 653 244 639 248 628 c 0
 252 614 252 496 248 482 c 0
 244 471 234 457 207 457 c 2
 207 457 l 2
 180 457 170 471 166 482 c 0
 162 496 162 614 166 628 c 0
 170 639 180 653 207 653 c 0x0fe0
227 489 m 0
 229 498 230 571 229 605 c 1
 216 604 213 599 212 596 c 0
 210 587 210 514 211 480 c 1
 224 481 226 486 227 489 c 0
845 337 m 0
 873 337 883 324 887 313 c 0
 891 299 890 181 886 167 c 0
 882 156 873 142 846 142 c 2
 845 142 l 2
 818 142 808 156 804 167 c 0
 800 181 800 299 804 313 c 0
 808 324 818 337 845 337 c 0
865 174 m 0
 867 183 868 256 867 290 c 1
 854 289 851 284 850 281 c 0
 848 272 848 199 849 165 c 1
 862 166 864 171 865 174 c 0
1233 337 m 0x2fe0
 1261 337 1270 323 1274 312 c 0
 1278 298 1278 180 1274 166 c 0
 1270 155 1260 142 1233 142 c 2
 1232 142 l 2
 1205 142 1196 155 1192 166 c 0
 1188 180 1188 298 1192 312 c 0
 1196 323 1206 337 1233 337 c 0x2fe0
1253 173 m 0
 1255 182 1255 255 1254 289 c 1
 1241 288 1239 283 1238 280 c 0
 1236 271 1235 198 1236 164 c 1
 1249 165 1252 170 1253 173 c 0
1441 306 m 0
 1443 288 1443 140 1441 122 c 0
 1438 98 1431 75 1419 53 c 0
 1407 30 1387 12 1362 -1 c 0
 1337 -14 1306 -21 1269 -21 c 2
 1247 -21 l 2
 1210 -21 1179 -14 1154 -1 c 0
 1141 6 1130 14 1120 23 c 2
 1120 23 l 1
 1097 47 l 1
 1097 47 l 2
 1087 56 1078 67 1072 79 c 0
 1064 95 1058 110 1054 127 c 1
 1054 125 1054 123 1054 122 c 0
 1051 98 1043 76 1031 54 c 0
 1019 31 1000 12 975 -1 c 0
 950 -14 918 -21 881 -21 c 2
 860 -21 l 2x9fe0
 823 -21 791 -13 766 -0 c 0
 753 7 743 15 733 24 c 2
 733 24 l 1
 709 47 l 1
 710 47 l 2
 700 56 691 67 685 79 c 0
 673 101 666 124 663 148 c 0
 662 157 662 199 662 240 c 2
 600 0 l 1
 324 0 l 1
 300 25 l 1
 384 354 l 2
 372 338 357 325 337 315 c 0
 312 302 280 295 243 295 c 2
 222 295 l 2x5fe0
 185 295 153 302 128 315 c 0
 115 322 104 330 94 339 c 2
 94 339 l 1
 71 363 l 1
 71 363 l 2
 61 372 53 382 47 394 c 0
 35 416 28 439 25 463 c 0
 23 481 23 630 25 648 c 0
 28 672 35 694 47 716 c 0
 59 739 79 758 104 771 c 0
 129 784 161 791 198 791 c 2
 219 791 l 2
 256 791 288 783 313 770 c 0
 329 761 342 751 353 739 c 2
 369 723 l 1
 369 723 l 2
 379 714 388 703 394 691 c 0
 406 669 413 646 416 622 c 0
 417 609 418 534 417 483 c 2
 496 795 l 1
 773 794 l 1
 797 770 l 1
 711 434 l 2
 720 442 730 449 742 455 c 0
 767 468 799 475 836 475 c 2
 857 475 l 2
 894 475 926 468 951 455 c 0
 967 447 980 436 991 424 c 2
 1007 407 l 1
 1007 407 l 2
 1017 398 1026 388 1032 376 c 0
 1040 360 1046 344 1050 327 c 1
 1050 329 1051 331 1051 332 c 0
 1054 356 1061 378 1073 400 c 0
 1085 423 1105 442 1130 455 c 0
 1155 468 1186 475 1223 475 c 2
 1245 475 l 2
 1282 475 1313 467 1338 454 c 0
 1354 445 1367 435 1378 423 c 2
 1395 407 l 1
 1395 407 l 2
 1405 398 1414 387 1420 375 c 0
 1432 353 1438 330 1441 306 c 0
369 465 m 0
 371 481 371 629 369 645 c 0
 367 666 359 686 349 705 c 0
 339 724 323 740 302 751 c 0
 280 763 253 768 219 768 c 2
 198 768 l 2
 164 768 136 763 114 751 c 0
 93 740 77 725 67 706 c 0
 57 687 50 666 47 645 c 0
 45 629 45 482 47 466 c 0
 49 445 56 424 66 405 c 0
 76 386 93 371 114 360 c 0
 136 348 163 342 197 342 c 2
 218 342 l 2
 252 342 280 347 302 359 c 0
 323 370 339 385 349 404 c 0
 359 423 366 444 369 465 c 0
559 46 m 1
 744 772 l 1
 514 773 l 1
 329 47 l 1x4fe0
 559 46 l 1
1007 150 m 0
 1009 166 1009 313 1007 329 c 0
 1005 350 998 371 988 390 c 0
 978 409 961 424 940 435 c 0
 918 447 891 453 857 453 c 2
 836 453 l 2
 802 453 774 448 752 436 c 0
 731 425 715 409 705 390 c 0
 700 381 696 372 693 362 c 2
 687 340 l 2
 686 336 685 334 685 330 c 0
 683 314 683 167 685 151 c 0
 687 130 695 109 705 90 c 0
 715 71 731 55 752 44 c 0
 774 32 801 27 835 27 c 2x8fe0
 856 27 l 2
 890 27 918 32 940 44 c 0
 961 55 977 70 987 89 c 0
 997 108 1004 129 1007 150 c 0
1394 149 m 0
 1396 165 1396 313 1394 329 c 0
 1392 350 1385 370 1375 389 c 0
 1365 408 1349 424 1328 435 c 0
 1306 447 1279 452 1245 452 c 2
 1223 452 l 2
 1189 452 1162 447 1140 435 c 0
 1119 424 1103 409 1093 390 c 0
 1083 371 1076 350 1073 329 c 0
 1071 313 1071 166 1073 150 c 0
 1075 129 1082 108 1092 89 c 0
 1102 70 1118 55 1139 44 c 0
 1161 32 1189 26 1223 26 c 2
 1244 26 l 2
 1278 26 1305 31 1327 43 c 0
 1348 54 1365 70 1375 89 c 0
 1385 108 1391 128 1394 149 c 0
EndSplineSet
EndChar

StartChar: percent
Encoding: 37 37 116
Width: 1082
VWidth: 0
Flags: HW
HStem: -21 47<762 948> 0 46<328 559> 295 47<124 310> 453 22<767 925> 773 22<142 273 514 744>
VStem: 25 22<424 686> 369 48<483 689> 663 22<109 240> 1007 47<85 376>
LayerCount: 2
Fore
SplineSet
207 653 m 0x3f80
 235 653 244 639 248 628 c 0
 252 614 252 496 248 482 c 0
 244 471 234 457 207 457 c 2
 207 457 l 2
 180 457 170 471 166 482 c 0
 162 496 162 614 166 628 c 0
 170 639 180 653 207 653 c 0x3f80
227 489 m 0
 229 498 230 571 229 605 c 1
 216 604 213 599 212 596 c 0
 210 587 210 514 211 480 c 1
 224 481 226 486 227 489 c 0
845 337 m 0
 873 337 883 324 887 313 c 0
 891 299 890 181 886 167 c 0
 882 156 872 142 845 142 c 2
 845 142 l 2
 818 142 808 156 804 167 c 0
 800 181 800 299 804 313 c 0
 808 324 818 337 845 337 c 0
865 174 m 0
 867 183 868 256 867 290 c 1
 854 289 851 284 850 281 c 0
 848 272 848 199 849 165 c 1
 862 166 864 171 865 174 c 0
1054 307 m 0
 1056 289 1056 140 1054 122 c 0
 1051 98 1043 76 1031 54 c 0
 1019 31 1000 12 975 -1 c 0
 950 -14 918 -21 881 -21 c 2
 860 -21 l 2xbf80
 823 -21 791 -13 766 -0 c 0
 753 7 743 15 733 24 c 2
 733 24 l 1
 709 47 l 1
 710 47 l 2
 700 56 691 67 685 79 c 0
 673 101 666 124 663 148 c 0
 662 157 662 199 662 240 c 2
 600 0 l 1
 324 0 l 1x7f80
 300 25 l 1
 384 354 l 2
 372 338 357 325 337 315 c 0
 312 302 280 295 243 295 c 2
 222 295 l 2
 185 295 153 302 128 315 c 0
 115 322 104 330 94 339 c 2
 94 339 l 1
 71 363 l 1
 71 363 l 2
 61 372 53 382 47 394 c 0
 35 416 28 439 25 463 c 0
 23 481 23 630 25 648 c 0
 28 672 35 694 47 716 c 0
 59 739 79 758 104 771 c 0
 129 784 161 791 198 791 c 2
 219 791 l 2
 256 791 288 783 313 770 c 0
 329 762 342 751 353 739 c 2
 369 723 l 1
 369 723 l 2
 379 714 388 703 394 691 c 0
 406 669 413 646 416 622 c 0
 417 609 418 534 417 483 c 2
 496 795 l 1
 773 794 l 1
 797 770 l 1
 711 434 l 2
 720 442 730 449 742 455 c 0
 767 468 799 475 836 475 c 2
 857 475 l 2
 894 475 926 468 951 455 c 0
 967 447 980 436 991 424 c 2
 1007 407 l 1
 1007 407 l 2
 1017 398 1026 387 1032 375 c 0
 1044 353 1051 331 1054 307 c 0
369 465 m 0
 371 481 371 628 369 644 c 0
 367 665 359 686 349 705 c 0
 339 724 323 740 302 751 c 0
 280 763 253 768 219 768 c 2
 198 768 l 2
 164 768 136 763 114 751 c 0
 93 740 77 725 67 706 c 0
 57 687 50 666 47 645 c 0
 45 629 45 482 47 466 c 0
 49 445 56 424 66 405 c 0
 76 386 93 371 114 360 c 0
 136 348 163 342 197 342 c 2
 218 342 l 2
 252 342 280 347 302 359 c 0
 323 370 339 385 349 404 c 0
 359 423 366 444 369 465 c 0
559 46 m 1
 744 772 l 1
 514 773 l 1
 328 47 l 1x7f80
 559 46 l 1
1007 150 m 0
 1009 166 1009 313 1007 329 c 0
 1005 350 998 371 988 390 c 0
 978 409 961 424 940 435 c 0
 918 447 891 453 857 453 c 2
 836 453 l 2
 802 453 774 448 752 436 c 0
 731 425 715 409 705 390 c 0
 700 381 696 372 693 362 c 2
 687 340 l 2
 686 336 685 334 685 330 c 0
 683 314 683 166 685 150 c 0
 687 129 695 109 705 90 c 0
 715 71 731 55 752 44 c 0
 774 32 801 27 835 27 c 2xbf80
 856 27 l 2
 890 27 918 32 940 44 c 0
 961 55 977 70 987 89 c 0
 997 108 1004 129 1007 150 c 0
EndSplineSet
EndChar

StartChar: slash
Encoding: 47 47 117
Width: 540
VWidth: 0
Flags: HW
HStem: 0 46<49 279> 773 22<234 465>
LayerCount: 2
Fore
SplineSet
493 794 m 1
 517 770 l 1
 321 0 l 1
 44 0 l 1
 20 25 l 1
 217 795 l 1
 493 794 l 1
234 773 m 1
 49 47 l 1
 279 46 l 1
 465 772 l 1
 234 773 l 1
EndSplineSet
EndChar

StartChar: less
Encoding: 60 60 118
Width: 600
VWidth: 0
Flags: HW
VStem: 534 46<99 180 629 723>
LayerCount: 2
Fore
SplineSet
580 739 m 1
 580 592 l 1
 279 391 l 1
 556 205 l 1
 580 180 l 1
 580 33 l 1
 42 386 l 1
 18 411 l 1
 556 764 l 1
 580 739 l 1
534 723 m 1
 58 411 l 1
 534 100 l 1
 534 193 l 1
 208 411 l 1
 534 629 l 1
 534 723 l 1
EndSplineSet
EndChar

StartChar: greater
Encoding: 62 62 119
Width: 596
VWidth: 0
Flags: HW
VStem: 19 22<99 193 628 722>
LayerCount: 2
Fore
SplineSet
557 411 m 1
 582 386 l 1
 43 33 l 1
 19 58 l 1
 19 205 l 1
 321 407 l 1
 43 592 l 1
 19 617 l 1
 19 764 l 1
 557 411 l 1
41 193 m 1
 41 99 l 1
 517 411 l 1
 41 722 l 1
 41 628 l 1
 367 411 l 1
 41 193 l 1
EndSplineSet
EndChar

StartChar: oe
Encoding: 156 339 120
Width: 935
VWidth: 0
Flags: HW
HStem: 0 46<114 867> 162 22<296 315 593 867> 206 46<592 866> 370 22<604 627> 453 46<299 318 604 625> 614 22<119 780>
VStem: 15 22<128 533> 248 46<187 452> 320 22<186 452> 557 46<393 453> 627 23<393 451> 866 45<46 160 252 533>
LayerCount: 2
Fore
SplineSet
650 382 m 2
 650 370 l 1
 557 370 l 1
 557 499 l 1
 605 499 l 2
 632 499 641 485 645 474 c 0
 646 472 648 468 650 382 c 2
604 393 m 1
 627 393 l 2
 626 416 626 438 625 453 c 2
 604 453 l 1
 604 393 l 1
295 162 m 2
 268 162 258 175 254 186 c 0
 251 194 248 215 248 298 c 2
 248 363 l 2
 248 446 251 466 254 474 c 0
 258 485 268 499 295 499 c 0
 323 499 332 485 336 474 c 0
 339 466 342 446 342 363 c 2
 342 298 l 2
 342 215 339 194 336 186 c 0
 332 175 322 162 295 162 c 2
 295 162 l 2
320 298 m 2
 320 363 l 2
 320 412 318 438 317 452 c 0
 302 452 300 446 299 443 c 0
 297 437 294 417 294 339 c 2
 294 274 l 2
 294 225 296 198 297 184 c 0
 312 184 314 190 315 193 c 0
 317 199 320 220 320 298 c 2
889 184 m 1
 913 160 l 1
 913 0 l 1
 212 0 l 2
 175 0 143 7 118 20 c 0
 105 27 93 35 84 44 c 2
 84 44 l 1
 58 71 l 1
 58 71 l 2
 50 79 42 89 37 99 c 0
 25 121 18 143 15 167 c 0
 13 185 13 475 15 493 c 0
 18 517 25 540 37 562 c 0
 49 585 69 603 94 616 c 0
 119 629 150 637 187 637 c 2
 712 637 l 2
 749 637 781 629 806 616 c 0
 820 608 832 599 842 589 c 2
 842 589 l 1
 863 569 l 1
 863 569 l 2
 873 560 880 549 886 538 c 0
 898 516 905 493 908 469 c 0
 909 458 910 442 911 421 c 2
 912 421 l 1
 912 410 l 1
 912 250 l 1
 911 206 l 1
 613 206 l 2
 596 206 595 200 594 197 c 0
 594 196 593 194 592 190 c 0
 592 188 593 186 593 184 c 2
 889 184 l 1
37 491 m 0
 35 475 35 187 37 170 c 0
 40 149 47 128 57 109 c 0
 67 90 83 75 104 64 c 0
 126 52 153 46 187 46 c 2
 867 46 l 1
 867 162 l 1
 588 161 l 2
 561 161 551 175 547 186 c 0
 546 190 546 216 546 216 c 2
 547 221 548 225 549 228 c 0
 553 239 562 252 589 252 c 2
 866 252 l 1
 866 275 l 1
 866 426 l 1
 865 434 l 2
 864 460 863 479 862 491 c 0
 859 512 852 533 842 552 c 0
 832 571 816 586 795 597 c 0
 773 609 746 614 712 614 c 2
 187 614 l 2
 153 614 126 609 104 597 c 0
 83 586 67 571 57 552 c 0
 47 533 40 512 37 491 c 0
EndSplineSet
EndChar

StartChar: backslash
Encoding: 92 92 121
Width: 530
VWidth: 0
Flags: HW
HStem: 0 46<237 461> 772 22<46 277>
LayerCount: 2
Fore
SplineSet
318 771 m 1
 513 0 l 1
 237 0 l 1
 213 24 l 1
 18 795 l 1
 294 795 l 1
 318 771 l 1
46 772 m 1
 230 46 l 1
 461 46 l 1
 277 772 l 1
 46 772 l 1
EndSplineSet
EndChar

StartChar: bar
Encoding: 124 124 122
Width: 336
VWidth: 0
Flags: HW
HStem: -196 46<43 273> 777 22<41 273>
VStem: 19 22<-150 777> 273 46<-150 775>
LayerCount: 2
Fore
SplineSet
295 799 m 5
 319 775 l 5
 319 -196 l 5
 43 -196 l 5
 19 -172 l 5
 19 799 l 5
 295 799 l 5
41 777 m 5
 41 -150 l 5
 273 -150 l 5
 273 777 l 5
 41 777 l 5
EndSplineSet
EndChar

StartChar: Oslash
Encoding: 216 216 123
Width: 654
VWidth: 0
Flags: HW
HStem: -132 46<73 129> 0 46<224 520> 168 22<312 334> 773 22<130 426> 905 22<497 553>
VStem: 16 22<145 674> 264 47<526 604> 339 23<193 269 585 604> 587 46<117 683>
LayerCount: 2
Fore
SplineSet
266 231 m 6
 266 233 l 5
 362 459 l 5
 362 310 l 6
 362 223 358 202 355 194 c 4
 351 182 341 168 313 168 c 6
 313 168 l 6
 285 168 274 182 270 194 c 4
 269 198 267 207 266 231 c 6
339 269 m 6
 312 205 l 6
 312 199 313 195 313 191 c 6
 314 191 l 6
 331 191 333 198 334 201 c 4
 336 206 338 221 339 269 c 6
360 588 m 6
 360 585 l 5
 264 360 l 5
 264 509 l 6
 264 596 267 617 270 625 c 4
 274 637 285 651 313 651 c 6
 313 651 l 6
 341 651 351 637 355 625 c 4
 356 621 359 613 360 588 c 6
311 526 m 6
 338 589 l 6
 338 595 337 600 337 604 c 4
 337 604 l 6
 336 604 l 5
 337 604 l 6
 319 604 317 597 316 594 c 4
 314 589 312 574 311 526 c 6
629 621 m 4
 632 599 634 287 634 274 c 4
 634 270 632 171 629 149 c 4
 626 124 618 101 606 78 c 4
 593 54 573 35 547 21 c 4
 521 7 489 0 450 0 c 6
 224 0 l 6
 224 0 l 6
 168 -132 l 5
 64 -132 l 5
 40 -108 l 5
 102 37 l 6
 97 41 92 46 88 51 c 6
 88 50 l 5
 67 70 l 5
 68 70 l 6
 58 79 50 90 44 102 c 4
 32 125 24 149 21 174 c 4
 18 196 16 238 16 298 c 6
 16 521 l 6
 16 581 18 623 21 645 c 4
 24 670 32 694 44 717 c 4
 57 741 76 760 102 774 c 4
 128 788 161 795 200 795 c 6
 426 795 l 6
 426 795 l 6
 482 927 l 5
 586 927 l 5
 610 903 l 5
 548 758 l 6
 553 754 558 749 562 744 c 6
 562 745 l 5
 586 721 l 5
 586 721 l 6
 594 713 601 703 606 693 c 4
 618 670 626 646 629 621 c 4
583 176 m 4
 586 197 587 297 587 298 c 4
 587 388 585 626 583 643 c 4
 580 665 574 687 563 707 c 4
 552 727 535 742 513 754 c 4
 510 756 506 757 502 759 c 6
 492 764 l 5
 553 905 l 5
 497 905 l 5
 440 772 l 5
 430 773 l 6
 428 773 428 773 426 773 c 6
 200 773 l 6
 165 773 136 766 113 754 c 4
 91 742 74 727 63 707 c 4
 52 687 46 665 43 643 c 4
 40 622 38 581 38 521 c 6
 38 298 l 6
 38 238 40 197 43 176 c 4
 46 154 52 132 63 112 c 4
 74 92 91 77 113 65 c 4
 116 63 120 62 124 60 c 6
 134 55 l 5
 73 -86 l 5
 129 -86 l 5
 186 47 l 5
 196 46 l 6
 198 46 198 46 200 46 c 6
 426 46 l 6
 461 46 490 53 513 65 c 4
 535 77 552 92 563 112 c 4
 574 132 580 154 583 176 c 4
EndSplineSet
EndChar

StartChar: oslash
Encoding: 248 248 124
Width: 641
VWidth: 0
Flags: HW
HStem: -132 46<104 160> 0 46<256 509> 614 22<134 389> 747 22<460 517>
VStem: 31 22<128 533> 273 79<174 185 467 487> 568 46<105 539>
LayerCount: 2
Fore
SplineSet
279 172 m 6
 273 177 l 5
 357 375 l 5
 357 298 l 6
 357 215 354 194 351 186 c 4
 347 175 338 162 311 162 c 6
 310 162 l 6
 297 162 286 165 279 172 c 6
342 489 m 6
 348 483 l 5
 263 286 l 5
 263 363 l 6
 263 446 266 466 269 474 c 4
 273 485 283 499 310 499 c 6
 311 499 l 6
 324 499 335 496 342 489 c 6
614 469 m 4
 616 451 616 161 614 143 c 4
 611 119 604 96 592 74 c 4
 580 51 561 34 536 20 c 4
 511 7 479 0 442 0 c 6
 256 0 l 5
 199 -132 l 5
 94 -132 l 5
 70 -108 l 5
 127 24 l 6
 111 33 98 45 88 58 c 4
 73 69 61 82 53 98 c 4
 41 120 34 143 31 167 c 4
 29 185 29 475 31 493 c 4
 34 517 41 540 53 562 c 4
 65 585 84 602 109 616 c 4
 134 629 166 636 203 636 c 6
 389 636 l 5
 446 769 l 5
 550 769 l 5
 575 745 l 5
 518 613 l 6
 530 606 540 597 549 588 c 6
 549 588 l 5
 566 572 l 5
 565 572 l 6
 576 562 585 551 592 538 c 4
 604 516 611 493 614 469 c 4
162 49 m 5
 104 -86 l 5
 160 -86 l 5
 217 46 l 5
 418 46 l 6
 452 46 479 52 501 64 c 4
 522 75 538 90 548 109 c 4
 558 128 565 149 568 170 c 4
 570 187 570 475 568 491 c 4
 565 512 558 533 548 552 c 4
 538 571 522 586 501 597 c 4
 492 602 482 605 471 608 c 6
 459 611 l 5
 517 747 l 5
 460 747 l 5
 404 614 l 5
 203 614 l 6
 169 614 141 609 119 597 c 4
 98 586 82 571 72 552 c 4
 62 533 56 512 53 491 c 4
 51 475 51 187 53 170 c 4
 56 149 62 128 72 109 c 4
 82 90 98 75 119 64 c 4
 128 59 138 55 149 52 c 6
 162 49 l 5
EndSplineSet
EndChar

StartChar: bullet
Encoding: 149 8226 125
Width: 469
VWidth: 0
Flags: HW
HStem: 224 46<156 310> 636 22<164 284>
VStem: 19 22<391 515> 407 46<367 521>
LayerCount: 2
Fore
SplineSet
392 575 m 6
 430 538 453 486 453 429 c 4
 453 316 361 224 248 224 c 4
 191 224 138 248 101 286 c 5
 101 286 l 5
 81 306 l 5
 82 306 l 5
 43 343 19 395 19 453 c 4
 19 566 111 658 224 658 c 4
 281 658 333 635 370 597 c 5
 370 597 l 5
 392 575 l 5
 392 575 l 6
224 636 m 4
 123 636 41 554 41 453 c 4
 41 352 123 270 224 270 c 4
 325 270 407 352 407 453 c 4
 407 554 325 636 224 636 c 4
EndSplineSet
EndChar

StartChar: guillemotleft
Encoding: 171 171 126
Width: 1033
VWidth: 0
Flags: HW
HStem: 771 20G<564 614 950 1000>
VStem: 571 49<79 165 646 747> 957 49<79 165 646 747>
LayerCount: 2
Fore
SplineSet
620 764 m 1
 620 607 l 1
 297 391 l 1
 594 192 l 1
 620 165 l 1
 620 8 l 1
 43 386 l 1
 17 413 l 1
 594 791 l 1
 620 764 l 1
571 747 m 1
 61 413 l 1
 571 79 l 1
 571 179 l 1
 221 413 l 1
 571 646 l 1
 571 747 l 1
1006 764 m 1
 1006 764 l 1
 1006 607 l 1
 683 391 l 1
 980 192 l 1
 1006 165 l 1
 1006 8 l 1
 429 386 l 1
 403 413 l 1
 980 791 l 1
 1006 764 l 1
957 747 m 1
 447 413 l 1
 957 79 l 1
 957 179 l 1
 607 413 l 1
 957 646 l 1
 957 747 l 1
EndSplineSet
EndChar

StartChar: guillemotright
Encoding: 187 187 127
Width: 1047
VWidth: 0
Flags: HW
HStem: 771 20G<29 60 416 446>
VStem: 29 24<79 180 647 747> 416 24<79 180 647 747>
LayerCount: 2
Fore
SplineSet
607 413 m 1
 632 387 l 1
 55 9 l 1
 29 35 l 1
 29 192 l 1
 353 409 l 1
 55 608 l 1
 29 634 l 1
 29 791 l 1
 607 413 l 1
53 180 m 1
 53 79 l 1
 563 413 l 1
 53 747 l 1
 53 647 l 1
 403 413 l 1
 53 180 l 1
993 413 m 1
 1019 387 l 1
 442 9 l 1
 416 35 l 1
 416 192 l 1
 740 409 l 1
 442 608 l 1
 416 634 l 1
 416 791 l 1
 993 413 l 1
439 180 m 1
 439 79 l 1
 949 413 l 1
 439 747 l 1
 439 647 l 1
 789 413 l 1
 439 180 l 1
EndSplineSet
EndChar

StartChar: mu
Encoding: 181 181 128
Width: 639
VWidth: 0
Flags: HW
HStem: -30 47<45 258> 178 47<453 567> 205 47<304 415> 368 22<304 325> 793 22<43 258 352 567>
VStem: 21 22<17 793> 258 47<17 205 390 790> 330 22<400 793> 567 47<225 790>
LayerCount: 2
Fore
SplineSet
589 815 m 5xbf80
 613 790 l 5
 613 178 l 5
 453 178 l 5xdf80
 429 202 l 5
 429 220 l 6
 406 210 378 205 347 205 c 6
 304 205 l 5
 304 -30 l 5
 45 -30 l 5
 21 -5 l 5
 21 815 l 5
 280 815 l 5
 304 790 l 5
 304 390 l 5
 305 390 l 6
 322 390 324 396 325 399 c 4
 327 405 330 426 330 504 c 6
 330 815 l 5
 589 815 l 5xbf80
43 793 m 5
 43 17 l 5
 258 17 l 5
 258 252 l 5
 323 252 l 6xbf80
 357 252 384 258 406 270 c 4
 416 275 425 281 433 288 c 6
 451 305 l 5
 451 225 l 5
 567 225 l 5
 567 793 l 5
 352 793 l 5
 352 504 l 6
 352 421 349 400 346 392 c 4
 342 381 332 368 305 368 c 6
 258 368 l 5
 258 793 l 5
 43 793 l 5
EndSplineSet
EndChar

StartChar: guilsinglleft
Encoding: 139 8249 129
Width: 648
VWidth: 0
Flags: HW
HStem: 0 21G<584 633> 0 21G<584 633>
VStem: 14 24<283 415> 584 49<61 173 514 636>
LayerCount: 2
Fore
SplineSet
633 646 m 5xb0
 633 646 l 5
 633 472 l 5
 283 330 l 5
 608 199 l 5
 633 173 l 5
 633 0 l 5
 39 241 l 5
 14 267 l 5
 14 430 l 5
 21 434 l 5
 608 671 l 5
 633 646 l 5xb0
584 61 m 5
 584 183 l 5
 175 349 l 5
 584 514 l 5
 584 636 l 5
 38 415 l 5
 38 283 l 5
 584 61 l 5
EndSplineSet
EndChar

StartChar: guilsinglright
Encoding: 155 8250 130
Width: 680
VWidth: 0
Flags: HW
HStem: 0 21G<35 104> 0 21G<35 104>
VStem: 30 24<61 183 514 636> 600 49<282 405>
LayerCount: 2
Fore
SplineSet
624 430 m 1xb0
 649 405 l 1
 649 241 l 1
 642 238 l 1
 55 0 l 1
 30 25 l 1
 30 199 l 1
 380 341 l 1
 55 472 l 1
 30 498 l 1
 30 671 l 1
 624 430 l 1xb0
53 183 m 1
 53 61 l 1
 600 282 l 1
 600 414 l 1
 53 636 l 1
 53 514 l 1
 462 348 l 1
 53 183 l 1
EndSplineSet
EndChar

StartChar: quotedblright
Encoding: 148 8221 131
Width: 451
VWidth: 0
Flags: HW
HStem: 542 46<43 159 230 347> 777 22<80 197 268 384>
LayerCount: 2
Fore
SplineSet
411 799 m 1
 435 775 l 1
 389 542 l 1
 227 542 l 1
 206 563 l 1
 202 542 l 1
 40 542 l 1
 16 566 l 1
 62 799 l 1
 224 799 l 1
 245 778 l 1
 249 799 l 1
 411 799 l 1
159 588 m 1
 197 777 l 1
 80 777 l 1
 43 588 l 1
 159 588 l 1
347 588 m 1
 384 777 l 1
 268 777 l 1
 230 588 l 1
 347 588 l 1
EndSplineSet
EndChar

StartChar: quoteright
Encoding: 146 8217 132
Width: 250
VWidth: 0
Flags: HW
HStem: 542 46<39 155> 777 22<76 193>
VStem: 12 232
LayerCount: 2
Fore
SplineSet
220 799 m 5
 244 775 l 5
 198 542 l 5
 36 542 l 5
 12 566 l 5
 58 799 l 5
 220 799 l 5
76 777 m 5
 39 588 l 5
 155 588 l 5
 193 777 l 5
 76 777 l 5
EndSplineSet
EndChar

StartChar: quoteleft
Encoding: 145 8216 133
Width: 266
VWidth: 0
Flags: HW
HStem: 542 46<85 196> 777 22<42 158>
VStem: 15 232
LayerCount: 2
Fore
SplineSet
201 775 m 1
 247 542 l 1
 85 542 l 1
 61 566 l 1
 15 799 l 1
 177 799 l 1
 201 775 l 1
42 777 m 1
 79 588 l 1
 196 588 l 1
 158 777 l 1
 42 777 l 1
EndSplineSet
EndChar

StartChar: ellipsis
Encoding: 133 8230 134
Width: 630
VWidth: 0
Flags: HW
HStem: 0 46<54 169 248 363 442 557> 163 22<52 169 246 363 440 557>
VStem: 30 22<46 163> 169 46<46 161> 224 22<46 163> 363 46<46 161> 418 22<46 163> 557 46<46 161>
LayerCount: 2
Fore
SplineSet
191 185 m 5
 215 161 l 5
 215 0 l 5
 54 0 l 5
 30 24 l 5
 30 185 l 5
 191 185 l 5
52 163 m 5
 52 46 l 5
 169 46 l 5
 169 163 l 5
 52 163 l 5
385 185 m 5
 409 161 l 5
 409 0 l 5
 248 0 l 5
 224 24 l 5
 224 185 l 5
 385 185 l 5
246 163 m 5
 246 46 l 5
 363 46 l 5
 363 163 l 5
 246 163 l 5
579 185 m 5
 603 161 l 5
 603 0 l 5
 442 0 l 5
 418 24 l 5
 418 185 l 5
 579 185 l 5
440 163 m 5
 440 46 l 5
 557 46 l 5
 557 163 l 5
 440 163 l 5
EndSplineSet
EndChar

StartChar: quotesingle
Encoding: 39 39 135
Width: 212
VWidth: 0
Flags: HW
HStem: 542 46<35 83> 777 22<32 145>
VStem: 10 22<588 777>
LayerCount: 2
Fore
SplineSet
175 799 m 1
 200 775 l 1
 123 541 l 1
 35 542 l 1
 10 566 l 1
 10 799 l 1
 175 799 l 1
32 777 m 1
 32 588 l 1
 83 588 l 1
 145 777 l 1
 32 777 l 1
EndSplineSet
EndChar

StartChar: comma
Encoding: 44 44 136
Width: 210
VWidth: 0
Flags: HW
HStem: -73 46<38 86> 162 22<35 148>
VStem: 13 22<-27 162>
LayerCount: 2
Fore
SplineSet
178 184 m 1
 203 160 l 1
 126 -74 l 1
 38 -73 l 1
 13 -49 l 1
 13 184 l 1
 178 184 l 1
35 162 m 1
 35 -27 l 1
 86 -27 l 1
 148 162 l 1
 35 162 l 1
EndSplineSet
EndChar

StartChar: period
Encoding: 46 46 137
Width: 208
VWidth: 0
Flags: HW
HStem: 0 46<37 152> 163 22<35 152>
VStem: 13 22<46 163> 152 46<46 161>
LayerCount: 2
Fore
SplineSet
174 185 m 1
 198 161 l 1
 198 0 l 1
 37 0 l 1
 13 24 l 1
 13 185 l 1
 174 185 l 1
35 163 m 1
 35 46 l 1
 152 46 l 1
 152 163 l 1
 35 163 l 1
EndSplineSet
EndChar

StartChar: colon
Encoding: 58 58 138
Width: 203
VWidth: 0
Flags: HW
HStem: 0 46<31 146> 163 22<29 146> 211 46<31 146> 374 22<29 146>
VStem: 7 22<46 163 258 374> 146 46<46 161 258 373>
LayerCount: 2
Fore
SplineSet
168 397 m 5
 192 373 l 5
 192 211 l 5
 31 211 l 5
 7 235 l 5
 7 397 l 5
 168 397 l 5
29 374 m 5
 29 258 l 5
 146 258 l 5
 146 374 l 5
 29 374 l 5
168 185 m 5
 192 161 l 5
 192 0 l 5
 31 0 l 5
 7 24 l 5
 7 185 l 5
 168 185 l 5
29 163 m 5
 29 46 l 5
 146 46 l 5
 146 163 l 5
 29 163 l 5
EndSplineSet
EndChar

StartChar: semicolon
Encoding: 59 59 139
Width: 210
VWidth: 0
Flags: HW
HStem: -73 46<38 86> 162 22<35 148> 212 46<37 152> 374 22<35 152>
VStem: 13 22<-27 162 258 374> 152 46<258 373>
LayerCount: 2
Fore
SplineSet
174 397 m 1
 198 373 l 1
 198 212 l 1
 37 212 l 1
 13 235 l 1
 13 397 l 1
 174 397 l 1
35 374 m 1
 35 258 l 1
 152 258 l 1
 152 374 l 1
 35 374 l 1
178 184 m 1
 203 160 l 1
 126 -74 l 1
 38 -73 l 1
 13 -49 l 1
 13 184 l 1
 178 184 l 1
35 162 m 1
 35 -27 l 1
 86 -27 l 1
 148 162 l 1
 35 162 l 1
EndSplineSet
EndChar

StartChar: quotedbl
Encoding: 34 34 140
Width: 376
VWidth: 0
Flags: HW
HStem: 541 46<67 126 227 286> 777 22<37 151 197 311>
LayerCount: 2
Fore
SplineSet
336 799 m 1
 360 775 l 1
 330 541 l 1
 227 541 l 1
 203 566 l 1
 188 679 l 1
 170 541 l 1
 67 541 l 1
 43 566 l 1
 12 799 l 1
 12 799 l 1
 336 799 l 1
 336 799 l 1
311 777 m 1
 199 777 l 1
 197 777 l 1
 222 588 l 1
 286 588 l 1
 311 777 l 1
151 777 m 1
 37 777 l 1
 62 588 l 1
 126 588 l 1
 151 777 l 1
EndSplineSet
EndChar

StartChar: hyphen
Encoding: 45 45 141
Width: 362
VWidth: 0
Flags: HW
HStem: 212 47<40 297> 376 22<38 297>
VStem: 16 22<259 376> 297 46<259 373>
LayerCount: 2
Fore
SplineSet
319 398 m 1
 343 373 l 1
 343 212 l 1
 40 212 l 1
 16 237 l 1
 16 398 l 1
 319 398 l 1
38 376 m 1
 38 259 l 1
 297 259 l 1
 297 376 l 1
 38 376 l 1
EndSplineSet
EndChar

StartChar: fraction
Encoding: 258 8260 142
Width: 530
VWidth: 0
Flags: HW
HStem: 0 46<237 461> 772 22<46 277>
LayerCount: 2
Fore
SplineSet
318 771 m 1
 513 0 l 1
 237 0 l 1
 213 24 l 1
 18 795 l 1
 294 795 l 1
 318 771 l 1
46 772 m 1
 230 46 l 1
 461 46 l 1
 277 772 l 1
 46 772 l 1
EndSplineSet
EndChar

StartChar: quotesinglbase
Encoding: 130 8218 143
Width: 210
VWidth: 0
Flags: HW
HStem: -73 46<38 86> 162 22<35 148>
VStem: 13 22<-27 162>
LayerCount: 2
Fore
SplineSet
178 184 m 1
 203 160 l 1
 126 -74 l 1
 38 -73 l 1
 13 -49 l 1
 13 184 l 1
 178 184 l 1
35 162 m 1
 35 -27 l 1
 86 -27 l 1
 148 162 l 1
 35 162 l 1
EndSplineSet
EndChar

StartChar: grave
Encoding: 96 96 144
Width: 382
VWidth: 0
Flags: HW
HStem: 608 191
VStem: 13 22<695 771> 324 47<657 698>
LayerCount: 2
Fore
SplineSet
346 722 m 1
 370 698 l 1
 370 608 l 1
 37 651 l 1
 13 675 l 1
 13 799 l 1
 346 722 l 1
35 771 m 1
 35 695 l 1
 324 657 l 1
 324 705 l 1
 35 771 l 1
EndSplineSet
EndChar

StartChar: acute
Encoding: 180 180 145
Width: 375
VWidth: 0
Flags: HW
HStem: 608 192
VStem: 11 22<657 705> 322 46<695 771>
LayerCount: 2
Fore
SplineSet
368 775 m 5
 368 651 l 5
 35 608 l 5
 11 632 l 5
 11 722 l 5
 344 799 l 5
 368 775 l 5
33 705 m 5
 33 657 l 5
 322 695 l 5
 322 771 l 5
 33 705 l 5
EndSplineSet
EndChar

StartChar: quotedblbase
Encoding: 132 8222 146
Width: 451
VWidth: 0
Flags: HW
HStem: -83 46<43 159 230 347> 153 22<80 197 268 384>
LayerCount: 2
Fore
SplineSet
411 175 m 1
 435 151 l 1
 389 -83 l 1
 227 -83 l 1
 206 -61 l 1
 202 -83 l 1
 40 -83 l 1
 16 -59 l 1
 62 175 l 1
 224 175 l 1
 245 153 l 1
 249 175 l 1
 411 175 l 1
159 -37 m 1
 197 153 l 1
 80 153 l 1
 43 -37 l 1
 159 -37 l 1
347 -37 m 1
 384 153 l 1
 268 153 l 1
 230 -37 l 1
 347 -37 l 1
EndSplineSet
EndChar

StartChar: dieresis
Encoding: 168 168 147
Width: 418
VWidth: 0
Flags: HW
HStem: 614 46<41 156 241 356> 777 22<39 156 239 356>
VStem: 17 22<660 777> 156 46<660 775> 217 22<660 777> 356 46<660 775>
LayerCount: 2
Fore
SplineSet
178 799 m 5
 202 775 l 5
 202 614 l 5
 41 614 l 5
 17 638 l 5
 17 799 l 5
 178 799 l 5
39 777 m 5
 39 660 l 5
 156 660 l 5
 156 777 l 5
 39 777 l 5
378 799 m 5
 402 775 l 5
 402 614 l 5
 241 614 l 5
 217 638 l 5
 217 799 l 5
 378 799 l 5
239 777 m 5
 239 660 l 5
 356 660 l 5
 356 777 l 5
 239 777 l 5
EndSplineSet
EndChar

StartChar: ring
Encoding: 259 730 148
Width: 400
VWidth: 0
Flags: HW
HStem: 437 47<129 262> 533 22<148 225> 681 47<159 248> 777 22<133 240>
VStem: 18 22<577 685> 89 47<569 658> 262 22<592 669> 333 47<555 688>
LayerCount: 2
Fore
SplineSet
186 533 m 0
 132 533 89 577 89 631 c 0
 89 685 132 728 186 728 c 0
 240 728 284 685 284 631 c 0
 284 577 240 533 186 533 c 0
186 556 m 0
 227 556 262 590 262 631 c 0
 262 645 258 658 251 669 c 0
 240 676 226 681 211 681 c 0
 170 681 136 647 136 606 c 0
 136 592 140 578 147 567 c 0
 159 560 171 556 186 556 c 0
329 725 m 2
 360 694 380 653 380 606 c 0
 380 513 304 437 211 437 c 0
 163 437 121 457 90 489 c 2
 90 489 l 1
 73 507 l 1
 73 507 l 2
 39 538 18 582 18 631 c 0
 18 724 93 799 186 799 c 0
 235 799 279 778 310 745 c 2
 310 745 l 1
 329 725 l 1
 329 725 l 2
186 777 m 0
 105 777 40 712 40 631 c 0
 40 550 105 484 186 484 c 0
 267 484 333 550 333 631 c 0
 333 712 267 777 186 777 c 0
EndSplineSet
EndChar

StartChar: tilde
Encoding: 152 732 149
Width: 351
VWidth: 0
Flags: HW
HStem: 612 41<163 292> 638 41<57 189> 731 20<182 277> 759 20<60 156>
VStem: 15 20<662 735> 293 42<658 747>
LayerCount: 2
Fore
SplineSet
334 778 m 1x7c
 335 628 l 1
 329 626 l 2
 328 625 295 612 252 612 c 0xbc
 227 612 204 617 182 626 c 0
 164 634 144 638 126 638 c 0
 81 638 53 614 53 614 c 2
 37 601 l 1
 15 622 l 1
 15 744 l 1
 18 746 l 2
 19 747 52 779 106 779 c 0
 126 779 147 775 168 766 c 0
 192 756 214 751 234 751 c 0
 277 751 294 774 295 775 c 2
 313 799 l 1
 334 778 l 1x7c
35 735 m 2
 35 735 l 1
 35 662 l 2
 50 670 74 679 105 679 c 0x7c
 126 679 147 675 168 666 c 0
 187 658 208 653 231 653 c 0
 259 653 282 659 293 663 c 2
 293 747 l 2
 281 739 261 731 234 731 c 0
 211 731 187 737 160 748 c 0
 142 756 124 759 106 759 c 0
 68 759 43 742 35 735 c 2
EndSplineSet
EndChar

StartChar: circumflex
Encoding: 136 710 150
Width: 399
VWidth: 0
Flags: HW
HStem: 609 190
VStem: 6 22<662 734> 347 46<662 727>
LayerCount: 2
Fore
SplineSet
369 751 m 1
 393 727 l 1
 393 609 l 1
 211 658 l 1
 30 609 l 1
 6 634 l 1
 6 751 l 1
 187 799 l 1
 369 751 l 1
29 734 m 1
 29 734 l 1
 29 662 l 1
 187 705 l 1
 347 662 l 1
 347 734 l 1
 187 776 l 1
 29 734 l 1
EndSplineSet
EndChar

StartChar: endash
Encoding: 150 8211 151
Width: 649
VWidth: 0
Flags: HW
HStem: 203 46<40 586> 375 22<38 586>
VStem: 16 22<250 375> 586 46<250 373>
LayerCount: 2
Fore
SplineSet
608 398 m 1
 632 373 l 1
 632 203 l 1
 40 203 l 1
 16 227 l 1
 16 398 l 1
 608 398 l 1
38 375 m 1
 38 250 l 1
 586 250 l 1
 586 375 l 1
 38 375 l 1
EndSplineSet
EndChar

StartChar: emdash
Encoding: 151 8212 152
Width: 812
VWidth: 0
Flags: HW
HStem: 204 46<44 747> 375 22<42 747>
VStem: 20 22<250 375> 747 46<250 374>
LayerCount: 2
Fore
SplineSet
769 398 m 1
 793 374 l 1
 793 204 l 1
 44 204 l 1
 20 227 l 1
 20 398 l 1
 769 398 l 1
42 375 m 1
 42 250 l 1
 747 250 l 1
 747 375 l 1
 42 375 l 1
EndSplineSet
EndChar

StartChar: dotaccent
Encoding: 260 729 153
Width: 311
VWidth: 0
Flags: HW
HStem: 516 46<93 204> 777 22<93 187>
VStem: 10 22<623 716> 248 47<604 718>
LayerCount: 2
Fore
SplineSet
253 740 m 2
 278 716 294 683 294 646 c 0
 294 574 236 516 164 516 c 0
 130 516 100 529 77 550 c 2
 77 550 l 1
 75 552 l 2
 74 553 74 553 73 554 c 2
 51 575 l 1
 51 575 l 2
 26 599 10 632 10 669 c 0
 10 741 68 799 140 799 c 0
 177 799 210 784 234 759 c 2
 234 759 l 1
 253 740 l 1
 253 740 l 2
140 777 m 0
 81 777 32 728 32 669 c 0
 32 610 81 562 140 562 c 0
 199 562 248 610 248 669 c 0
 248 728 199 777 140 777 c 0
EndSplineSet
EndChar

StartChar: macron
Encoding: 175 175 154
Width: 362
VWidth: 0
Flags: HW
HStem: 614 47<40 297> 777 22<38 297>
VStem: 16 22<660 777> 297 46<660 775>
LayerCount: 2
Fore
SplineSet
319 799 m 1
 343 775 l 1
 343 614 l 1
 40 614 l 1
 16 638 l 1
 16 799 l 1
 319 799 l 1
38 777 m 1
 38 660 l 1
 297 660 l 1
 297 777 l 1
 38 777 l 1
EndSplineSet
EndChar

StartChar: dotlessi
Encoding: 261 305 155
Width: 323
VWidth: 0
Flags: HW
HStem: 0 48<33 262> 575 22<30 262>
VStem: 8 22<48 575> 262 47<48 572>
LayerCount: 2
Fore
SplineSet
8 598 m 1
 284 598 l 1
 309 572 l 1
 309 0 l 1
 33 0 l 1
 8 26 l 1
 8 598 l 1
30 575 m 1
 30 48 l 1
 262 48 l 1
 262 575 l 1
 30 575 l 1
EndSplineSet
EndChar

StartChar: approxequal
Encoding: 262 8776 156
Width: 381
VWidth: 0
Flags: HW
HStem: 292 46<181 324> 321 46<62 206> 426 67<166 324> 457 64<42 202> 580 22<201 306> 611 22<64 171>
VStem: 13 22<348 437 502 592> 325 47<344 444 498 598>
LayerCount: 2
Fore
SplineSet
371 465 m 5x4f
 371 465 l 5
 371 311 l 5
 364 308 l 6
 362 307 327 292 279 292 c 4x8f
 251 292 224 298 200 308 c 4
 179 317 159 321 138 321 c 4
 88 321 56 295 56 295 c 6
 38 280 l 5
 13 304 l 5
 13 440 l 5
 13 458 l 5
 13 594 l 5
 17 597 l 6
 19 598 54 634 115 634 c 4
 138 634 161 629 184 619 c 4
 211 608 237 602 259 602 c 4
 307 602 326 628 327 629 c 6
 347 656 l 5
 371 632 l 5
 371 465 l 5x4f
255 339 m 4
 287 339 313 346 325 350 c 6
 325 444 l 6
 311 435 289 426 259 426 c 4xaf
 234 426 206 433 176 445 c 4
 156 453 135 457 115 457 c 4
 73 457 45 438 36 430 c 6
 36 348 l 6
 53 357 80 368 114 368 c 4x5f
 138 368 161 363 184 353 c 4
 205 344 230 339 255 339 c 4
255 493 m 4
 287 493 313 500 325 504 c 6
 325 598 l 6
 311 589 289 580 259 580 c 4
 234 580 206 587 176 599 c 4
 156 607 135 611 115 611 c 4
 73 611 45 592 36 584 c 6
 36 502 l 6
 53 511 80 522 114 522 c 4x1f
 138 522 161 517 184 507 c 4
 205 498 230 493 255 493 c 4
EndSplineSet
EndChar

StartChar: notequal
Encoding: 263 8800 157
Width: 515
VWidth: 0
Flags: HW
HStem: 109 46<55 104> 260 46<49 85 222 447> 423 22<47 184 321 447> 471 46<49 198 335 447> 634 22<47 296 433 447> 785 22<390 440>
VStem: 25 22<306 423 517 634> 447 46<306 421 517 632>
LayerCount: 2
Fore
SplineSet
433 656 m 5
 433 656 l 5
 469 656 l 5
 493 632 l 5
 493 471 l 5
 335 471 l 5
 321 445 l 5
 469 445 l 5
 494 421 l 5
 494 260 l 5
 222 260 l 5
 142 109 l 5
 42 109 l 5
 18 134 l 5
 85 260 l 5
 49 260 l 5
 25 284 l 5
 25 445 l 5
 184 445 l 5
 198 471 l 5
 49 471 l 5
 25 495 l 5
 25 656 l 5
 296 656 l 5
 377 807 l 5
 477 807 l 5
 501 783 l 5
 433 656 l 5
447 306 m 5
 447 423 l 5
 247 423 l 5
 297 517 l 5
 447 517 l 5
 447 634 l 5
 360 634 l 5
 440 785 l 5
 390 785 l 5
 310 634 l 5
 47 634 l 5
 47 517 l 5
 248 517 l 5
 197 423 l 5
 47 423 l 5
 47 306 l 5
 135 306 l 5
 55 156 l 5
 104 156 l 5
 185 306 l 5
 447 306 l 5
EndSplineSet
EndChar

StartChar: lessequal
Encoding: 264 8804 158
Width: 594
VWidth: 0
Flags: HW
HStem: 0 44<45 534> 164 21<43 534>
VStem: 23 20<44 164 462 580> 534 41<44 163 265 364 668 777>
LayerCount: 2
Fore
SplineSet
554 186 m 1
 576 163 l 1
 576 0 l 1
 45 0 l 1
 23 23 l 1
 23 186 l 1
 554 186 l 1
43 164 m 1
 43 44 l 1
 534 44 l 1
 534 164 l 1
 43 164 l 1
576 786 m 1
 576 631 l 1
 263 505 l 1
 553 387 l 1
 576 364 l 1
 576 210 l 1
 46 425 l 1
 23 448 l 1
 23 594 l 1
 30 597 l 1
 553 809 l 1
 576 786 l 1
531 265 m 1
 531 373 l 1
 167 521 l 1
 531 668 l 1
 531 777 l 1
 44 580 l 1
 44 462 l 1
 531 265 l 1
EndSplineSet
EndChar

StartChar: greaterequal
Encoding: 265 8805 159
Width: 595
VWidth: 0
Flags: HW
HStem: 0 44<45 534> 164 21<43 534>
VStem: 23 20<44 164 264 373 668 777> 534 41<44 163 462 571>
LayerCount: 2
Fore
SplineSet
554 186 m 1
 575 163 l 1
 575 0 l 1
 45 0 l 1
 23 23 l 1
 23 186 l 1
 554 186 l 1
43 164 m 1
 43 44 l 1
 534 44 l 1
 534 164 l 1
 43 164 l 1
553 594 m 1
 575 571 l 1
 575 425 l 1
 569 422 l 1
 46 210 l 1
 23 233 l 1
 23 387 l 1
 336 514 l 1
 46 631 l 1
 23 654 l 1
 23 808 l 1
 553 594 l 1
44 373 m 1
 44 264 l 1
 532 462 l 1
 532 579 l 1
 44 777 l 1
 44 668 l 1
 409 521 l 1
 44 373 l 1
EndSplineSet
EndChar

StartChar: atilde
Encoding: 227 227 160
Width: 650
VWidth: 0
Flags: HW
HStem: 0 47<123 582> 167 22<309 329> 427 22<127 329> 469 47<113 316> 636 64<364 454> 636 22<112 151 189 365> 682 46<192 336> 787 22<331 437> 818 22<194 302>
VStem: 17 22<141 333> 89 22<516 636> 144 22<709 791> 262 48<193 260> 329 22<190 260 449 469> 455 47<705 805> 582 46<47 549>
LayerCount: 2
Fore
SplineSet
267 281 m 4xf1ff
 271 293 281 307 309 307 c 6
 352 307 l 5
 352 189 l 5
 350 186 l 6
 345 177 335 167 311 167 c 6
 310 167 l 6
 282 167 271 180 267 192 c 4
 265 197 263 206 262 236 c 6
 262 237 l 5
 262 237 l 6
 263 267 265 276 267 281 c 4xf1ff
329 260 m 6
 315 259 314 253 313 250 c 4
 312 247 310 238 309 212 c 4
 309 202 309 195 310 189 c 6
 311 189 l 6
 323 189 327 193 329 195 c 6
 329 260 l 6
628 422 m 6
 628 0 l 5
 222 0 l 6
 184 0 151 7 125 21 c 4
 110 29 97 39 86 51 c 6
 86 50 l 5
 65 72 l 5
 65 72 l 6
 56 81 49 90 43 101 c 4
 31 124 23 148 20 172 c 4
 19 183 18 213 17 236 c 4
 18 271 19 292 20 301 c 4
 23 325 31 349 43 372 c 4
 56 395 75 414 101 428 c 4
 127 442 160 449 198 449 c 6
 329 449 l 5
 329 469 l 5
 290 469 126 469 124 469 c 6
 113 469 l 5
 89 493 l 5
 89 658 l 5
 151 658 l 5
 144 665 l 5
 144 801 l 5
 147 804 l 6
 149 805 185 841 246 841 c 4
 269 841 292 836 315 826 c 4
 342 815 367 809 389 809 c 4
 437 809 456 835 457 836 c 6
 477 863 l 5
 501 839 l 5
 502 672 l 5
 495 669 l 6
 494 669 476 661 450 657 c 5
 477 654 501 648 520 638 c 4
 533 631 544 622 554 613 c 6
 554 613 l 5
 554 613 l 6
 555 612 l 6
 580 586 l 5
 580 587 l 6
 589 578 596 568 602 557 c 4
 614 534 622 510 625 486 c 4
 626 477 627 456 628 422 c 6
166 791 m 6
 166 791 l 5
 166 709 l 6
 183 718 210 729 244 729 c 4xf3ff
 268 729 292 724 315 714 c 4
 336 705 360 700 385 700 c 4xf9ff
 417 700 443 707 455 711 c 6
 455 805 l 6
 441 796 419 787 389 787 c 4
 364 787 336 794 306 806 c 4
 286 814 266 818 246 818 c 4
 204 818 175 799 166 791 c 6
268 682 m 4
 226 682 198 664 189 658 c 6
 365 658 l 6xf7ff
 353 661 341 664 330 669 c 4
 309 678 289 682 268 682 c 4
582 47 m 5
 582 47 l 5
 582 446 l 6
 581 478 580 500 579 508 c 4
 576 530 570 551 559 571 c 4
 549 590 531 606 509 618 c 4
 486 630 458 636 423 636 c 6xf9ff
 112 636 l 5
 112 516 l 5
 156 516 314 515 315 515 c 6
 316 515 l 6
 341 511 351 493 352 478 c 6
 352 427 l 5
 198 427 l 6
 163 427 135 421 112 409 c 4
 90 397 72 381 62 362 c 4
 51 342 45 321 42 299 c 4
 41 291 40 268 39 236 c 4
 40 204 41 183 42 175 c 4
 45 153 51 132 62 112 c 4
 72 93 90 77 112 65 c 4
 135 53 163 47 198 47 c 6
 582 47 l 5
EndSplineSet
EndChar

StartChar: aacute
Encoding: 225 225 161
Width: 657
VWidth: 0
Flags: HW
HStem: 0 47<133 592> 167 22<319 339> 427 22<137 339> 469 47<123 326> 636 22<122 171 229 504>
VStem: 27 22<141 333> 99 22<516 636> 154 22<701 748> 272 48<193 260> 339 22<190 260 449 469> 465 46<739 815> 592 46<47 549>
LayerCount: 2
Fore
SplineSet
277 281 m 4
 281 293 291 307 319 307 c 6
 362 307 l 5
 362 189 l 5
 360 186 l 6
 355 177 345 167 321 167 c 6
 320 167 l 6
 292 167 281 180 277 192 c 4
 275 197 273 206 272 236 c 6
 272 237 l 5
 272 237 l 6
 273 267 275 276 277 281 c 4
339 260 m 6
 325 259 324 253 323 250 c 4
 322 247 320 238 319 212 c 4
 319 202 319 195 320 189 c 6
 321 189 l 6
 333 189 337 193 339 195 c 6
 339 260 l 6
638 422 m 6
 638 0 l 5
 232 0 l 6
 193 0 161 7 135 21 c 4
 120 29 107 39 96 51 c 6
 96 50 l 5
 75 72 l 5
 75 72 l 6
 66 81 59 90 53 101 c 4
 41 124 33 148 30 172 c 4
 29 183 28 213 27 236 c 4
 28 271 29 292 30 301 c 4
 33 325 41 349 53 372 c 4
 66 395 85 414 111 428 c 4
 137 442 170 449 208 449 c 6
 339 449 l 5
 339 469 l 5
 300 469 136 469 134 469 c 6
 123 469 l 5
 99 493 l 5
 99 658 l 5
 171 658 l 5
 154 676 l 5
 154 766 l 5
 487 843 l 5
 511 819 l 5
 511 695 l 5
 229 658 l 5
 432 658 l 6
 471 658 504 652 530 638 c 4
 543 631 554 622 564 613 c 6
 564 613 l 5
 564 613 l 6
 565 612 l 6
 590 587 l 5
 590 587 l 6
 599 578 606 568 612 557 c 4
 624 534 632 510 635 486 c 4
 636 477 637 456 638 422 c 6
176 748 m 5
 176 748 l 5
 176 701 l 5
 465 739 l 5
 465 815 l 5
 176 748 l 5
592 47 m 5
 592 446 l 6
 591 478 590 500 589 508 c 4
 586 530 580 551 569 571 c 4
 559 590 541 606 519 618 c 4
 496 630 468 636 433 636 c 6
 122 636 l 5
 122 516 l 5
 166 516 324 515 325 515 c 6
 326 515 l 6
 351 511 361 493 362 478 c 6
 362 427 l 5
 208 427 l 6
 173 427 145 421 122 409 c 4
 100 397 82 381 72 362 c 4
 61 342 55 321 52 299 c 4
 51 291 50 268 49 236 c 4
 50 204 51 183 52 175 c 4
 55 153 61 132 72 112 c 4
 82 93 100 77 122 65 c 4
 145 53 173 47 208 47 c 6
 592 47 l 5
EndSplineSet
EndChar

StartChar: agrave
Encoding: 224 224 162
Width: 654
VWidth: 0
Flags: HW
HStem: 0 47<127 586> 167 22<313 333> 427 22<131 333> 469 47<117 320> 636 22<116 498>
VStem: 21 22<141 333> 93 22<516 636> 148 22<739 816> 266 48<193 260> 333 22<190 260 449 469> 459 47<702 743> 586 46<47 549>
LayerCount: 2
Fore
SplineSet
271 281 m 4
 275 293 285 307 313 307 c 6
 356 307 l 5
 356 189 l 5
 354 186 l 6
 349 177 339 167 315 167 c 6
 314 167 l 6
 286 167 275 180 271 192 c 4
 269 197 267 206 266 236 c 6
 266 237 l 5
 266 237 l 6
 267 267 269 276 271 281 c 4
333 260 m 6
 319 259 318 253 317 250 c 4
 316 247 314 238 313 212 c 4
 313 202 313 195 314 189 c 6
 315 189 l 6
 327 189 331 193 333 195 c 6
 333 260 l 6
632 422 m 6
 632 0 l 5
 226 0 l 6
 187 0 155 7 129 21 c 4
 114 29 101 39 90 51 c 6
 90 50 l 5
 69 72 l 5
 69 72 l 6
 60 81 53 90 47 101 c 4
 35 124 27 148 24 172 c 4
 23 183 22 213 21 236 c 4
 22 271 23 292 24 301 c 4
 27 325 35 349 47 372 c 4
 60 395 79 414 105 428 c 4
 131 442 164 449 202 449 c 6
 333 449 l 5
 333 469 l 5
 294 469 130 469 128 469 c 6
 117 469 l 5
 93 493 l 5
 93 658 l 5
 426 658 l 6
 465 658 498 652 524 638 c 4
 537 631 548 622 558 613 c 6
 558 613 l 5
 558 613 l 6
 559 612 l 6
 584 587 l 5
 584 587 l 6
 593 578 600 568 606 557 c 4
 618 534 626 510 629 486 c 4
 630 477 631 456 632 422 c 6
586 47 m 5
 586 47 l 5
 586 446 l 6
 585 478 584 500 583 508 c 4
 580 530 574 551 563 571 c 4
 553 590 535 606 513 618 c 4
 490 630 462 636 427 636 c 6
 116 636 l 5
 116 516 l 5
 160 516 318 515 319 515 c 6
 320 515 l 6
 345 511 355 493 356 478 c 6
 356 427 l 5
 202 427 l 6
 167 427 139 421 116 409 c 4
 94 397 76 381 66 362 c 4
 55 342 49 321 46 299 c 4
 45 291 44 268 43 236 c 4
 44 204 45 183 46 175 c 4
 49 153 55 132 66 112 c 4
 76 93 94 77 116 65 c 4
 139 53 167 47 202 47 c 6
 586 47 l 5
505 652 m 5
 172 696 l 5
 148 720 l 5
 148 844 l 5
 481 767 l 5
 505 743 l 5
 505 652 l 5
170 816 m 5
 170 739 l 5
 459 702 l 5
 459 749 l 5
 170 816 l 5
EndSplineSet
EndChar

StartChar: adieresis
Encoding: 228 228 163
Width: 652
VWidth: 0
Flags: HW
HStem: 0 47<123 582> 167 22<309 329> 427 22<127 329> 469 47<113 316> 636 65<151 268 351 467> 636 22<112 150 314 350> 818 22<151 268 351 468>
VStem: 17 22<141 333> 89 22<516 636> 129 22<701 818> 268 46<193 260 701 817> 329 22<190 260 449 469 701 818> 468 46<701 817> 582 46<47 549>
LayerCount: 2
Fore
SplineSet
267 281 m 4xf3fc
 271 293 281 307 309 307 c 6
 352 307 l 5
 352 189 l 5
 350 186 l 6
 345 177 335 167 311 167 c 6
 310 167 l 6
 282 167 271 180 267 192 c 4
 265 197 263 206 262 236 c 6
 262 237 l 5
 262 237 l 6
 263 267 265 276 267 281 c 4xf3fc
329 260 m 6
 315 259 314 253 313 250 c 4
 312 247 310 238 309 212 c 4
 309 202 309 195 310 189 c 6
 311 189 l 6
 323 189 327 193 329 195 c 6
 329 260 l 6
628 422 m 6
 628 0 l 5
 222 0 l 6
 183 0 151 7 125 21 c 4
 110 29 97 39 86 51 c 6
 86 50 l 5
 65 72 l 5
 65 72 l 6
 56 81 49 90 43 101 c 4
 31 124 23 148 20 172 c 4
 19 183 18 213 17 236 c 4
 18 271 19 292 20 301 c 4
 23 325 31 349 43 372 c 4
 56 395 75 414 101 428 c 4
 127 442 160 449 198 449 c 6
 329 449 l 5
 329 469 l 5
 290 469 126 469 124 469 c 6
 113 469 l 5
 89 493 l 5
 89 658 l 5
 150 658 l 5
 129 679 l 5
 129 840 l 5
 290 840 l 5
 314 817 l 5
 314 658 l 5
 350 658 l 5xf7fc
 329 679 l 5
 329 840 l 5
 490 840 l 5
 514 817 l 5
 514 655 l 5
 463 655 l 6
 484 652 504 647 520 638 c 4
 533 631 544 622 554 613 c 6
 554 613 l 5
 554 613 l 6
 555 612 l 6
 580 587 l 5
 580 587 l 6
 589 578 596 568 602 557 c 4
 614 534 622 510 625 486 c 4
 626 477 627 456 628 422 c 6
151 818 m 5
 151 701 l 5
 268 701 l 5xfbfc
 268 818 l 5
 151 818 l 5
351 818 m 5
 351 701 l 5
 468 701 l 5
 468 818 l 5
 351 818 l 5
582 47 m 5
 582 47 l 5
 582 446 l 6
 581 478 580 500 579 508 c 4
 576 530 570 551 559 571 c 4
 549 590 531 606 509 618 c 4
 486 630 458 636 423 636 c 6xfbfc
 112 636 l 5xf7fc
 112 516 l 5
 156 516 314 515 315 515 c 6
 316 515 l 6
 341 511 351 493 352 478 c 6
 352 427 l 5
 198 427 l 6
 163 427 135 421 112 409 c 4
 90 397 72 381 62 362 c 4
 51 342 45 321 42 299 c 4
 41 291 40 268 39 236 c 4
 40 204 41 183 42 175 c 4
 45 153 51 132 62 112 c 4
 72 93 90 77 112 65 c 4
 135 53 163 47 198 47 c 6
 582 47 l 5
EndSplineSet
EndChar

StartChar: acircumflex
Encoding: 226 226 164
Width: 642
VWidth: 0
Flags: HW
HStem: 0 47<120 579> 167 22<306 326> 427 22<124 326> 469 47<110 313> 636 22<109 143 178 491>
VStem: 14 22<141 333> 86 22<516 636> 126 22<704 775> 259 48<193 260> 326 22<190 260 449 469> 467 46<704 768> 579 46<47 549>
LayerCount: 2
Fore
SplineSet
264 281 m 4
 268 293 278 307 306 307 c 6
 349 307 l 5
 349 189 l 5
 347 186 l 6
 342 177 332 167 308 167 c 6
 307 167 l 6
 279 167 268 180 264 192 c 4
 262 197 260 206 259 236 c 6
 259 237 l 5
 259 237 l 6
 260 267 262 276 264 281 c 4
326 260 m 6
 312 259 311 253 310 250 c 4
 309 247 307 238 306 212 c 4
 306 202 306 195 307 189 c 6
 308 189 l 6
 320 189 324 193 326 195 c 6
 326 260 l 6
625 422 m 6
 625 0 l 5
 219 0 l 6
 180 0 148 7 122 21 c 4
 107 29 94 39 83 51 c 6
 83 50 l 5
 62 72 l 5
 62 72 l 6
 53 81 46 90 40 101 c 4
 28 124 20 148 17 172 c 4
 16 183 15 213 14 236 c 4
 15 271 16 292 17 301 c 4
 20 325 28 349 40 372 c 4
 53 395 72 414 98 428 c 4
 124 442 157 449 195 449 c 6
 326 449 l 5
 326 469 l 5
 287 469 124 469 122 469 c 6
 110 469 l 5
 86 493 l 5
 86 658 l 5
 143 658 l 5
 126 675 l 5
 126 792 l 5
 307 841 l 5
 489 792 l 5
 513 768 l 5
 513 651 l 5
 331 699 l 5
 178 658 l 5
 419 658 l 6
 458 658 491 652 517 638 c 4
 530 631 541 622 551 613 c 6
 551 613 l 5
 551 613 l 6
 552 612 l 6
 577 586 l 5
 577 587 l 6
 586 578 593 568 599 557 c 4
 611 534 619 510 622 486 c 4
 623 477 624 456 625 422 c 6
148 775 m 5
 148 704 l 5
 307 746 l 5
 467 704 l 5
 467 775 l 5
 307 818 l 5
 148 775 l 5
579 47 m 5
 579 47 l 5
 579 446 l 6
 578 478 577 500 576 508 c 4
 573 530 567 551 556 571 c 4
 546 590 528 606 506 618 c 4
 483 630 455 636 420 636 c 6
 109 636 l 5
 109 516 l 5
 153 516 311 515 312 515 c 6
 313 515 l 6
 338 511 348 493 349 478 c 6
 349 427 l 5
 195 427 l 6
 160 427 132 421 109 409 c 4
 87 397 69 381 59 362 c 4
 48 342 42 321 39 299 c 4
 38 291 37 268 36 236 c 4
 37 204 38 183 39 175 c 4
 42 153 48 132 59 112 c 4
 69 93 87 77 109 65 c 4
 132 53 160 47 195 47 c 6
 579 47 l 5
EndSplineSet
EndChar

StartChar: ccedilla
Encoding: 231 231 165
Width: 460
VWidth: 0
Flags: HW
HStem: -209 47<160 341> -113 52<191 314> -113 22<158 179> -12 58<240 341> 0 46<332 393> 167 22<310 393> 470 46<313 393> 637 22<129 393>
VStem: 16 22<143 541> 136 22<-162 -113> 169 22<-61 8> 262 46<193 460> 363 47<-139 -50> 393 46<46 165 516 635> 415 24<506 509>
LayerCount: 2
Fore
SplineSet
313 460 m 4xaff2
 311 454 308 432 308 351 c 6
 308 284 l 6
 308 232 310 204 311 189 c 6
 415 189 l 5
 439 165 l 5xaff4
 439 0 l 5
 332 0 l 6
 344 -6 354 -14 362 -24 c 6
 362 -24 l 5
 379 -41 l 5
 379 -41 l 6
 398 -59 410 -83 410 -111 c 4xaffa
 410 -165 366 -209 312 -209 c 6
 160 -209 l 5
 136 -184 l 5
 136 -91 l 5
 179 -91 l 5
 169 -83 l 5
 169 5 l 6
 153 8 138 14 125 21 c 4
 111 28 100 37 90 47 c 6
 90 47 l 5
 66 71 l 5
 66 71 l 6
 57 80 49 90 43 101 c 4
 31 124 23 147 20 172 c 4
 18 190 17 222 16 265 c 4
 16 289 18 494 20 511 c 4
 23 536 31 559 43 582 c 4
 56 605 76 625 102 639 c 4
 128 653 160 659 199 659 c 6
 415 659 l 5
 439 635 l 5xaff4
 439 470 l 5
 334 470 l 6
 316 470 314 463 313 460 c 4xaff2
415 509 m 5x87f2
 415 506 l 5
 415 506 l 5
 415 509 l 5x87f2
268 192 m 4
 265 200 262 222 262 308 c 6
 262 376 l 6
 262 462 265 483 268 491 c 4
 272 503 282 516 310 516 c 6
 393 516 l 5
 393 637 l 5
 199 637 l 6
 164 637 135 631 112 619 c 4
 90 607 73 591 63 572 c 4
 52 552 45 530 42 508 c 4
 41 496 39 356 38 265 c 4
 39 223 40 192 42 175 c 4
 45 153 52 132 63 112 c 4
 73 93 90 76 112 64 c 4
 133 53 159 47 191 46 c 6
 191 46 l 5
 191 24 l 5
 191 2 l 5
 191 -14 l 5
 191 -61 l 5
 288 -61 l 6
 302 -61 314 -73 314 -87 c 4
 314 -101 302 -113 288 -113 c 6xcff4
 158 -113 l 5
 158 -162 l 5
 288 -162 l 6
 329 -162 363 -128 363 -87 c 4
 363 -46 329 -12 288 -12 c 6
 240 -12 l 5
 240 -0 l 5
 240 24 l 5
 240 46 l 5
 240 46 l 5xb7f8
 393 46 l 5
 393 167 l 5x8ff4
 310 167 l 6
 282 167 272 180 268 192 c 4
EndSplineSet
EndChar

StartChar: Ccedilla
Encoding: 199 199 166
Width: 503
VWidth: 0
Flags: HW
HStem: -208 47<185 366> -112 52<216 339> -112 22<182 204> -11 58<265 366> 0 47<357 435> 167 22<320 435> 598 46<323 435> 765 22<137 435>
VStem: 25 22<144 668> 160 22<-161 -112> 194 22<-60 5> 271 47<193 588> 388 47<-138 -49> 435 47<47 165 644 763>
LayerCount: 2
Fore
SplineSet
323 588 m 0xaffc
 321 582 318 560 318 480 c 2
 318 283 l 2
 318 231 320 204 321 189 c 0
 338 189 442 189 446 189 c 2
 457 190 l 1
 482 165 l 1
 483 154 l 1
 483 0 l 1
 357 0 l 2
 368 -6 379 -13 387 -23 c 2
 387 -23 l 1
 404 -40 l 1
 404 -40 l 2
 423 -58 434 -83 434 -111 c 0
 434 -165 391 -208 337 -208 c 2
 185 -208 l 1
 160 -184 l 1
 160 -90 l 1
 204 -90 l 1
 194 -82 l 1
 194 3 l 2
 172 6 153 12 136 21 c 0
 125 27 115 34 106 42 c 2
 106 42 l 1
 104 43 l 2
 103 44 101 46 100 47 c 2
 77 69 l 2
 76 70 l 2
 76 70 l 1
 76 70 l 2
 66 79 58 90 52 101 c 0
 40 124 33 148 30 172 c 0
 28 192 25 230 25 284 c 1
 25 284 l 1
 25 295 l 1
 25 527 l 2
 25 581 28 619 30 639 c 0
 33 663 40 687 52 710 c 0
 65 733 85 752 111 766 c 0
 137 780 170 787 208 787 c 2
 457 787 l 1
 483 763 l 1
 483 598 l 1
 483 598 385 598 355 598 c 2
 344 598 l 2
 327 598 324 591 323 588 c 0xaffc
277 192 m 0
 274 200 271 221 271 307 c 2
 271 504 l 2
 271 590 274 611 277 619 c 0
 280 629 288 641 308 644 c 2
 308 644 403 644 435 644 c 2
 435 765 l 1
 208 765 l 2
 173 765 144 759 121 747 c 0
 99 735 82 719 72 700 c 0
 61 680 55 659 52 637 c 0
 49 616 48 575 48 516 c 2
 48 506 l 1
 48 300 l 1
 48 295 l 2
 48 236 49 196 52 175 c 0
 55 153 61 132 72 112 c 0
 82 93 99 77 121 65 c 0
 144 53 173 47 208 47 c 2
 216 47 l 1
 216 46 l 1
 216 24 l 1
 216 1 l 1
 216 -13 l 1
 216 -60 l 1
 313 -60 l 2
 327 -60 339 -72 339 -86 c 0
 339 -100 327 -112 313 -112 c 2xcffc
 182 -112 l 1
 182 -161 l 1
 313 -161 l 2
 354 -161 388 -127 388 -86 c 0
 388 -45 354 -11 313 -11 c 2
 265 -11 l 1
 265 -0 l 1
 265 24 l 1
 265 46 l 1
 265 47 l 1xb7fc
 435 47 l 1
 435 167 l 2
 403 167 320 167 319 167 c 0
 291 167 281 180 277 192 c 0
EndSplineSet
EndChar

